<?xml version="1.0" standalone="no"?>
<!DOCTYPE svg PUBLIC "-//W3C//DTD SVG 20010904//EN"
 "http://www.w3.org/TR/2001/REC-SVG-20010904/DTD/svg10.dtd">
<svg version="1.0" xmlns="http://www.w3.org/2000/svg"
 width="730.000000pt" height="478.000000pt" viewBox="0 0 730.000000 478.000000"
 preserveAspectRatio="xMidYMid meet">

<g transform="translate(0.000000,478.000000) scale(0.100000,-0.100000)"
fill="#000000" stroke="none">
<path d="M2 3930 c2 -662 6 -852 16 -862 17 -17 15 -31 -3 -24 -13 5 -15 -34
-15 -314 0 -268 2 -320 14 -320 9 0 19 -20 26 -52 7 -29 16 -55 19 -58 11 -9
31 -60 32 -83 0 -21 1 -21 10 -2 6 13 7 -63 4 -214 -3 -128 -10 -241 -15 -250
-8 -13 -9 -12 -10 8 0 13 -3 22 -6 18 -6 -6 -11 -126 -18 -457 -3 -107 -9
-208 -15 -223 -6 -16 -8 -46 -5 -68 4 -26 3 -39 -5 -39 -7 0 -11 -23 -11 -65
0 -36 -4 -65 -10 -65 -6 0 -10 -157 -10 -430 l0 -430 751 0 752 0 -7 78 c-4
42 -15 95 -26 116 -11 22 -17 42 -15 44 27 27 95 -107 95 -185 l0 -53 578 0
578 0 22 43 c11 23 23 69 26 102 3 33 11 94 18 135 16 88 15 181 -3 265 -7 33
-13 79 -13 103 -1 23 -4 42 -7 42 -15 0 -29 60 -27 115 1 33 1 160 -1 281 l-3
222 62 143 c34 79 77 201 96 271 30 114 51 160 99 223 8 10 15 24 15 30 0 6 6
23 13 38 9 21 17 26 32 22 28 -8 202 -51 250 -62 40 -8 40 -9 38 -52 -2 -37 0
-42 15 -34 9 4 66 8 126 8 l110 0 55 105 c31 58 68 126 84 151 15 25 27 50 27
56 0 13 -51 28 -178 53 -56 11 -112 25 -123 31 -12 6 -75 12 -141 14 -92 3
-140 10 -202 29 -45 14 -105 30 -134 36 -28 7 -54 16 -57 20 -3 4 -32 11 -65
15 -32 4 -64 13 -71 21 -6 8 -26 14 -45 14 -45 0 -56 22 -37 76 17 49 35 59
93 49 50 -8 51 3 5 43 -30 27 -42 31 -102 32 -155 4 -163 5 -163 17 0 7 -10
13 -23 13 -17 0 -28 10 -41 41 -10 22 -23 38 -28 37 -6 -2 -23 9 -39 24 -25
26 -78 39 -80 21 0 -5 -2 -17 -4 -29 -5 -22 33 -48 57 -39 18 7 31 -5 46 -39
18 -40 8 -43 -30 -11 -29 24 -38 27 -88 22 -30 -2 -63 -8 -72 -12 -15 -6 -18
-2 -18 24 0 36 -12 39 -67 16 -49 -21 -52 -12 -6 16 24 15 54 24 79 24 33 0
40 3 35 14 -5 7 -4 34 1 60 5 25 10 56 10 67 1 43 125 69 188 40 51 -24 102
-63 121 -94 58 -95 71 -113 75 -110 5 6 -22 227 -31 250 -4 11 0 18 12 22 13
4 18 16 18 38 0 32 1 33 48 36 32 2 56 -2 72 -12 31 -20 41 -20 50 1 7 21 -27
53 -56 53 -14 0 -19 7 -19 25 0 31 5 31 42 0 33 -28 46 -28 62 -2 9 13 6 20
-12 32 -12 9 -22 19 -22 23 0 4 80 5 177 4 98 -2 224 -1 281 3 92 6 102 9 102
26 0 19 -8 20 -212 18 -117 -1 -232 -5 -256 -9 -36 -6 -44 -5 -53 12 -6 11 -8
22 -5 25 5 5 156 10 388 12 92 1 120 4 132 17 34 33 9 36 -216 29 -120 -4
-238 -8 -261 -9 -36 -1 -42 2 -45 22 -3 17 2 22 17 22 12 0 21 5 21 11 0 5 5
7 12 3 7 -4 8 -3 4 4 -4 7 -18 12 -30 12 -27 0 -54 26 -40 40 5 5 124 12 264
15 345 9 363 10 366 29 1 11 -9 18 -34 22 -52 10 -419 -3 -472 -16 -32 -8 -54
-8 -73 -1 -80 31 24 49 321 55 183 5 245 3 290 -8 135 -34 172 -40 184 -28 9
9 7 19 -10 42 -19 25 -20 33 -11 52 7 13 15 30 19 38 8 18 33 24 63 16 32 -8
100 -93 92 -114 -5 -14 -11 -12 -34 16 -30 34 -58 43 -47 16 16 -42 18 -64 4
-69 -11 -5 -12 -19 -3 -82 10 -69 13 -78 35 -83 27 -6 40 -30 16 -30 -34 0
-45 -40 -36 -130 5 -47 14 -99 20 -117 11 -31 13 -32 60 -26 61 7 87 -1 70
-22 -31 -38 33 -63 72 -28 33 30 57 26 79 -12 25 -42 46 -46 142 -27 26 5 49
6 52 2 7 -12 69 -21 163 -26 90 -4 114 -15 110 -48 -2 -13 3 -21 12 -21 8 0
14 6 12 14 -2 8 3 18 10 22 17 11 65 11 72 0 3 -5 34 -8 68 -7 51 1 66 -2 79
-18 15 -18 16 -18 45 0 16 10 35 24 42 31 7 7 20 13 29 13 12 0 14 -7 10 -29
-5 -22 0 -34 20 -52 14 -13 29 -34 34 -47 10 -25 32 -25 37 0 2 10 -7 18 -22
22 -32 8 -35 41 -5 57 24 12 39 -1 39 -33 0 -21 6 -22 65 -6 39 11 48 10 55
-2 6 -9 10 -10 10 -3 0 16 28 43 45 43 7 0 18 -13 24 -30 5 -16 12 -30 15 -30
3 0 19 14 36 30 17 17 39 30 49 30 25 0 45 -25 38 -50 -4 -16 0 -20 17 -20 12
0 27 5 33 11 8 8 17 8 32 -1 12 -6 26 -8 32 -5 5 4 16 2 23 -4 7 -6 34 -14 61
-18 38 -5 49 -3 57 10 12 23 41 11 28 -13 -7 -12 -4 -23 11 -39 26 -27 53 -28
44 -1 -4 12 2 30 14 47 11 15 23 39 25 53 3 14 5 27 6 30 0 3 14 -11 31 -30
28 -33 33 -35 92 -34 34 0 73 6 86 13 22 12 26 11 48 -17 25 -33 39 -33 82 0
41 31 53 24 47 -27 -2 -25 -3 -45 -2 -45 18 0 111 57 140 87 46 46 90 134 82
165 -3 13 -3 17 0 10 5 -10 13 -7 34 13 l27 26 40 -48 c22 -26 50 -68 62 -93
l21 -44 -25 -61 c-32 -77 -63 -197 -71 -272 -6 -58 -17 -94 -40 -123 -6 -8
-14 -33 -17 -54 -6 -37 -45 -86 -69 -86 -4 0 -8 -6 -8 -13 0 -8 -11 -24 -25
-37 -31 -29 -31 -37 -3 -46 l23 -7 -25 -9 c-40 -15 -4 -29 55 -22 113 14 173
94 241 318 51 168 70 194 35 48 -29 -122 -54 -282 -46 -290 3 -4 15 4 25 18
14 18 20 42 20 85 0 34 9 84 21 115 32 88 36 113 29 168 -3 29 -3 52 1 52 10
0 79 -78 79 -89 0 -14 83 -8 99 7 9 9 17 10 23 4 17 -17 48 24 48 64 0 28 3
35 15 30 8 -3 15 -2 16 2 5 37 5 62 -1 62 -4 0 -13 11 -20 25 -7 14 -19 25
-25 25 -6 0 -21 13 -32 28 -16 22 -30 28 -64 31 -24 1 -46 6 -49 10 -3 5 -21
18 -40 28 -37 21 -39 33 -30 138 1 17 -1 48 -5 70 -8 40 -8 40 13 22 20 -18
21 -18 43 7 14 16 38 29 61 32 44 7 49 19 13 28 -24 6 -25 9 -22 69 5 86 23
124 79 160 24 15 37 16 89 8 64 -11 84 -7 73 11 -4 5 -19 7 -35 4 -15 -3 -31
-1 -34 4 -13 22 60 35 88 15 12 -8 15 -15 8 -20 -19 -11 -12 -25 14 -25 13 0
58 18 100 41 l75 40 31 -30 c59 -60 59 -61 59 259 0 187 -4 290 -10 290 -5 0
-10 11 -10 25 0 14 5 25 10 25 6 0 10 132 10 375 l0 375 -704 0 -704 0 -6 -25
c-3 -13 -14 -26 -25 -30 -10 -3 -26 -26 -36 -50 -16 -44 -35 -60 -35 -30 0 8
-4 15 -10 15 -5 0 -10 -8 -10 -19 0 -10 -7 -24 -15 -31 -8 -7 -15 -21 -15 -31
0 -11 -5 -19 -11 -19 -6 0 -9 6 -6 13 3 8 1 20 -3 28 -9 14 -10 13 -24 -34 -3
-9 -15 -12 -35 -9 -33 5 -71 -19 -71 -44 0 -7 -6 -14 -12 -16 -27 -9 16 -207
68 -310 13 -27 21 -48 18 -48 -3 0 9 -18 26 -40 17 -22 27 -40 21 -40 -6 0 -8
-7 -4 -16 4 -11 8 -12 13 -4 13 20 26 3 24 -29 -1 -21 3 -31 12 -31 8 0 19 -9
26 -20 9 -13 24 -20 45 -20 21 0 42 -10 65 -30 18 -16 41 -30 51 -30 29 0 87
-28 87 -42 0 -7 11 -34 23 -59 27 -55 21 -95 -13 -84 -18 6 -25 -2 -21 -27 0
-4 -14 -18 -32 -32 -17 -15 -39 -32 -47 -38 -8 -7 -21 -13 -29 -13 -9 0 -18
-13 -22 -33 -4 -18 -14 -41 -23 -51 -9 -10 -16 -23 -16 -29 0 -6 -17 -16 -39
-22 -21 -5 -44 -17 -51 -25 -11 -13 -10 -14 6 -8 16 6 17 5 6 -9 -11 -14 -8
-24 18 -66 16 -27 30 -62 30 -78 1 -29 40 -84 60 -84 15 0 12 -30 -5 -36 -8
-3 -17 -13 -20 -22 -3 -10 -23 -25 -43 -34 -47 -22 -52 -22 -52 -4 0 8 -12 29
-27 47 -24 28 -28 42 -29 101 -1 56 -5 73 -28 102 -19 25 -27 48 -28 86 -2 38
-8 56 -25 72 -23 22 -32 78 -13 78 13 0 13 51 0 70 -9 13 -12 13 -23 -2 -8
-10 -22 -14 -39 -11 -24 5 -26 2 -26 -32 0 -53 -14 -62 -56 -36 -28 18 -39 34
-56 86 -20 59 -23 63 -37 49 -13 -13 -14 -22 -4 -55 13 -44 9 -59 -19 -59 -10
0 -20 -7 -24 -15 -4 -11 -21 -15 -63 -15 -51 0 -63 4 -91 30 -26 23 -32 35
-27 53 4 12 9 30 11 40 6 18 39 23 49 7 10 -16 29 -12 42 9 10 16 9 18 -9 14
-25 -7 -68 37 -68 70 0 15 15 39 40 63 43 42 49 64 24 89 -14 13 -19 14 -25 3
-5 -7 -9 -9 -9 -4 0 5 -9 1 -20 -9 -25 -22 -51 -13 -47 17 2 20 -3 23 -35 26
-22 2 -38 -1 -38 -7 0 -34 -111 29 -150 85 -14 20 -41 42 -60 50 l-35 14 30
-26 c17 -14 48 -61 70 -103 23 -44 49 -80 63 -86 38 -17 26 -65 -17 -72 -15
-2 -31 -22 -31 -39 0 -6 -7 -17 -15 -24 -12 -10 -16 -8 -24 11 -40 98 -54 123
-58 105 -4 -17 -13 -18 -91 -13 -85 4 -86 4 -113 -26 -29 -31 -54 -32 -66 -1
-4 12 4 26 25 45 36 32 39 39 18 39 -8 0 -24 -12 -36 -27 -12 -15 -35 -33 -51
-40 -32 -13 -39 -38 -11 -40 9 -1 42 -7 72 -12 48 -9 56 -8 72 9 10 11 17 23
16 27 -2 5 8 10 21 11 20 3 23 1 16 -15 -31 -75 -26 -143 9 -114 8 7 23 10 33
7 10 -3 35 3 56 14 46 25 52 25 76 -1 16 -18 18 -25 8 -40 -7 -11 -20 -19 -29
-19 -24 0 -69 -20 -95 -43 l-22 -20 -10 27 c-12 30 -23 33 -41 11 -7 -9 -22
-13 -36 -10 -13 3 -35 7 -48 10 -18 4 -25 0 -29 -16 -5 -18 -11 -20 -34 -15
-15 4 -33 14 -39 22 -6 8 -25 19 -43 25 -38 13 -41 41 -5 57 14 7 23 16 19 21
-3 5 -1 12 5 16 13 8 13 25 -1 25 -6 0 -24 -9 -39 -20 l-29 -20 -6 21 c-5 16
0 27 20 43 25 20 26 25 15 47 -7 13 -23 33 -35 45 -12 11 -24 26 -27 34 -2 7
-24 16 -49 19 -34 5 -45 10 -47 26 -4 27 -48 82 -58 72 -4 -4 -2 -13 4 -19 16
-16 15 -28 -2 -28 -18 0 -26 -24 -24 -71 1 -22 -8 -52 -20 -74 -25 -41 -27
-49 -11 -39 7 4 7 -1 -1 -16 -8 -15 -15 -19 -22 -12 -7 7 -6 16 0 29 6 10 13
67 16 127 6 114 9 126 32 126 8 0 14 9 14 20 0 13 10 24 25 30 14 5 25 16 25
25 0 24 -46 18 -65 -7 -11 -17 -18 -20 -23 -10 -7 10 -15 9 -40 -3 -71 -36
-128 -152 -118 -239 5 -42 3 -49 -14 -53 -12 -3 -20 -14 -20 -27 0 -44 -44
-62 -56 -23 -3 12 -13 30 -22 40 -8 9 -13 18 -11 20 2 1 19 9 38 18 32 14 33
16 16 33 -21 20 -74 15 -87 -8 -11 -19 -92 -29 -131 -17 -48 16 -132 17 -212
3 -62 -12 -71 -11 -81 3 -7 9 -10 25 -7 35 4 14 0 20 -10 20 -8 0 -29 25 -46
55 -21 37 -37 55 -51 55 -13 0 -18 -5 -14 -15 5 -12 -2 -14 -40 -9 -46 7 -57
-1 -34 -24 24 -24 -2 -23 -35 2 -19 14 -39 26 -45 26 -6 0 -17 8 -24 18 -17
22 -81 52 -112 52 -22 0 -25 -6 -31 -60 -10 -83 -22 -76 -14 8 9 93 16 110 50
117 42 10 46 25 5 25 -44 0 -56 18 -27 41 15 12 32 16 56 12 19 -3 41 -3 50 1
15 5 15 8 1 21 -19 20 -65 19 -88 -2 -10 -9 -21 -14 -24 -10 -3 3 -7 109 -8
236 -1 203 1 232 15 243 10 7 20 23 24 36 l6 22 -261 0 -262 0 6 -37 c3 -21
13 -99 21 -173 8 -74 22 -170 30 -213 23 -123 16 -407 -11 -407 -15 0 -45 -40
-38 -51 8 -13 34 2 35 20 0 11 2 12 6 3 6 -16 -45 -142 -58 -142 -5 0 -9 16
-9 35 0 35 -22 57 -38 40 -4 -4 -1 -10 5 -12 7 -3 13 -18 13 -33 0 -17 9 -38
21 -49 21 -19 21 -19 1 -30 -11 -6 -22 -8 -25 -4 -4 3 -12 1 -19 -4 -16 -12
-89 -33 -115 -33 -19 0 -21 8 -25 83 -5 96 -37 174 -98 242 -145 159 -275 218
-472 217 -122 -2 -211 -22 -301 -69 -100 -53 -167 -118 -195 -189 -21 -55 -55
-226 -70 -354 -8 -63 8 -57 -147 -47 -162 12 -187 19 -233 66 -33 34 -45 41
-56 32 -11 -9 -15 -8 -20 4 -5 13 -18 16 -58 14 -45 -3 -56 1 -80 24 -36 36
-68 141 -68 223 0 34 7 114 15 176 8 62 19 233 24 380 5 147 12 272 16 278 4
7 -86 10 -280 10 l-286 0 3 -850z m6948 580 c12 -8 12 -10 -5 -10 -11 0 -27 5
-35 10 -12 8 -12 10 5 10 11 0 27 -5 35 -10z m207 -126 c-7 -7 -37 7 -37 17 0
6 9 5 21 -1 11 -7 19 -14 16 -16z m-4221 -244 c10 -46 3 -90 -20 -119 -6 -8
-10 -23 -8 -33 4 -20 -20 -93 -67 -207 -17 -41 -31 -78 -31 -84 0 -9 -19 -52
-74 -166 -11 -25 -38 -72 -58 -106 -20 -34 -50 -91 -66 -126 -16 -36 -42 -80
-59 -99 -82 -96 -93 -161 -35 -207 18 -13 32 -32 32 -41 -1 -15 -2 -15 -11 1
-22 38 -181 113 -214 101 -29 -11 -24 18 8 49 18 17 48 59 66 92 18 33 37 65
41 70 20 25 69 136 89 205 13 41 29 92 37 113 8 20 14 44 14 52 0 20 71 174
151 329 15 28 33 69 40 91 7 22 22 54 34 70 12 17 25 40 29 52 5 14 19 26 39
31 38 10 46 1 63 -68z m3799 -81 c33 -6 101 -12 150 -15 346 -18 344 -17 311
-36 -17 -10 -439 -24 -586 -20 -64 2 -224 40 -174 41 17 1 39 10 50 20 16 16
34 20 104 20 47 1 112 -4 145 -10z m172 5 c-3 -3 -12 -4 -19 -1 -8 3 -5 6 6 6
11 1 17 -2 13 -5z m-1007 -54 c5 0 23 -14 40 -32 l32 -32 -7 33 c-6 29 -5 31
12 22 10 -5 26 -12 36 -15 10 -3 15 -10 12 -16 -3 -5 -3 -10 2 -10 4 0 25 -15
45 -34 34 -30 55 -42 112 -60 10 -4 16 -9 13 -13 -10 -10 -90 15 -141 43 -27
15 -61 28 -77 29 -33 3 -79 30 -79 46 0 6 -16 27 -35 46 -43 43 -46 54 -4 19
17 -14 34 -26 39 -26z m-4130 30 c0 -5 -4 -10 -10 -10 -5 0 -10 5 -10 10 0 6
5 10 10 10 6 0 10 -4 10 -10z m-39 -45 c38 -10 73 -29 82 -42 11 -18 19 -16
60 11 37 26 103 32 111 10 3 -7 24 -15 48 -19 24 -4 54 -12 67 -16 19 -8 21
-12 11 -24 -12 -14 -7 -19 14 -16 28 5 42 -61 22 -109 -21 -50 -145 -69 -285
-45 -178 31 -219 44 -243 79 -36 50 -66 76 -88 76 -11 0 -20 7 -20 15 0 8 7
15 15 15 8 0 15 6 15 13 0 15 37 52 58 58 19 6 106 2 133 -6z m109 -16 c0 -14
-16 -11 -29 5 -10 12 -8 13 8 9 12 -3 21 -9 21 -14z m4760 -77 c23 -23 41 -33
41 -25 1 7 2 18 3 25 3 26 24 17 30 -13 12 -60 6 -113 -17 -151 -12 -20 -37
-62 -55 -93 -51 -84 -93 -125 -131 -125 -21 0 -31 5 -31 15 0 8 -7 15 -15 15
-19 0 -19 29 -1 56 18 26 71 30 86 7 9 -15 10 -14 5 10 -3 17 -1 27 6 27 7 0
9 3 6 6 -4 4 15 18 41 32 62 32 69 40 78 87 7 38 6 39 -12 24 -37 -31 -45 -32
-39 -7 8 32 -24 72 -75 94 -22 10 -40 21 -40 24 0 7 48 27 67 29 7 1 30 -16
53 -37z m-5114 -4 c-23 -13 -40 0 -25 18 9 11 15 12 26 2 12 -10 12 -13 -1
-20z m2880 -25 c-7 -7 -26 7 -26 19 0 6 6 6 15 -2 9 -7 13 -15 11 -17z m-307
-81 c-5 -20 -9 -41 -9 -46 0 -5 -7 -3 -15 4 -8 6 -20 8 -26 4 -17 -10 -4 52
18 85 14 22 17 23 28 7 9 -12 10 -28 4 -54z m298 26 c-3 -7 -5 -2 -5 12 0 14
2 19 5 13 2 -7 2 -19 0 -25z m-647 13 c0 -14 -18 -23 -31 -15 -8 4 -7 9 2 15
18 11 29 11 29 0z m2695 -55 c4 -25 4 -49 1 -55 -7 -10 23 -31 44 -31 6 0 20
16 31 35 18 31 26 35 60 35 l40 0 -32 -40 c-18 -22 -39 -40 -47 -40 -7 0 -21
-9 -30 -20 l-17 -20 -32 20 c-20 12 -33 28 -33 40 0 11 -4 20 -9 20 -13 0 -24
55 -16 80 11 36 33 23 40 -24z m-3365 5 c-25 -15 -90 -24 -90 -13 0 14 18 20
65 21 28 0 35 -2 25 -8z m2095 -21 c10 -11 16 -20 14 -21 -2 0 -15 -2 -28 -3
-35 -4 -91 -69 -91 -105 0 -38 -20 -53 -67 -49 -36 3 -38 5 -38 38 0 19 8 46
18 60 11 14 25 39 32 57 12 29 18 32 62 36 26 2 55 4 64 5 9 1 24 -7 34 -18z
m1192 -28 c6 -15 11 -50 12 -78 2 -54 -11 -76 -45 -73 -38 4 -54 -1 -55 -18
-1 -10 -5 2 -9 27 -4 27 -3 50 2 58 8 9 5 12 -10 12 -18 0 -19 3 -9 30 6 17
15 30 19 30 4 0 8 8 8 18 0 15 8 19 39 20 34 2 40 -2 48 -26z m-3107 -21 c-8
-5 -51 -12 -95 -15 -44 -3 -106 -12 -138 -21 -71 -19 -77 -19 -77 -1 0 25 22
31 140 37 189 9 186 9 170 0z m137 3 c-3 -3 -12 -4 -19 -1 -8 3 -5 6 6 6 11 1
17 -2 13 -5z m1051 -51 c-15 -19 -26 -7 -20 22 4 24 5 24 17 8 9 -13 10 -22 3
-30z m-1948 1 c0 -5 -21 -46 -37 -73 -2 -2 -6 -2 -9 1 -3 3 1 16 8 28 10 18
10 24 1 27 -22 8 -14 23 12 23 14 0 25 -3 25 -6z m958 -29 c54 -13 2 -25 -116
-25 -117 -1 -235 -9 -369 -26 -45 -6 -53 -4 -53 10 0 10 11 19 30 23 17 3 32
8 34 12 5 8 444 14 474 6z m697 -15 c-3 -5 -14 -10 -23 -10 -15 0 -15 2 -2 10
20 13 33 13 25 0z m36 -33 c-17 -17 -24 -1 -10 25 12 21 14 21 17 4 2 -10 -1
-23 -7 -29z m703 6 c9 -22 -10 -41 -26 -25 -9 9 -9 12 0 12 6 0 9 7 6 15 -4 8
-2 15 4 15 5 0 13 -8 16 -17z m-4024 -42 c0 -6 -4 -13 -10 -16 -5 -3 -10 1
-10 9 0 9 5 16 10 16 6 0 10 -4 10 -9z m5370 -15 c0 -7 -9 -25 -20 -39 -11
-14 -20 -31 -20 -39 0 -14 -54 -78 -65 -78 -3 0 -15 9 -27 20 -12 11 -18 20
-14 20 5 0 3 7 -4 15 -14 16 -6 35 16 35 8 0 14 7 14 15 0 8 -6 14 -12 13 -7
-2 -13 6 -13 17 0 15 9 22 35 26 66 12 110 10 110 -5z m-5045 -16 c3 -6 -4
-10 -17 -10 -18 0 -20 2 -8 10 19 12 18 12 25 0z m1225 -20 c0 -13 -11 -13
-30 0 -12 8 -11 10 8 10 12 0 22 -4 22 -10z m4742 -17 c7 -25 -1 -43 -18 -43
-16 0 -17 5 -8 38 8 26 20 29 26 5z m-678 -29 c10 -26 -4 -65 -23 -61 -9 2
-14 10 -12 18 2 8 4 24 4 37 -1 25 22 30 31 6z m-4034 -4 c0 -5 -7 -10 -16
-10 -8 0 -12 5 -9 10 3 6 10 10 16 10 5 0 9 -4 9 -10z m4655 -20 c-3 -5 -11
-10 -16 -10 -6 0 -7 5 -4 10 3 6 11 10 16 10 6 0 7 -4 4 -10z m-1927 -21 c4
-19 -19 -31 -38 -19 -18 11 -4 42 17 38 10 -2 19 -10 21 -19z m-3048 1 c0 -13
-20 -13 -40 0 -12 8 -9 10 13 10 15 0 27 -4 27 -10z m-512 -28 c2 -7 -4 -15
-13 -18 -20 -8 -27 -1 -19 20 7 18 25 17 32 -2z m750 -4 c2 -9 -5 -18 -14 -22
-22 -8 -24 -5 -17 22 6 25 26 25 31 0z m3672 0 c0 -16 -3 -19 -11 -11 -6 6 -8
16 -5 22 11 17 16 13 16 -11z m420 -28 c0 -10 7 -23 15 -30 16 -13 19 -39 9
-89 -6 -26 -10 -30 -30 -25 -15 4 -24 2 -24 -5 0 -6 9 -11 20 -11 11 0 20 -7
20 -16 0 -11 -6 -14 -22 -9 -19 6 -21 5 -10 -6 14 -16 16 -33 2 -24 -5 3 -10
-1 -10 -9 0 -9 -4 -16 -10 -16 -5 0 -10 5 -10 10 0 6 -7 10 -15 10 -7 0 -18 6
-22 13 -4 6 -14 12 -20 13 -7 1 -21 2 -32 3 -31 2 -32 56 -3 114 26 49 63 77
103 77 17 0 19 3 10 13 -6 8 -8 17 -4 20 10 10 33 -13 33 -33z m-4619 14 c18
-22 49 -113 49 -146 0 -16 -6 -28 -12 -28 -7 0 -5 -5 5 -11 21 -12 52 13 43
36 -3 8 1 28 8 45 l12 31 40 -32 c21 -17 48 -35 59 -39 27 -10 134 12 145 30
7 11 10 3 10 -27 0 -34 -6 -49 -30 -73 -16 -17 -30 -35 -30 -40 0 -20 -61 -42
-101 -35 -38 7 -39 6 -45 -25 -7 -34 -24 -45 -86 -55 -21 -3 -38 -10 -38 -15
0 -5 -21 -7 -47 -5 -58 4 -123 15 -123 22 0 15 31 28 70 31 86 7 135 20 154
41 30 33 20 95 -11 70 -12 -10 -19 -10 -35 0 -23 14 -99 25 -170 23 -57 -1
-62 12 -13 33 35 14 65 61 65 100 0 9 7 31 14 50 16 38 44 46 67 19z m99 -29
c0 -8 -4 -15 -10 -15 -5 0 -10 7 -10 15 0 8 5 15 10 15 6 0 10 -7 10 -15z
m880 -6 c0 -5 -7 -9 -15 -9 -15 0 -20 12 -9 23 8 8 24 -1 24 -14z m-810 -4 c0
-8 -4 -15 -10 -15 -5 0 -10 7 -10 15 0 8 5 15 10 15 6 0 10 -7 10 -15z m110
-27 c-27 -25 -35 -19 -14 10 8 12 20 20 25 16 6 -4 2 -14 -11 -26z m-500 -8
c-11 -7 -11 -12 -2 -23 7 -8 9 -22 6 -32 -6 -15 -2 -17 29 -13 21 2 37 0 37
-4 0 -4 -6 -8 -13 -8 -34 0 -82 -66 -66 -91 11 -18 12 -52 0 -45 -5 3 -12 23
-16 43 -9 50 -14 56 -31 42 -16 -13 -84 -4 -84 11 0 6 -11 10 -23 10 -23 0
-23 3 -17 45 4 25 10 48 14 52 4 4 35 6 69 5 42 -2 68 2 82 12 11 8 22 12 25
10 2 -3 -2 -9 -10 -14z m1190 -45 c7 -9 10 -18 7 -21 -9 -9 -48 16 -42 27 9
13 21 11 35 -6z m-489 -98 c-6 -6 -11 -19 -11 -29 0 -22 -16 -24 -24 -2 -10
25 -7 34 9 34 9 0 19 8 22 17 5 12 8 13 11 4 2 -7 -1 -18 -7 -24z m4019 -12
c0 -17 -2 -18 -24 -9 -23 9 -20 24 4 24 11 0 20 -7 20 -15z m-575 -28 c16 -13
15 -14 -20 -20 -42 -7 -55 -3 -55 19 0 18 50 19 75 1z m630 2 c4 -6 5 -12 2
-15 -7 -7 -37 7 -37 17 0 13 27 11 35 -2z m-4111 -15 c23 -9 20 -44 -3 -44
-21 0 -31 17 -23 38 5 14 5 14 26 6z m3603 -20 c-3 -3 -12 -4 -19 -1 -8 3 -5
6 6 6 11 1 17 -2 13 -5z m371 -36 c4 -19 -27 -33 -41 -19 -7 7 -6 16 3 26 15
18 34 15 38 -7z m-5995 -40 c28 -14 33 -23 18 -32 -10 -7 -71 25 -71 37 0 11
23 9 53 -5z m2257 -29 c0 -4 -7 -6 -15 -3 -8 4 -15 10 -15 15 0 4 7 6 15 3 8
-4 15 -10 15 -15z m2517 -71 c-3 -8 -6 -5 -6 6 -1 11 2 17 5 13 3 -3 4 -12 1
-19z m-3232 -3 c71 -5 115 -15 115 -24 0 -15 -88 -23 -158 -15 -64 7 -152 36
-152 50 0 4 33 3 73 -1 39 -3 95 -8 122 -10z m325 -145 c0 -5 -4 -10 -10 -10
-5 0 -10 5 -10 10 0 6 5 10 10 10 6 0 10 -4 10 -10z m-1715 -77 c-25 -42 -36
-75 -40 -116 -4 -36 -2 -57 5 -57 18 0 10 -29 -12 -41 -51 -28 -61 71 -15 154
12 21 31 57 43 79 21 40 47 64 52 49 1 -5 -13 -35 -33 -68z m385 -13 c80 -5
197 -10 259 -10 69 0 111 -4 105 -9 -5 -5 -18 -11 -29 -13 -31 -5 -31 -63 -1
-120 l25 -47 -47 -15 c-26 -8 -99 -19 -163 -25 -64 -5 -135 -17 -158 -25 l-42
-14 -45 44 -44 45 37 15 c87 34 88 35 73 44 -8 5 -47 13 -85 18 -103 15 -167
41 -172 71 -2 13 4 33 14 43 15 16 26 19 73 13 30 -3 120 -10 200 -15z m-249
-323 c-8 -8 -11 -7 -11 4 0 20 13 34 18 19 3 -7 -1 -17 -7 -23z m5810 -150
c-10 -9 -11 -8 -5 6 3 10 9 15 12 12 3 -3 0 -11 -7 -18z m-6234 -544 c-3 -10
-5 -4 -5 12 0 17 2 24 5 18 2 -7 2 -21 0 -30z m2623 -29 c0 -14 -4 -23 -10
-19 -5 3 -10 15 -10 26 0 10 5 19 10 19 6 0 10 -12 10 -26z m-2326 -167 c11
-11 14 -33 7 -69 -2 -11 -59 -10 -65 1 -12 20 7 43 31 38 15 -3 22 0 20 7 -2
6 -14 12 -28 13 -13 2 -31 4 -39 5 -8 0 -24 0 -34 0 -18 -2 -18 -3 -2 -20 15
-18 15 -19 -9 -30 -32 -15 -36 -15 -33 0 2 7 -17 15 -47 20 -58 11 -83 27 -63
39 22 15 248 11 262 -4z m-344 -667 c0 -5 -5 -10 -11 -10 -5 0 -7 5 -4 10 3 6
8 10 11 10 2 0 4 -4 4 -10z"/>
<path d="M6577 4053 c-4 -3 11 -14 33 -24 31 -14 55 -16 115 -12 41 3 74 7 73
9 -3 3 -191 34 -206 34 -5 0 -12 -3 -15 -7z"/>
<path d="M6365 3300 c3 -5 8 -10 11 -10 2 0 4 5 4 10 0 6 -5 10 -11 10 -5 0
-7 -4 -4 -10z"/>
<path d="M6280 3232 c0 -12 19 -26 26 -19 2 2 -2 10 -11 17 -9 8 -15 8 -15 2z"/>
<path d="M6340 3210 c0 -5 5 -10 11 -10 5 0 7 5 4 10 -3 6 -8 10 -11 10 -2 0
-4 -4 -4 -10z"/>
<path d="M1730 3010 c-8 -5 -10 -10 -5 -10 6 0 17 5 25 10 8 5 11 10 5 10 -5
0 -17 -5 -25 -10z"/>
<path d="M200 1430 c0 -5 7 -7 15 -4 8 4 15 8 15 10 0 2 -7 4 -15 4 -8 0 -15
-4 -15 -10z"/>
<path d="M3227 4735 l-38 -45 25 -24 c33 -30 33 -41 -2 -57 l-29 -12 31 -32
c39 -40 100 -75 131 -75 18 0 22 -4 18 -20 -3 -13 0 -20 8 -20 9 0 10 -3 2
-11 -17 -17 -141 11 -223 52 -41 21 -77 36 -79 33 -14 -13 22 -41 75 -57 32
-10 67 -23 76 -28 76 -40 184 -51 213 -22 15 15 16 18 2 28 -24 17 -25 49 -2
53 11 2 30 13 42 24 14 13 28 18 42 13 22 -7 29 9 11 20 -17 10 8 34 29 28 26
-7 31 16 15 62 -17 51 -17 73 0 108 l15 27 -162 0 -162 -1 -38 -44z"/>
<path d="M5314 4763 c-56 -28 -69 -63 -67 -193 1 -83 6 -126 18 -154 l16 -39
-42 6 c-23 3 -52 0 -66 -6 -19 -8 -35 -7 -74 7 -27 10 -53 16 -56 12 -4 -3 1
-6 10 -6 10 0 17 -4 17 -8 0 -5 18 -28 40 -53 40 -44 53 -70 65 -122 4 -22 10
-27 24 -22 24 7 51 -4 51 -22 0 -8 -7 -27 -15 -42 -11 -22 -20 -28 -40 -26
-33 4 -55 22 -55 47 0 10 -7 35 -15 55 -13 30 -17 33 -30 23 -19 -16 -19 -54
0 -70 20 -17 65 -107 65 -130 0 -11 9 -19 24 -22 26 -5 46 7 46 27 0 6 11 22
25 35 14 13 25 32 25 42 0 18 18 25 75 30 28 3 30 6 33 53 2 27 1 64 -3 82 -5
28 -11 33 -48 40 -36 7 -42 13 -45 36 -4 34 5 34 39 1 33 -32 49 -25 49 22 0
57 33 106 161 242 33 34 65 75 71 90 7 15 20 39 31 55 l18 27 -158 -1 c-121 0
-165 -4 -189 -16z"/>
<path d="M3100 4715 c-16 -19 0 -19 26 0 16 12 16 14 3 15 -9 0 -22 -7 -29
-15z"/>
<path d="M3050 4661 c0 -16 43 -41 70 -40 22 0 21 2 -9 13 -19 7 -37 18 -39
24 -4 14 -22 16 -22 3z"/>
<path d="M3725 4600 c3 -5 13 -10 22 -10 12 0 13 -3 3 -15 -14 -16 -6 -35 16
-35 17 0 18 9 4 44 -6 17 -17 26 -30 26 -12 0 -18 -4 -15 -10z"/>
<path d="M3985 4560 c-6 -29 9 -80 25 -80 6 0 5 9 -2 25 -10 22 -8 29 12 50
13 14 22 26 19 26 -32 10 -49 4 -54 -21z"/>
<path d="M3885 4498 c-4 -29 -7 -60 -6 -68 1 -37 19 -110 30 -124 7 -8 10 -19
7 -24 -5 -9 7 -48 34 -107 5 -11 16 -49 25 -84 19 -77 22 -81 34 -50 6 17 5
31 -5 46 -8 12 -14 36 -14 54 0 29 2 31 27 24 15 -3 31 -12 35 -18 5 -8 8 -7
8 3 -1 19 -24 50 -37 50 -6 0 -16 -7 -23 -15 -22 -27 -36 -18 -32 22 3 27 0
40 -14 50 -10 7 -14 13 -10 13 5 0 3 7 -4 15 -9 11 -9 15 -1 15 9 0 9 5 1 20
-6 11 -9 64 -8 122 3 98 2 103 -18 106 -18 3 -22 -4 -29 -50z"/>
<path d="M3810 4521 c0 -6 5 -13 10 -16 6 -3 10 1 10 9 0 9 -4 16 -10 16 -5 0
-10 -4 -10 -9z"/>
<path d="M4060 4416 c0 -2 7 -9 15 -16 12 -10 15 -10 15 4 0 9 -7 16 -15 16
-8 0 -15 -2 -15 -4z"/>
<path d="M4420 4403 c0 -10 -3 -28 -6 -40 -4 -13 -2 -23 4 -23 13 0 36 56 27
69 -10 17 -25 13 -25 -6z"/>
<path d="M3255 4390 c28 -12 47 -12 40 0 -3 6 -18 10 -33 9 -24 0 -25 -1 -7
-9z"/>
<path d="M3846 4371 c-9 -14 2 -51 15 -51 11 0 12 30 0 49 -6 9 -11 10 -15 2z"/>
<path d="M3790 4333 c0 -6 -3 -18 -6 -27 -4 -11 -1 -16 10 -16 9 0 16 6 16 13
0 16 -20 46 -20 30z"/>
<path d="M4950 4321 c0 -11 12 -23 30 -31 54 -22 53 8 -1 35 -27 15 -29 14
-29 -4z"/>
<path d="M4017 4303 c-13 -12 -7 -23 13 -23 11 0 20 7 20 15 0 15 -21 21 -33
8z"/>
<path d="M3833 4284 c-3 -9 0 -26 7 -37 10 -17 10 -23 -6 -34 -26 -19 -31 -17
-37 17 -9 41 -27 38 -27 -4 0 -26 5 -35 21 -39 28 -7 22 -43 -7 -39 -18 2 -21
-6 -32 -78 -6 -44 -9 -87 -5 -96 9 -24 91 -56 124 -49 37 8 58 33 38 46 -8 5
-24 9 -36 9 -29 0 -29 6 3 34 25 21 26 23 9 40 -15 15 -16 21 -5 42 10 17 10
30 3 46 -7 16 -7 30 0 46 8 17 7 29 -1 43 -7 11 -10 24 -6 30 6 11 -13 39 -28
39 -5 0 -11 -7 -15 -16z m-17 -180 c-23 -16 -50 -19 -41 -3 8 12 48 29 55 22
3 -3 -4 -11 -14 -19z"/>
<path d="M4070 4258 c0 -4 5 -19 12 -35 6 -15 12 -31 12 -35 1 -4 7 -13 13
-19 20 -20 28 -1 10 19 -10 10 -17 23 -17 28 0 12 -29 53 -30 42z"/>
<path d="M4280 4213 c0 -10 7 -31 15 -47 19 -36 19 -52 0 -60 -42 -16 11 -105
54 -91 24 7 27 20 7 28 -17 7 -30 85 -16 102 11 13 4 45 -11 45 -5 0 -9 6 -9
14 0 8 -7 17 -16 20 -23 9 -24 8 -24 -11z"/>
<path d="M4357 4214 c3 -8 11 -14 19 -14 21 0 17 17 -5 23 -14 3 -18 1 -14 -9z"/>
<path d="M4180 4210 c0 -5 5 -10 10 -10 6 0 10 5 10 10 0 6 -4 10 -10 10 -5 0
-10 -4 -10 -10z"/>
<path d="M3080 4182 c0 -12 68 -34 81 -27 16 10 -21 34 -53 35 -16 0 -28 -4
-28 -8z"/>
<path d="M5060 4034 c0 -41 16 -38 22 6 3 20 0 30 -9 30 -8 0 -13 -13 -13 -36z"/>
<path d="M4467 4053 c-14 -14 -6 -42 14 -48 33 -11 42 8 16 33 -13 12 -27 19
-30 15z"/>
<path d="M5423 4017 c2 -7 14 -14 26 -15 28 -4 20 13 -9 21 -14 3 -20 1 -17
-6z"/>
<path d="M5230 3976 c0 -15 28 -42 35 -34 9 8 -5 36 -21 42 -8 3 -14 -1 -14
-8z"/>
<path d="M5540 3937 c0 -2 6 -17 14 -33 11 -20 12 -32 4 -47 -8 -16 -7 -23 6
-32 9 -7 16 -18 16 -25 0 -7 7 -10 15 -7 8 4 17 2 20 -2 8 -14 75 -23 88 -12
7 5 25 11 42 13 23 2 34 11 46 38 20 41 16 45 -56 54 -80 10 -148 28 -172 44
-13 8 -23 12 -23 9z"/>
<path d="M5420 3785 c-6 -8 -10 -19 -8 -26 2 -6 9 0 16 15 13 29 10 33 -8 11z"/>
<path d="M5595 3700 c3 -5 8 -10 11 -10 2 0 4 5 4 10 0 6 -5 10 -11 10 -5 0
-7 -4 -4 -10z"/>
<path d="M5453 3643 c9 -2 25 -2 35 0 9 3 1 5 -18 5 -19 0 -27 -2 -17 -5z"/>
<path d="M3470 3501 c0 -22 40 -51 71 -51 16 0 50 -5 74 -11 53 -14 82 -2 62
24 -8 11 -35 21 -72 27 -33 5 -77 12 -97 16 -26 4 -38 3 -38 -5z"/>
<path d="M5667 3443 c-12 -11 -8 -40 6 -40 6 0 19 -2 27 -4 8 -2 15 2 15 10 0
16 -39 44 -48 34z"/>
<path d="M3093 3428 c-153 -10 -163 -12 -163 -30 0 -20 5 -20 224 -16 124 2
228 7 232 11 16 16 -23 36 -76 41 -30 2 -128 -1 -217 -6z"/>
<path d="M3502 3398 c2 -17 10 -24 31 -26 41 -5 32 29 -11 43 -21 6 -23 4 -20
-17z"/>
<path d="M7280 3360 c0 -19 3 -21 12 -12 9 9 9 15 0 24 -9 9 -12 7 -12 -12z"/>
<path d="M3635 3360 c3 -5 11 -10 16 -10 6 0 7 5 4 10 -3 6 -11 10 -16 10 -6
0 -7 -4 -4 -10z"/>
<path d="M2985 3170 c-71 -3 -129 -8 -127 -12 1 -5 2 -12 2 -18 0 -11 408 -14
447 -4 11 3 23 14 26 25 5 18 -1 19 -106 17 -62 -1 -170 -5 -242 -8z"/>
<path d="M7115 3110 c-3 -5 -1 -10 4 -10 6 0 11 -9 11 -20 0 -11 7 -20 15 -20
10 0 15 10 15 30 0 23 -5 30 -19 30 -11 0 -23 -4 -26 -10z"/>
<path d="M3023 3093 c-99 -3 -114 -6 -123 -23 -9 -17 -6 -20 25 -26 20 -3 88
-4 153 0 64 3 139 6 165 6 30 0 46 4 42 10 -3 6 1 10 10 10 9 0 13 -4 10 -10
-3 -5 2 -10 12 -10 11 0 19 8 20 19 1 15 -8 19 -65 25 -37 3 -83 5 -102 4 -19
-1 -86 -4 -147 -5z"/>
<path d="M2740 3020 c0 -16 26 -40 44 -40 13 0 5 28 -12 43 -24 22 -32 21 -32
-3z"/>
<path d="M3790 3020 c0 -5 5 -10 11 -10 5 0 7 5 4 10 -3 6 -8 10 -11 10 -2 0
-4 -4 -4 -10z"/>
<path d="M3018 3010 c-91 -3 -170 -8 -174 -13 -4 -4 0 -7 9 -7 8 0 17 -5 19
-11 2 -6 36 -14 75 -16 76 -6 436 7 415 14 -6 3 -10 9 -6 14 3 5 -1 11 -8 13
-27 9 -169 11 -330 6z"/>
<path d="M7147 3013 c-12 -11 -8 -33 6 -33 7 0 13 9 14 20 2 20 -8 26 -20 13z"/>
<path d="M7220 2969 c0 -5 5 -7 10 -4 6 3 10 8 10 11 0 2 -4 4 -10 4 -5 0 -10
-5 -10 -11z"/>
<path d="M2740 2936 c0 -18 17 -29 30 -21 8 5 7 11 -1 21 -15 18 -29 18 -29 0z"/>
<path d="M7175 2920 c-16 -16 -25 -30 -21 -30 8 0 22 13 45 43 22 27 7 20 -24
-13z"/>
<path d="M3010 2929 c-74 -4 -149 -7 -167 -8 -23 -1 -31 -5 -27 -15 4 -9 32
-16 91 -21 105 -9 470 4 451 16 -10 7 -10 9 2 9 13 1 13 2 0 9 -22 12 -193 17
-350 10z"/>
<path d="M3605 2882 c-8 -22 1 -26 25 -9 20 14 20 15 1 20 -12 3 -22 -1 -26
-11z"/>
<path d="M7091 2813 c-22 -32 -50 -70 -62 -85 -23 -32 -18 -37 11 -10 31 29
108 152 95 152 -3 0 -22 -26 -44 -57z"/>
<path d="M3010 2853 c-114 -4 -140 -9 -140 -28 0 -22 42 -28 149 -21 53 3 155
6 228 6 114 0 132 2 127 15 -4 8 -16 17 -28 19 -32 7 -229 12 -336 9z"/>
<path d="M3458 2823 c-10 -2 -18 -9 -18 -14 0 -6 8 -5 20 1 11 6 20 13 20 15
0 3 -1 4 -2 4 -2 -1 -11 -3 -20 -6z"/>
<path d="M2752 2768 c2 -19 10 -23 39 -24 38 -2 79 -19 79 -33 0 -11 -66 -25
-100 -22 -21 2 -23 0 -12 -11 9 -9 61 -14 192 -18 98 -3 182 -8 186 -12 17
-18 -56 -30 -154 -25 -126 6 -119 -5 26 -43 35 -9 46 -18 58 -45 23 -56 104
-88 104 -42 0 22 15 62 41 109 7 14 3 21 -19 32 -27 15 -27 15 23 16 73 0 126
11 122 24 -5 14 -172 35 -244 30 -31 -2 -66 -1 -77 3 -38 12 49 22 210 22 116
1 154 4 163 15 9 11 8 15 -6 21 -29 11 -555 15 -575 4 -13 -7 -23 -6 -34 6
-21 21 -26 19 -22 -7z m223 -64 c-11 -8 -26 -12 -33 -9 -8 3 -25 5 -38 5 -13
0 -24 5 -24 10 0 6 26 10 58 10 53 -1 56 -2 37 -16z"/>
<path d="M5889 2734 c-41 -44 -58 -49 -81 -24 -16 17 -27 20 -47 15 -24 -6
-63 -12 -101 -15 -13 0 -13 -2 0 -9 21 -12 235 -34 259 -26 11 3 22 1 26 -5 9
-14 62 -3 90 18 14 10 15 13 3 9 -11 -4 -21 4 -32 26 -8 18 -16 27 -16 21 0
-6 -19 -24 -41 -39 -23 -15 -38 -22 -34 -16 11 19 16 59 7 65 -5 3 -20 -6 -33
-20z"/>
<path d="M3623 2655 c-28 -12 -71 -60 -62 -69 2 -2 32 5 66 15 60 19 61 20 50
44 -14 29 -12 28 -54 10z"/>
<path d="M3720 2650 c0 -5 4 -10 9 -10 6 0 13 5 16 10 3 6 -1 10 -9 10 -9 0
-16 -4 -16 -10z"/>
<path d="M3267 2613 c-15 -15 -6 -43 16 -47 83 -17 87 -17 97 10 6 14 10 30
10 35 0 10 -113 13 -123 2z"/>
<path d="M6980 2539 c0 -5 5 -7 10 -4 6 3 10 8 10 11 0 2 -4 4 -10 4 -5 0 -10
-5 -10 -11z"/>
<path d="M3195 2496 c-4 -26 -4 -51 1 -55 22 -19 116 -51 129 -44 11 6 -2 25
-55 77 l-68 69 -7 -47z"/>
<path d="M6838 2488 c-24 -31 -106 -113 -190 -190 -20 -18 -44 -46 -54 -63
-10 -16 50 38 134 120 83 83 152 153 152 158 0 16 -19 5 -42 -25z"/>
<path d="M6929 2487 c-9 -12 -20 -33 -24 -47 -8 -25 -8 -25 14 -6 11 11 21 25
21 32 0 7 7 20 16 28 11 12 12 16 2 16 -7 0 -20 -11 -29 -23z"/>
<path d="M3733 2443 c9 -2 25 -2 35 0 9 3 1 5 -18 5 -19 0 -27 -2 -17 -5z"/>
<path d="M3646 2431 c-3 -4 6 -6 19 -3 14 2 25 6 25 8 0 8 -39 4 -44 -5z"/>
<path d="M3885 2420 c17 -11 45 -19 65 -19 19 1 27 3 18 6 -10 2 -18 8 -18 12
0 5 -11 6 -24 4 -13 -3 -27 0 -30 6 -4 6 -15 11 -24 11 -12 0 -7 -6 13 -20z"/>
<path d="M3605 2420 c4 -6 11 -8 16 -5 14 9 11 15 -7 15 -8 0 -12 -5 -9 -10z"/>
<path d="M3532 2413 c-51 -5 -52 -24 -1 -35 26 -5 37 -3 47 9 13 19 16 34 5
31 -5 -1 -27 -3 -51 -5z"/>
<path d="M4471 2368 c-24 -27 -42 -50 -40 -52 7 -5 377 -93 509 -121 69 -14
161 -34 205 -45 239 -57 367 -73 590 -74 171 -1 374 12 348 21 -7 3 -13 14
-13 25 0 15 5 18 23 13 21 -6 21 -6 3 9 -11 9 -28 16 -37 16 -24 0 -34 19 -15
26 11 4 14 14 10 28 -3 14 1 27 10 35 11 9 16 10 16 2 0 -8 6 -8 18 -2 9 5 32
16 50 23 17 7 32 20 32 28 0 8 10 20 22 25 12 6 23 15 25 21 5 15 -48 25 -63
13 -6 -5 -31 -10 -55 -10 -32 -1 -51 -9 -71 -26 -17 -17 -31 -22 -40 -17 -26
17 -70 13 -75 -7 -3 -10 -13 -19 -23 -19 -23 0 -60 46 -60 74 0 30 -11 66 -20
66 -4 0 -13 -15 -20 -32 -23 -62 -31 -74 -64 -92 -18 -9 -48 -19 -67 -22 -19
-3 -54 -12 -79 -21 -48 -17 -160 -33 -225 -33 -58 0 -184 20 -225 35 -47 18
-111 26 -253 31 -120 4 -171 17 -199 51 -10 13 -5 14 43 8 29 -4 57 -9 62 -12
4 -2 7 0 7 6 0 5 -21 13 -47 16 -27 3 -59 9 -73 13 -14 3 -29 7 -35 7 -5 1
-28 6 -50 10 -22 5 -46 9 -53 9 -7 1 -16 6 -20 11 -4 6 -25 -10 -51 -37z
m1579 -83 c0 -8 -4 -15 -10 -15 -5 0 -10 7 -10 15 0 8 5 15 10 15 6 0 10 -7
10 -15z"/>
<path d="M4020 2390 c-39 -7 -46 -2 54 -44 21 -9 50 -16 65 -16 23 0 105 -18
166 -37 17 -5 18 -4 6 11 -7 9 -22 16 -32 16 -9 0 -25 7 -34 16 -13 13 -13 19
-3 32 10 12 10 14 1 8 -7 -4 -13 -3 -13 3 0 5 -10 13 -22 17 -17 5 -27 0 -45
-22 -22 -28 -23 -28 -23 -6 0 18 -6 22 -29 22 -16 0 -35 2 -43 4 -7 2 -29 0
-48 -4z"/>
<path d="M6875 2390 c3 -5 8 -10 11 -10 2 0 4 5 4 10 0 6 -5 10 -11 10 -5 0
-7 -4 -4 -10z"/>
<path d="M3378 2383 c-52 -6 -48 -23 5 -23 53 0 88 10 81 21 -5 9 -15 9 -86 2z"/>
<path d="M7046 2365 c-63 -32 -149 -106 -187 -161 -16 -24 -27 -44 -23 -44 4
0 42 33 85 74 43 41 103 91 133 112 31 20 56 38 56 40 0 8 -17 3 -64 -21z"/>
<path d="M6850 2339 c0 -5 5 -7 10 -4 6 3 10 8 10 11 0 2 -4 4 -10 4 -5 0 -10
-5 -10 -11z"/>
<path d="M6808 2280 c-22 -38 -10 -38 20 1 16 19 19 29 10 29 -7 0 -21 -14
-30 -30z"/>
<path d="M6450 2158 c-24 -42 -45 -65 -67 -74 -17 -8 -35 -18 -38 -24 -4 -6
-16 -8 -28 -5 -16 5 -18 4 -8 -3 10 -8 5 -14 -23 -27 -20 -10 -36 -19 -36 -20
0 -2 19 -1 43 3 37 5 41 4 29 -10 -8 -10 -9 -19 -3 -22 5 -4 12 -2 16 4 3 5
13 10 22 10 13 0 15 -9 11 -44 -6 -54 6 -82 20 -46 5 14 19 51 31 83 11 31 32
79 45 105 24 48 42 132 29 132 -5 0 -24 -28 -43 -62z"/>
<path d="M6915 2163 c-72 -37 -124 -81 -131 -111 -4 -15 -10 -31 -13 -37 -4
-5 -13 -28 -20 -50 -15 -44 -29 -65 -42 -65 -15 0 -10 20 11 47 26 34 14 50
-16 22 -23 -22 -28 -37 -39 -133 -3 -27 -11 -58 -16 -69 -9 -15 -8 -18 3 -15
7 3 14 15 16 27 2 13 17 30 33 39 16 10 33 28 38 42 5 14 29 46 53 71 24 25
42 51 40 57 -5 16 63 119 106 157 20 19 34 36 32 39 -3 2 -27 -7 -55 -21z"/>
<path d="M4279 2114 c-24 -10 -39 -25 -47 -47 -7 -18 -26 -41 -44 -52 -18 -10
-49 -35 -69 -54 -56 -55 -85 -73 -172 -108 -73 -29 -117 -57 -106 -67 2 -2 41
-22 87 -45 l83 -42 -3 27 c-3 23 3 28 45 45 26 10 73 22 104 26 62 7 93 29 93
66 0 13 8 32 18 43 69 75 112 137 112 164 0 27 -5 32 -27 29 -3 0 -10 6 -15
15 -11 19 -13 19 -59 0z"/>
<path d="M5533 1943 c-26 -10 -12 -18 26 -15 21 2 42 -1 45 -7 4 -6 20 -11 36
-11 16 0 31 -4 34 -9 3 -5 0 -9 -7 -8 -30 1 -47 -4 -47 -13 0 -5 12 -10 26
-10 14 0 38 -6 52 -14 36 -18 87 -33 144 -41 48 -6 67 -18 48 -30 -6 -4 -8
-11 -4 -16 4 -6 11 -6 20 2 10 8 14 8 14 0 0 -6 6 -11 14 -11 7 0 27 -7 42
-15 16 -8 46 -15 67 -15 24 0 36 -4 32 -11 -4 -6 -37 -9 -86 -7 -43 2 -79 1
-79 -3 0 -3 25 -11 55 -18 45 -10 55 -16 55 -33 0 -13 -5 -18 -14 -15 -8 3
-24 -5 -37 -19 l-22 -24 26 0 c15 0 27 5 27 10 0 6 12 10 28 9 25 0 26 -1 5
-9 -12 -5 -26 -16 -31 -26 -8 -14 -20 -16 -66 -12 -31 3 -53 1 -49 -3 4 -4 49
-21 98 -38 l90 -31 -65 -1 c-97 -2 -173 1 -293 12 -191 17 -287 20 -287 8 0
-13 -63 -1 -68 12 -6 15 -22 10 -22 -7 0 -15 -11 -15 -140 -1 -126 15 -242 64
-287 124 -14 18 -32 33 -39 33 -21 0 -18 -6 29 -50 35 -33 39 -42 27 -50 -8
-5 -25 -10 -37 -10 -12 0 -25 -5 -28 -10 -4 -7 -24 -8 -51 -4 -31 4 -44 3 -44
-6 0 -7 8 -9 19 -5 11 3 22 1 26 -5 3 -5 1 -10 -5 -10 -6 0 -10 -8 -8 -17 3
-15 -4 -17 -37 -14 -22 2 -48 7 -57 12 -9 5 -28 9 -42 9 -14 0 -26 5 -26 11 0
7 -9 9 -24 5 -13 -3 -35 -2 -48 4 -20 8 -20 10 -3 9 36 -2 45 1 45 15 0 11
-12 15 -40 14 -36 0 -45 -7 -41 -30 2 -17 -48 -7 -75 15 -23 18 -46 23 -119
28 -49 4 -103 10 -120 13 l-30 7 28 -23 c16 -13 62 -56 104 -96 72 -69 157
-128 264 -182 28 -14 53 -30 57 -36 4 -6 47 -32 95 -57 48 -26 98 -53 110 -62
12 -8 31 -15 44 -15 12 0 32 -13 45 -29 13 -16 70 -61 128 -99 58 -38 139 -94
180 -125 177 -132 541 -324 656 -346 67 -13 368 -35 385 -29 8 3 20 30 27 59
7 30 29 97 49 149 20 52 36 109 36 125 0 32 -40 180 -100 364 -41 129 -55 256
-36 332 6 25 13 63 15 85 3 37 2 38 -42 54 -36 12 -45 20 -45 39 0 25 -29 51
-57 51 -10 0 -18 7 -18 15 0 8 -7 15 -15 15 -8 0 -15 5 -15 10 0 6 -3 9 -7 9
-5 -1 -30 -1 -57 0 -49 1 -55 14 -11 23 11 2 -13 8 -52 12 -40 4 -73 12 -73
17 0 6 9 7 21 4 18 -6 19 -5 7 14 -19 31 -51 39 -197 51 -145 11 -159 11 -178
3z m427 -138 c0 -8 -4 -15 -9 -15 -5 0 -11 7 -15 15 -3 9 0 15 9 15 8 0 15 -7
15 -15z m56 -30 c19 -14 19 -14 -2 -15 -12 0 -27 7 -34 15 -17 20 9 21 36 0z
m-1629 -231 c-3 -3 -12 -4 -19 -1 -8 3 -5 6 6 6 11 1 17 -2 13 -5z m533 -40
c0 -2 -7 -4 -15 -4 -8 0 -15 4 -15 10 0 5 7 7 15 4 8 -4 15 -8 15 -10z m1303
-11 c-7 -2 -21 -2 -30 0 -10 3 -4 5 12 5 17 0 24 -2 18 -5z m-1355 -231 c2 -7
-3 -12 -12 -12 -9 0 -16 7 -16 16 0 17 22 14 28 -4z"/>
<path d="M4694 1844 c-8 -30 5 -75 22 -81 7 -2 10 14 9 49 -2 57 -20 76 -31
32z"/>
<path d="M6828 1738 c-32 -11 -38 -32 -8 -24 11 3 29 9 40 12 22 6 28 24 8 23
-7 0 -25 -5 -40 -11z"/>
<path d="M6623 1705 c1 -20 6 -34 11 -32 6 2 11 9 10 15 -1 7 -2 21 -2 32 -3
35 -20 21 -19 -15z"/>
<path d="M6765 1680 c-3 -5 1 -10 9 -10 9 0 16 5 16 10 0 6 -4 10 -9 10 -6 0
-13 -4 -16 -10z"/>
<path d="M3170 1528 c-11 -18 -34 -78 -51 -133 -87 -287 -101 -325 -115 -333
-13 -7 -14 -12 -4 -28 10 -16 9 -33 -5 -84 -9 -36 -18 -81 -20 -100 -2 -19 -9
-55 -15 -80 -6 -25 -15 -61 -19 -80 -4 -19 -13 -46 -21 -59 -9 -18 -11 -67 -8
-201 5 -177 12 -219 30 -186 17 31 68 13 68 -25 0 -10 -12 -22 -27 -27 -16 -6
-21 -11 -12 -11 9 -1 27 8 41 19 24 18 25 25 32 171 6 121 11 160 26 188 39
73 42 72 36 -24 -4 -72 -1 -106 15 -170 12 -44 25 -100 30 -125 9 -52 36 -140
46 -156 5 -6 19 -17 32 -24 20 -10 26 -9 45 10 l21 22 -22 -11 c-29 -15 -63 1
-63 29 0 26 36 35 65 16 l25 -16 0 42 c0 24 -5 59 -10 78 -23 85 -39 333 -24
383 11 35 24 16 24 -35 0 -29 9 -89 21 -133 11 -44 25 -98 31 -120 10 -39 5
-196 -8 -283 l-7 -42 170 0 170 0 7 92 c5 77 10 96 27 110 20 17 22 17 43 -3
47 -45 126 -53 126 -12 0 12 7 14 38 9 20 -4 44 -9 53 -12 10 -3 20 5 28 22 6
15 10 28 8 30 -2 2 -30 -1 -62 -6 -32 -5 -69 -7 -81 -4 -12 3 -31 1 -42 -5
-14 -8 -24 -7 -38 4 -11 8 -31 15 -46 15 -15 0 -29 4 -32 9 -3 5 -1 44 4 87
25 190 51 400 52 414 0 8 9 80 18 160 10 80 22 174 25 211 l7 65 -79 61 c-120
93 -121 93 -285 93 -123 0 -147 3 -174 19 -43 26 -48 55 -17 91 24 29 27 30
116 31 129 1 152 13 57 29 -41 7 -108 21 -148 31 -40 10 -74 19 -77 19 -3 0
-14 -15 -25 -32z m449 -1117 c19 -12 6 -41 -18 -41 -26 0 -36 17 -21 35 14 17
20 18 39 6z m-160 -212 c20 -16 23 -24 14 -37 -13 -21 -82 -29 -84 -10 -3 36
13 68 35 68 6 -1 22 -10 35 -21z"/>
<path d="M4725 1520 c-3 -5 1 -10 9 -10 9 0 16 5 16 10 0 6 -4 10 -9 10 -6 0
-13 -4 -16 -10z"/>
<path d="M6695 1409 c44 -17 96 -34 115 -39 85 -21 106 -27 125 -37 11 -6 36
-18 55 -27 19 -9 54 -27 76 -40 23 -13 60 -26 83 -30 31 -5 50 -16 73 -41 33
-39 43 -42 64 -21 10 10 14 39 14 100 l0 86 -37 1 c-127 1 -414 35 -519 60
-119 28 -141 23 -49 -12z"/>
<path d="M4080 1002 c0 -5 37 -46 83 -93 l82 -84 0 -61 c0 -35 6 -68 13 -77 7
-8 35 -18 63 -22 45 -6 49 -9 49 -33 0 -25 -17 -173 -55 -482 -8 -69 -15 -131
-15 -137 0 -10 57 -13 250 -13 193 0 250 3 250 13 1 16 16 169 30 282 20 181
21 183 62 143 42 -41 289 -253 299 -256 14 -6 11 -24 -8 -38 -13 -9 -15 -16
-7 -24 11 -12 44 -4 44 11 0 17 18 9 53 -23 43 -41 64 -58 72 -58 4 0 21 -11
39 -25 32 -24 38 -25 185 -25 101 0 150 3 146 10 -4 6 -34 24 -68 42 -34 17
-89 48 -121 70 -32 21 -71 45 -86 53 -16 8 -34 20 -42 27 -18 18 -126 98 -131
98 -3 0 -22 16 -43 36 -49 45 -150 124 -159 124 -4 0 -20 11 -37 25 -40 34
-56 32 -50 -5 2 -17 8 -30 13 -30 5 0 9 -4 9 -10 0 -13 -37 -13 -45 0 -3 5
-21 17 -39 25 -18 9 -53 33 -76 53 -52 44 -178 171 -202 202 l-16 22 -16 -30
c-22 -42 -20 -62 4 -62 24 0 26 -13 4 -34 -22 -22 -41 -20 -55 7 -7 12 -25 36
-40 52 -57 61 -69 79 -69 100 0 22 -28 55 -47 55 -6 0 -33 15 -59 33 -61 40
-124 77 -200 116 -65 35 -64 34 -64 23z m964 -608 c9 -24 4 -25 -23 -3 -22 18
-22 19 -3 19 11 0 23 -7 26 -16z m136 -126 c0 -6 -7 -5 -15 2 -8 7 -15 17 -15
22 0 6 7 5 15 -2 8 -7 15 -17 15 -22z"/>
<path d="M2825 889 c-4 -6 -5 -13 -2 -16 7 -7 27 6 27 18 0 12 -17 12 -25 -2z"/>
<path d="M2880 830 c0 -5 5 -10 11 -10 5 0 7 5 4 10 -3 6 -8 10 -11 10 -2 0
-4 -4 -4 -10z"/>
<path d="M2820 810 c-17 -10 -13 -17 15 -22 12 -2 20 3 20 11 0 18 -16 23 -35
11z"/>
<path d="M7255 755 c-19 -43 -28 -53 -42 -49 -12 4 -14 3 -6 -3 9 -6 9 -17 0
-46 -7 -20 -15 -37 -19 -37 -5 0 -8 -7 -8 -15 0 -9 -7 -18 -16 -22 -8 -3 -20
-16 -25 -29 -5 -14 -17 -24 -29 -24 -11 0 -27 -11 -36 -25 -15 -23 -80 -51
-111 -48 -7 0 -13 -6 -13 -14 0 -26 -30 -72 -58 -89 -24 -14 -31 -28 -42 -81
-9 -42 -21 -69 -34 -78 -16 -12 -17 -17 -6 -30 11 -13 11 -20 0 -39 -6 -13 -9
-33 -5 -45 5 -16 2 -21 -13 -21 -10 0 -27 -9 -37 -20 -10 -11 -26 -20 -34 -19
-29 2 -41 -1 -41 -11 0 -6 110 -10 310 -10 l310 0 0 405 c0 277 -3 405 -11
405 -5 0 -21 -25 -34 -55z"/>
<path d="M4636 764 c-5 -14 -4 -15 9 -4 17 14 19 20 6 20 -5 0 -12 -7 -15 -16z"/>
<path d="M2846 755 c-6 -18 29 -41 39 -25 7 11 -12 40 -25 40 -4 0 -10 -7 -14
-15z"/>
<path d="M2790 645 c0 -8 5 -15 10 -15 6 0 10 7 10 15 0 8 -4 15 -10 15 -5 0
-10 -7 -10 -15z"/>
<path d="M2800 455 c0 -9 6 -12 15 -9 8 4 12 10 9 15 -8 14 -24 10 -24 -6z"/>
<path d="M6210 450 c0 -5 5 -10 10 -10 6 0 10 5 10 10 0 6 -4 10 -10 10 -5 0
-10 -4 -10 -10z"/>
<path d="M6840 430 c0 -5 5 -10 10 -10 6 0 10 5 10 10 0 6 -4 10 -10 10 -5 0
-10 -4 -10 -10z"/>
<path d="M6270 356 c0 -29 54 -173 58 -153 2 9 -6 48 -18 85 -24 70 -40 99
-40 68z"/>
<path d="M4120 185 c7 -9 15 -13 17 -11 7 7 -7 26 -19 26 -6 0 -6 -6 2 -15z"/>
<path d="M4950 165 c0 -8 5 -15 10 -15 6 0 10 7 10 15 0 8 -4 15 -10 15 -5 0
-10 -7 -10 -15z"/>
<path d="M3860 139 c0 -5 5 -7 10 -4 6 3 10 8 10 11 0 2 -4 4 -10 4 -5 0 -10
-5 -10 -11z"/>
<path d="M5050 134 c0 -14 3 -14 15 -4 8 7 15 14 15 16 0 2 -7 4 -15 4 -8 0
-15 -7 -15 -16z"/>
<path d="M4070 129 c0 -5 5 -7 10 -4 6 3 10 8 10 11 0 2 -4 4 -10 4 -5 0 -10
-5 -10 -11z"/>
<path d="M2808 113 c7 -3 16 -2 19 1 4 3 -2 6 -13 5 -11 0 -14 -3 -6 -6z"/>
<path d="M5030 100 c-13 -8 -12 -10 3 -10 9 0 17 5 17 10 0 12 -1 12 -20 0z"/>
<path d="M5216 95 c-3 -9 0 -15 9 -15 8 0 15 7 15 15 0 8 -4 15 -9 15 -5 0
-11 -7 -15 -15z"/>
<path d="M4900 90 c0 -5 9 -14 20 -20 22 -12 27 -1 8 18 -14 14 -28 16 -28 2z"/>
<path d="M5170 80 c0 -5 5 -10 10 -10 6 0 10 5 10 10 0 6 -4 10 -10 10 -5 0
-10 -4 -10 -10z"/>
<path d="M4829 68 c-5 -17 -4 -48 3 -48 4 0 8 11 8 25 0 20 -7 34 -11 23z"/>
<path d="M5267 63 c-13 -13 -7 -32 13 -38 31 -10 44 4 24 26 -18 20 -27 23
-37 12z"/>
<path d="M4850 50 c0 -6 6 -13 14 -16 9 -3 12 -12 8 -22 -5 -15 -4 -15 12 -3
12 10 14 16 5 21 -6 4 -8 13 -5 19 5 7 -1 11 -13 11 -12 0 -21 -5 -21 -10z"/>
<path d="M5140 36 c0 -9 5 -16 10 -16 6 0 10 4 10 9 0 6 -4 13 -10 16 -5 3
-10 -1 -10 -9z"/>
<path d="M4942 18 c3 -7 15 -15 28 -16 21 -3 22 -2 11 12 -16 19 -44 21 -39 4z"/>
</g>
</svg>
