<?xml version="1.0" standalone="no"?>
<!DOCTYPE svg PUBLIC "-//W3C//DTD SVG 20010904//EN"
 "http://www.w3.org/TR/2001/REC-SVG-20010904/DTD/svg10.dtd">
<svg version="1.0" xmlns="http://www.w3.org/2000/svg"
 width="730.000000pt" height="478.000000pt" viewBox="0 0 730.000000 478.000000"
 preserveAspectRatio="xMidYMid meet">

<g transform="translate(0.000000,478.000000) scale(0.100000,-0.100000)"
fill="#000000" stroke="none">
<path d="M0 3610 l0 -1170 25 6 c20 5 26 1 34 -19 14 -35 71 -128 97 -157 12
-14 26 -37 29 -53 6 -24 3 -29 -29 -42 -51 -22 -79 -20 -71 4 3 11 1 22 -5 26
-5 3 -7 17 -4 31 5 19 2 24 -14 24 -11 0 -22 7 -26 15 -3 8 -12 15 -21 15 -22
0 -23 -351 0 -374 19 -19 19 -30 0 -22 -31 12 -14 -30 35 -83 34 -37 54 -52
65 -47 23 9 59 -35 103 -123 20 -42 47 -91 59 -110 13 -19 23 -42 23 -52 0
-11 9 -28 19 -38 12 -12 15 -21 8 -24 -7 -2 -5 -21 8 -63 20 -62 20 -96 2
-129 -15 -27 -27 -256 -14 -272 16 -22 24 -15 41 38 10 28 27 68 40 88 12 20
25 44 29 54 4 9 18 22 32 27 25 10 33 34 15 45 -5 3 -10 16 -10 28 0 12 -6 34
-14 49 -9 18 -11 29 -4 36 15 15 1 79 -21 94 -11 8 -21 33 -25 68 -14 100 -17
94 43 102 30 5 58 5 63 0 10 -10 28 -169 35 -319 6 -121 5 -122 -25 -180 -69
-134 -71 -164 -6 -99 25 25 33 29 31 15 -1 -10 3 -19 8 -20 25 -6 34 -34 48
-150 l14 -124 1 85 c1 47 -5 133 -12 193 -6 59 -9 107 -6 107 10 0 47 -79 61
-130 7 -25 13 -105 14 -183 1 -131 2 -138 24 -153 12 -9 24 -14 26 -12 4 4 25
321 25 385 0 27 4 32 30 38 41 9 87 49 111 98 20 38 49 220 37 232 -3 3 -24 3
-47 -1 l-41 -7 0 -70 c0 -110 -32 -187 -79 -187 -28 0 -32 77 -9 165 10 39 18
71 18 73 0 1 -18 2 -39 2 -36 0 -40 3 -46 32 -23 108 -84 275 -145 399 -45 91
-68 150 -64 162 5 17 3 17 -36 -3 -40 -21 -42 -21 -56 -3 -7 10 -14 21 -14 25
0 4 -8 14 -17 24 -16 15 -16 17 0 29 9 7 17 22 17 34 0 11 6 21 14 21 9 0 12
7 9 20 -4 14 0 20 11 20 9 0 16 -4 16 -9 0 -5 11 -11 25 -14 24 -4 24 -3 10
13 -22 24 -7 32 27 14 49 -25 209 -62 299 -69 79 -7 89 -5 162 24 43 17 84 31
92 31 21 0 27 -17 15 -40 -9 -17 -7 -30 11 -66 33 -70 24 -176 -24 -278 -43
-91 -46 -106 -51 -261 -3 -71 -11 -141 -21 -170 -8 -27 -13 -62 -10 -76 3 -14
-1 -46 -8 -70 -8 -24 -20 -73 -27 -109 -6 -36 -27 -112 -47 -170 -22 -66 -31
-106 -24 -108 6 -2 12 -2 14 0 2 2 12 -5 22 -15 14 -15 20 -16 26 -6 4 8 11
10 15 7 10 -10 34 18 34 39 0 14 -2 15 -9 4 -5 -8 -11 -9 -15 -3 -4 6 1 15 10
20 17 10 25 50 25 125 0 20 4 37 9 37 5 0 9 10 8 23 -2 39 38 266 41 232 3
-28 -32 -319 -54 -455 -14 -85 -32 -202 -40 -260 -8 -58 -17 -117 -19 -132 -4
-18 2 -34 20 -53 14 -15 27 -25 29 -23 2 2 16 148 30 323 27 344 63 716 70
723 2 2 7 -24 11 -58 l7 -62 35 5 c19 4 36 8 38 9 4 5 -13 189 -21 220 -6 23
-3 27 24 33 28 6 31 10 31 43 0 58 -10 66 -54 48 l-36 -15 5 37 c7 49 25 260
25 292 0 18 3 21 9 11 5 -7 7 -30 5 -50 -9 -89 -7 -242 4 -253 7 -7 12 -8 13
-2 0 5 3 50 6 99 4 50 7 104 7 122 l1 32 30 -19 c17 -11 29 -27 29 -35 -1 -9
-5 -81 -9 -160 -7 -128 -6 -145 9 -151 23 -9 20 -41 -4 -47 -16 -4 -20 -14
-20 -47 0 -35 3 -40 18 -36 15 5 17 -5 20 -111 1 -65 10 -151 20 -193 9 -41
17 -101 16 -133 0 -51 1 -55 12 -36 l12 22 7 -23 c4 -13 29 -54 56 -92 44 -60
47 -68 28 -68 -19 0 -21 -4 -14 -37 4 -21 12 -41 18 -46 11 -7 19 -6 66 9 16
5 18 -1 20 -73 1 -43 -3 -84 -7 -91 -5 -8 -4 -30 1 -52 l11 -39 37 30 c20 16
40 29 44 29 4 0 18 9 32 20 31 24 59 26 79 5 18 -18 28 -75 13 -75 -6 0 -5 -8
1 -21 9 -17 8 -23 -7 -34 -15 -11 -19 -11 -21 0 -2 9 -13 4 -34 -16 -26 -23
-29 -30 -19 -43 7 -8 10 -20 6 -26 -4 -6 4 -10 19 -10 22 0 26 4 27 33 0 26 2
28 8 12 5 -11 7 -23 4 -27 -2 -4 6 -12 17 -18 12 -6 19 -17 17 -23 -2 -7 0
-20 4 -29 7 -12 4 -20 -8 -27 -14 -8 -15 -10 -3 -11 13 0 13 -1 0 -11 -11 -8
-12 -12 -2 -16 14 -6 16 -43 2 -43 -5 0 -10 -16 -10 -36 0 -21 4 -33 10 -29 5
3 17 2 27 -3 9 -6 24 -6 32 -2 9 5 23 11 32 13 17 6 32 54 19 62 -10 6 -20 58
-25 133 -2 35 -10 71 -17 79 -14 18 -18 30 -27 103 -3 30 -9 60 -13 65 -13 21
6 32 40 23 24 -6 32 -14 32 -31 0 -12 4 -28 9 -36 7 -11 11 -9 20 8 8 14 8 21
1 21 -5 0 -10 4 -10 9 0 5 23 6 53 3 28 -4 126 -6 217 -6 133 1 192 7 305 28
306 59 564 131 798 224 81 32 147 57 147 55 0 -2 -17 -27 -38 -56 -71 -97 -91
-139 -125 -254 l-16 -53 36 18 c32 17 38 27 65 111 16 51 32 91 35 88 2 -3 -3
-40 -12 -82 -10 -42 -16 -78 -14 -79 6 -5 286 145 407 217 147 88 164 104 197
186 20 50 32 68 39 61 7 -7 7 -19 -1 -39 -27 -73 14 -55 182 80 39 31 115 85
170 121 104 68 138 94 221 167 l49 43 -45 -5 -45 -6 50 13 c44 11 163 89 286
187 38 31 83 37 214 29 66 -4 131 -3 144 2 59 21 121 -25 121 -89 0 -48 -29
-95 -55 -89 -11 2 -29 1 -40 -3 -29 -11 75 -35 115 -26 35 8 34 5 15 41 -17
32 -20 90 -6 99 5 3 11 0 14 -7 2 -7 2 -1 0 14 -5 33 29 60 66 51 35 -8 49
-20 53 -46 2 -13 9 -21 18 -19 33 8 53 -66 29 -110 -13 -25 -11 -27 32 -30 45
-3 125 -43 145 -73 9 -14 22 -44 28 -67 12 -41 17 -44 74 -64 34 -12 78 -31
98 -43 l36 -22 -6 25 c-3 13 -9 32 -13 42 -3 9 19 -4 51 -30 57 -46 196 -123
196 -109 0 5 -22 19 -49 32 -48 23 -48 23 -41 63 9 48 18 58 32 34 8 -14 12
-15 18 -6 6 10 19 9 60 -5 41 -14 57 -15 76 -6 14 6 36 11 49 11 13 0 27 5 30
10 3 6 17 10 30 10 19 0 24 7 30 40 4 22 11 40 15 40 5 0 6 23 3 51 -5 44 -12
57 -46 88 -22 20 -51 46 -64 59 -13 12 -28 22 -32 22 -5 0 -15 7 -22 16 -16
20 -131 95 -181 118 -20 10 -42 24 -49 32 -6 8 -17 14 -23 14 -18 0 -113 74
-197 153 -95 90 -165 152 -224 197 -62 48 -124 108 -160 154 -60 77 -88 106
-101 106 -21 0 -56 42 -44 54 6 6 4 16 -7 28 -16 18 -16 18 3 12 77 -30 200
-124 364 -281 141 -135 252 -231 325 -282 l55 -39 49 18 c26 11 76 20 110 21
90 3 74 19 -19 19 -47 0 -80 4 -80 10 0 6 17 10 38 10 20 0 52 4 70 10 28 7
33 7 28 -5 -3 -8 -3 -15 0 -15 2 0 9 12 15 26 7 21 6 31 -7 46 -10 10 -22 17
-28 15 -5 -2 -23 12 -39 30 -16 18 -33 33 -38 33 -5 0 -31 15 -58 32 -41 27
-50 39 -54 68 -5 44 3 53 48 54 24 1 35 6 35 16 0 18 -36 53 -65 64 -20 7 -20
8 -1 22 19 14 19 14 -2 14 -13 0 -22 6 -22 16 0 8 4 12 10 9 5 -3 10 -1 10 5
0 7 -6 10 -14 7 -7 -3 -23 1 -35 9 -23 16 -17 28 23 51 18 10 18 10 -1 15 -26
7 -106 -67 -139 -130 -14 -26 -24 -40 -21 -32 2 8 10 39 18 68 7 29 24 64 36
77 29 29 39 122 12 117 -8 -1 -26 9 -39 23 l-23 25 32 0 c18 0 30 -4 27 -9 -3
-5 20 -20 52 -34 59 -27 87 -52 102 -91 8 -23 28 -34 165 -96 69 -30 70 -31
107 -14 48 22 61 49 19 41 -33 -7 -45 4 -37 31 5 15 16 18 66 17 33 -1 66 -7
72 -13 7 -7 18 -12 25 -12 22 0 14 20 -11 30 -14 5 -30 18 -36 30 -9 17 -8 21
7 27 10 4 28 17 41 30 24 26 52 23 31 -3 -10 -12 -9 -18 3 -31 14 -14 17 -12
23 16 5 25 17 37 53 54 66 31 105 116 67 147 -16 14 -66 140 -85 217 -13 51
-13 51 -36 35 -13 -9 -24 -24 -24 -33 0 -9 -11 -22 -25 -29 -14 -7 -25 -17
-25 -22 0 -12 -48 -10 -55 2 -13 20 -79 40 -134 40 -60 0 -121 -27 -121 -54 0
-28 64 -62 147 -81 110 -24 117 -33 108 -134 -6 -66 -11 -84 -35 -113 -25 -29
-31 -32 -49 -21 -28 17 -41 16 -56 -4 -11 -15 -15 -15 -29 -4 -9 7 -14 17 -11
21 10 16 -13 20 -25 5 -9 -11 -29 -14 -79 -11 -36 2 -72 -1 -78 -6 -9 -7 -16
-2 -23 18 -13 34 -108 123 -131 124 -19 0 -42 24 -32 33 3 4 2 7 -4 7 -11 0
-39 -58 -31 -65 2 -3 28 -8 58 -12 29 -5 55 -13 57 -18 4 -14 -111 -11 -177 5
-49 12 -55 11 -65 -5 -22 -38 -41 -53 -75 -58 -19 -3 -29 -3 -23 0 7 2 13 9
13 14 0 6 -5 7 -10 4 -6 -3 -17 1 -26 9 -8 9 -13 16 -9 16 3 0 1 9 -5 20 -13
24 -28 25 -51 4 -17 -15 -17 -17 2 -37 24 -27 24 -37 -2 -37 -16 0 -19 4 -14
20 4 13 1 22 -9 26 -13 5 -9 13 20 39 30 28 43 56 91 194 72 212 70 225 -42
286 -27 15 -65 36 -82 47 -38 23 -43 15 -11 -19 20 -21 20 -26 8 -62 -11 -36
-10 -42 15 -85 21 -37 26 -53 20 -84 -8 -47 -22 -71 -32 -56 -5 6 -28 21 -53
32 -29 14 -38 22 -25 22 16 1 13 5 -13 18 -30 17 -36 37 -7 26 9 -4 12 8 10
45 -1 32 2 52 9 53 6 0 16 2 21 3 6 2 16 3 23 4 6 0 12 10 12 21 0 17 -7 20
-40 20 -28 0 -45 -6 -57 -20 -25 -29 -31 -25 -19 14 6 19 14 32 18 30 4 -3 8
0 8 6 0 6 -7 13 -15 16 -8 4 -13 10 -10 14 3 4 -7 11 -23 15 -61 15 -91 55
-41 55 11 0 19 7 19 16 0 14 3 14 15 4 24 -20 44 3 27 31 -12 18 -10 25 10 48
13 14 24 28 26 30 1 3 7 0 13 -6 8 -8 8 -17 0 -32 -9 -17 -9 -21 2 -21 7 0 19
-10 26 -23 25 -46 160 -113 207 -101 30 8 30 16 2 40 -12 10 -18 13 -14 7 10
-17 -4 -16 -28 2 -11 8 -29 15 -40 15 -20 0 -20 0 0 15 10 8 15 15 9 15 -40 4
-79 11 -82 14 -6 6 39 46 52 46 6 0 19 -13 28 -30 21 -36 44 -39 50 -7 4 22 4
22 12 1 7 -23 42 -44 63 -37 25 9 13 67 -23 108 -38 44 -40 58 -7 63 12 2 22
7 22 11 0 13 -32 37 -67 51 -35 13 -35 14 -38 75 -1 31 -11 53 -45 97 -25 31
-49 57 -53 57 -4 1 -21 10 -36 22 -17 12 -47 22 -75 24 -25 1 -53 9 -62 16 -8
7 -25 14 -37 15 -53 7 -94 18 -114 31 -27 18 -151 9 -201 -15 -19 -8 -53 -15
-77 -14 -34 0 -50 -5 -70 -25 -24 -25 -26 -25 -44 -8 -11 9 -25 14 -30 10 -6
-3 -11 1 -11 10 0 27 -24 44 -45 33 -15 -9 -17 -8 -12 6 4 9 2 16 -4 16 -6 0
-3 13 8 29 32 50 66 91 75 91 6 0 22 8 36 19 27 18 67 31 111 34 13 1 26 7 28
12 1 6 22 9 45 8 25 -1 60 6 83 16 22 11 56 24 75 29 40 13 177 18 187 9 3 -4
17 -7 29 -7 13 0 26 -4 29 -10 3 -5 14 -10 23 -10 10 0 33 -11 52 -23 19 -13
49 -32 65 -43 l30 -18 -19 22 c-11 13 -31 28 -45 35 -14 7 -25 20 -25 30 1 9
-1 15 -5 15 -3 -1 -24 6 -46 16 -22 10 -49 22 -60 27 -11 5 -42 11 -69 13 -27
2 -52 10 -56 17 -13 21 -138 22 -169 2 -28 -19 -30 -19 -78 -21 -17 -1 -38 -9
-47 -17 -8 -8 -21 -15 -29 -15 -8 0 -26 -9 -40 -20 -14 -11 -32 -20 -41 -20
-8 0 -20 -9 -25 -19 -10 -17 -65 -46 -83 -43 -4 1 -10 -8 -13 -19 -5 -14 -12
-18 -26 -14 -14 5 -17 3 -13 -9 4 -11 0 -16 -12 -16 -25 -1 -50 -20 -58 -47
-4 -12 -15 -25 -26 -28 -16 -5 -31 -24 -69 -85 -14 -24 -34 -71 -51 -125 -13
-41 -20 -50 -40 -53 -33 -3 -54 12 -47 32 4 10 19 16 42 16 50 0 46 27 -11 71
-40 31 -47 41 -49 77 -4 50 14 56 54 18 37 -34 74 -40 96 -16 10 11 13 20 7
20 -7 0 -12 9 -12 19 0 12 16 27 47 43 26 14 53 35 61 47 14 21 14 22 -15 16
-45 -7 -56 11 -46 82 7 52 11 58 33 61 20 2 33 -6 58 -38 33 -40 62 -52 62
-26 0 28 -23 76 -36 76 -16 0 -16 6 -5 35 11 25 -4 45 -34 45 -14 0 -26 9 -33
25 -6 14 -18 25 -27 25 -26 0 -19 49 10 60 22 8 65 44 65 54 0 8 -62 26 -71
20 -5 -3 -9 -12 -9 -20 0 -8 -9 -25 -21 -37 -12 -12 -25 -31 -29 -42 -8 -19
-9 -19 -9 3 -1 23 -2 23 -27 -7 -14 -17 -31 -31 -38 -31 -8 0 -20 -27 -29 -62
-8 -35 -19 -72 -23 -83 -4 -11 -4 -17 1 -13 4 4 34 -33 67 -82 44 -65 58 -94
53 -109 -3 -12 -12 -21 -20 -21 -22 0 -75 50 -75 71 0 11 -7 19 -17 19 -9 0
-27 10 -40 22 -39 36 -56 -9 -40 -106 7 -41 6 -51 -11 -70 -12 -11 -24 -34
-28 -50 -6 -25 -5 -28 15 -22 11 3 30 9 41 12 40 11 44 -73 5 -116 -22 -24
-19 -39 10 -50 14 -5 25 -13 25 -18 0 -4 13 -22 29 -38 27 -28 35 -45 32 -69
-1 -9 -73 -12 -138 -7 -15 1 -28 16 -43 48 -20 40 -21 49 -9 70 9 18 10 27 2
35 -17 17 -35 0 -29 -25 4 -15 -3 -34 -20 -57 l-25 -34 34 -6 c37 -6 160 -97
171 -126 8 -20 -17 -43 -47 -43 -35 0 -7 -18 40 -25 27 -4 50 -7 53 -8 3 0 11
-7 18 -14 7 -7 25 -13 38 -13 14 0 22 -4 19 -10 -3 -6 -17 -7 -31 -4 -18 5
-32 0 -49 -16 -39 -37 -40 -69 -5 -146 l31 -68 -17 -56 c-9 -30 -22 -72 -30
-93 -8 -20 -14 -51 -14 -67 0 -17 -11 -57 -24 -90 -27 -66 -25 -70 45 -70 35
0 41 4 58 38 38 74 72 95 155 96 36 1 39 -1 52 -38 11 -30 11 -42 3 -50 -9 -8
-10 -6 -6 7 4 9 2 17 -3 17 -6 0 -10 -7 -10 -15 0 -8 -12 -28 -26 -44 -22 -25
-29 -28 -45 -18 -14 9 -22 8 -36 -4 -37 -33 -46 -34 -41 -5 4 21 3 24 -8 15
-7 -6 -18 -8 -24 -4 -5 3 -10 3 -10 -2 0 -15 -61 -43 -93 -43 -18 0 -45 9 -62
20 -37 24 -43 25 -41 3 1 -12 -9 -19 -29 -23 l-30 -6 26 -7 c35 -9 205 -126
248 -170 20 -22 30 -40 26 -48 -5 -7 -4 -10 3 -5 6 3 13 2 16 -3 3 -5 45 -21
93 -36 104 -33 115 -40 111 -74 -3 -23 -9 -27 -48 -31 -25 -3 -65 -1 -90 3
-25 5 -68 8 -95 8 -28 -1 -66 4 -85 9 -19 6 -57 13 -85 16 -27 3 -72 11 -100
18 -27 7 -59 13 -70 13 -11 0 -45 3 -75 7 -52 6 -51 5 28 -18 46 -13 91 -30
101 -38 159 -118 200 -153 219 -183 21 -33 21 -37 7 -58 -8 -12 -15 -26 -15
-32 0 -5 9 3 19 18 l18 28 21 -26 c18 -23 20 -40 5 -67 -7 -14 -94 25 -117 53
-14 16 -28 29 -33 29 -5 0 -24 8 -43 19 -19 10 -52 24 -73 30 -20 7 -35 16
-33 19 2 4 -6 8 -17 9 -84 7 -198 22 -207 28 -5 3 -10 1 -10 -5 0 -7 -6 -6
-15 3 -8 9 -23 13 -34 10 -11 -3 -28 4 -40 16 -12 12 -21 17 -21 12 0 -15 -59
-41 -66 -30 -3 6 -12 8 -20 5 -16 -6 -44 19 -44 39 0 7 8 16 18 19 14 4 14 5
-3 4 -38 -1 -45 2 -45 18 0 13 -8 15 -52 9 -29 -4 -57 -11 -62 -15 -4 -4 -22
-4 -39 1 -22 6 -33 5 -39 -4 -5 -7 -6 0 -3 18 3 17 2 24 -1 17 -3 -6 -10 -10
-15 -6 -5 3 -9 -4 -9 -15 0 -12 -3 -21 -7 -22 -5 0 -22 -2 -39 -3 -23 -3 -36
3 -49 20 -10 13 -24 24 -31 24 -17 0 -18 -37 -1 -43 9 -4 9 -6 0 -6 -7 -1 -18
9 -24 22 -7 12 -18 26 -25 30 -8 4 -14 15 -14 24 0 14 -3 13 -22 -3 -18 -16
-20 -16 -15 -2 9 25 -4 30 -26 11 -20 -17 -20 -17 -14 2 7 19 6 19 -7 2 -8
-11 -27 -17 -51 -17 -36 0 -37 1 -30 28 3 15 14 41 24 57 17 29 140 140 193
174 l28 18 -35 11 c-32 9 -35 9 -30 -8 5 -14 1 -17 -25 -14 -16 2 -30 0 -30
-4 0 -4 -10 -8 -22 -8 -39 -2 -66 -12 -112 -39 -44 -26 -62 -53 -57 -87 1 -9
-3 -19 -9 -23 -5 -3 -10 -35 -10 -70 0 -62 -14 -91 -30 -64 -7 10 -12 10 -22
1 -20 -16 -118 -11 -118 6 0 7 -5 10 -11 7 -11 -7 -4 50 13 94 5 13 6 26 3 30
-8 8 -25 -20 -25 -42 0 -39 -34 -149 -46 -154 -8 -3 -14 -10 -14 -17 0 -6 -5
-18 -10 -26 -9 -13 -11 -13 -20 0 -8 13 -10 12 -10 -2 0 -13 8 -18 30 -18 26
0 30 -3 30 -29 0 -15 -13 -55 -30 -87 -32 -65 -30 -83 5 -42 l24 28 3 -43 c2
-23 8 -42 13 -41 6 0 17 -9 26 -20 15 -19 17 -19 33 -3 21 20 25 21 50 2 26
-19 46 -19 46 1 0 8 4 12 10 9 5 -3 29 13 52 37 32 32 44 52 45 77 3 38 18 61
41 61 8 0 12 3 9 6 -14 14 34 42 65 38 32 -4 64 -24 39 -24 -7 0 -9 -5 -6 -11
4 -6 29 -9 56 -8 45 3 52 0 107 -49 33 -28 86 -67 118 -86 33 -19 67 -43 77
-53 17 -19 16 -20 -38 -15 -49 4 -55 2 -49 -12 9 -23 61 -48 109 -53 21 -2 50
-11 63 -19 24 -15 25 -15 19 2 -21 70 -25 64 37 64 31 0 56 -2 56 -3 0 -4 -35
-108 -46 -137 -4 -12 -9 -9 -19 10 l-14 25 -1 -27 c0 -16 -3 -28 -6 -28 -3 0
-23 14 -44 30 -21 17 -45 30 -54 30 -9 0 -28 14 -43 30 -52 59 -109 31 -115
-59 -3 -42 -2 -44 33 -56 20 -7 54 -24 75 -37 21 -14 61 -28 88 -31 27 -4 51
-9 54 -12 15 -15 -158 -475 -179 -475 -4 0 -33 -15 -66 -33 -131 -74 -398
-172 -582 -212 -415 -91 -737 -118 -907 -75 -233 58 -424 228 -490 434 -13 43
-23 81 -20 83 2 2 12 -20 21 -49 23 -69 82 -183 109 -208 108 -102 116 -108
135 -103 38 10 69 -5 82 -41 6 -18 20 -38 30 -45 21 -12 24 -4 10 31 -26 70
-34 109 -32 169 1 38 -3 70 -8 74 -7 4 -11 -5 -12 -22 0 -15 -3 -22 -6 -15
-10 25 -23 11 -23 -27 0 -36 -2 -39 -32 -43 -18 -3 -39 -7 -47 -9 -11 -3 -13
12 -12 76 1 44 5 83 9 86 4 4 24 9 44 12 32 5 41 2 58 -20 11 -14 20 -21 20
-16 0 5 -3 13 -7 17 -4 4 -9 19 -11 33 -7 57 -31 75 -71 54 -16 -9 -18 -3 -19
69 0 44 3 82 8 85 15 9 -5 49 -93 183 -46 70 -91 140 -101 155 -15 25 -16 35
-6 83 9 42 15 53 24 45 7 -6 16 -8 19 -4 4 3 16 -2 27 -12 23 -21 27 -14 5 9
-13 13 -12 17 15 36 l30 21 -42 50 c-38 45 -41 54 -39 100 1 28 13 81 26 117
34 95 75 258 75 298 0 20 5 34 13 35 6 0 26 2 42 4 17 2 65 -2 108 -7 66 -9
80 -14 87 -32 47 -124 53 -134 73 -118 19 16 -1 103 -23 99 -9 -1 -15 6 -15
18 0 34 38 25 50 -12 15 -45 19 -47 60 -32 34 13 36 16 32 45 -4 26 -1 33 17
42 19 8 23 17 20 49 -2 21 -3 43 -3 50 -1 7 -17 20 -36 29 -32 15 -38 15 -69
0 -47 -22 -51 -20 -21 11 27 30 33 47 12 40 -6 -2 -11 -10 -9 -16 3 -13 -10
-7 -39 18 -13 11 -15 19 -8 33 8 15 6 18 -13 18 -23 1 -58 21 -58 34 0 3 7 6
15 6 8 0 15 5 15 10 0 6 -7 10 -15 10 -8 0 -20 9 -27 20 -7 11 -22 20 -33 20
-19 1 -19 1 -2 14 12 10 15 16 7 21 -6 4 -15 18 -20 31 -11 27 -30 32 -30 8 0
-8 -5 -12 -10 -9 -6 4 -10 12 -9 18 3 26 -2 37 -16 37 -24 0 -31 -31 -10 -46
15 -11 16 -16 5 -29 -7 -8 -10 -15 -6 -15 3 0 -6 -13 -21 -30 -14 -16 -29 -30
-32 -30 -12 0 -41 62 -41 86 0 13 -6 33 -12 44 -10 16 -10 24 0 40 16 27 15
33 -4 26 -9 -4 -23 -1 -30 5 -11 9 -18 8 -30 -2 -15 -12 -16 -11 -9 11 10 33
23 40 57 33 15 -3 28 -2 28 3 0 5 -12 10 -26 11 -47 2 -59 43 -13 43 20 0 26
24 9 35 -16 10 -12 23 10 30 11 3 20 13 20 21 0 11 -7 13 -27 8 -28 -7 -28 -7
-9 14 13 15 26 20 42 16 21 -5 24 -2 24 20 0 19 -5 26 -20 26 -19 0 -59 -18
-70 -31 -3 -3 -12 -8 -20 -11 -8 -2 -15 -13 -15 -24 0 -12 -8 -20 -22 -22 -12
-2 -24 -10 -27 -18 -4 -11 -1 -14 13 -9 13 4 20 0 23 -13 4 -15 1 -18 -12 -15
-25 7 -54 -25 -39 -43 9 -11 9 -20 -1 -39 -7 -14 -17 -25 -22 -25 -5 0 -5 7 0
17 6 10 6 29 0 49 -9 35 5 70 44 105 10 9 18 21 18 28 0 21 -26 11 -50 -19
-29 -33 -36 -36 -56 -16 -21 21 -17 36 10 36 13 0 29 7 37 16 8 10 23 14 41
12 36 -6 45 7 18 24 -11 7 -20 19 -20 26 0 19 -23 39 -38 34 -6 -2 -12 -12
-12 -23 0 -12 -5 -16 -15 -13 -17 7 -19 20 -5 37 6 7 19 23 30 37 l19 25 1
-22 c0 -25 7 -28 29 -14 8 5 11 16 8 26 -4 9 -11 14 -16 11 -5 -3 -11 8 -15
24 -4 21 -11 30 -25 30 -10 0 -21 9 -24 20 -7 26 -18 25 -49 -3 -23 -21 -68
-34 -68 -19 0 4 16 18 35 31 28 19 34 28 29 45 -4 11 -13 26 -21 31 -8 6 -13
17 -11 25 2 8 -5 14 -17 15 -15 0 -19 6 -18 23 3 26 -23 31 -30 5 -3 -10 -5
-4 -6 13 -1 26 -6 32 -38 40 -45 11 -56 34 -17 34 43 0 75 60 39 74 -23 8 -18
25 11 36 17 7 23 14 17 22 -4 7 -8 22 -8 33 0 29 -63 31 -75 1 -7 -16 -9 -8
-9 32 -1 40 2 52 14 52 8 0 15 -7 15 -15 0 -18 21 -20 38 -3 19 19 15 48 -8
48 -31 0 -24 14 16 34 28 13 34 20 25 29 -6 6 -11 21 -11 34 0 12 -7 26 -15
31 -14 7 -14 12 1 43 9 18 25 43 35 54 10 11 18 25 19 30 0 6 23 9 54 7 l53
-3 19 45 c17 41 44 63 44 35 0 -5 5 -7 10 -4 17 11 11 25 -16 35 -19 8 -31 6
-47 -5 -27 -19 -38 -19 -31 0 4 8 23 18 44 21 55 9 65 17 49 42 -11 18 -11 24
2 39 32 37 34 46 6 41 -23 -5 -25 -3 -16 19 14 38 11 41 -28 27 -69 -24 -101
-17 -80 18 9 16 9 22 0 25 -19 7 -16 23 9 44 l23 18 -22 1 c-28 0 -35 13 -38
67 -1 25 -7 48 -13 52 -18 11 9 76 42 102 26 20 29 21 38 6 12 -23 27 -21 54
4 23 22 44 19 44 -6 0 -12 5 -12 23 -4 18 8 23 17 19 35 -5 28 4 31 30 7 14
-13 18 -13 18 -2 0 8 3 24 6 37 l6 22 -746 0 -746 0 0 -1170z m1230 764 c0
-16 -16 -19 -25 -4 -8 13 4 32 16 25 5 -4 9 -13 9 -21z m34 -78 c-10 -8 -21
-12 -24 -10 -5 6 21 24 34 24 6 0 1 -6 -10 -14z m86 -26 c0 -19 -20 -27 -33
-13 -8 7 11 33 24 33 5 0 9 -9 9 -20z m-165 -160 c-3 -5 -10 -10 -16 -10 -5 0
-9 5 -9 10 0 6 7 10 16 10 8 0 12 -4 9 -10z m-768 -174 c60 -28 214 -142 258
-192 17 -19 37 -34 46 -34 17 0 89 -80 102 -112 4 -11 13 -18 20 -15 8 3 20 1
28 -3 11 -7 7 -16 -19 -41 -21 -21 -29 -35 -22 -39 8 -5 9 -18 2 -41 -5 -19
-7 -40 -5 -46 3 -7 -3 -13 -11 -13 -10 0 -19 -12 -22 -30 -6 -29 -24 -42 -24
-17 0 6 -6 4 -12 -7 -9 -16 -13 -12 -29 35 -32 90 -29 87 -44 59 l-13 -25 -5
25 c-25 121 -29 154 -21 157 35 12 37 21 14 59 -13 22 -40 53 -61 71 -20 18
-42 45 -48 61 -14 34 -40 49 -96 55 -43 5 -149 50 -140 59 5 5 -19 16 -68 32
-36 12 -5 26 56 26 44 0 77 -7 114 -24z m-41 -162 c12 -28 21 -35 54 -40 22
-4 43 -10 46 -15 8 -13 -42 -40 -85 -46 -33 -4 -45 -13 -65 -44 -40 -60 -36
-108 14 -158 33 -33 48 -41 78 -41 48 0 54 -5 87 -67 28 -55 49 -67 60 -33 3
11 15 25 25 30 15 8 25 5 49 -17 25 -23 41 -61 86 -197 31 -92 71 -210 90
-260 19 -50 46 -134 61 -186 14 -52 32 -116 39 -141 17 -59 49 -123 90 -176
38 -50 118 -234 113 -259 -8 -41 -28 -16 -87 108 -58 120 -184 395 -240 523
-12 28 -26 58 -31 67 -6 10 -10 23 -10 29 0 10 -66 158 -108 239 -16 32 -21
35 -55 32 -26 -3 -45 3 -62 17 -14 11 -39 23 -55 26 -17 4 -30 11 -30 15 0 5
-11 15 -24 22 -28 15 -175 187 -176 206 0 6 -4 12 -8 12 -11 0 -66 129 -59
137 3 3 14 -8 24 -24 39 -61 99 -132 123 -143 14 -7 38 -18 54 -26 16 -8 31
-12 34 -10 12 12 -11 38 -45 53 -49 20 -110 82 -118 119 -3 16 -10 43 -15 60
-11 34 6 90 34 113 9 8 21 32 28 55 6 22 15 46 20 52 15 20 50 2 64 -32z m214
-85 c0 -9 -6 -22 -13 -28 -11 -8 -18 -6 -32 9 -16 17 -16 24 -6 44 12 22 14
23 32 8 11 -9 19 -24 19 -33z m-501 -31 c0 -28 -2 -30 -9 -13 -12 28 -12 45 0
45 6 0 10 -15 9 -32z m71 -24 c0 -8 -4 -12 -10 -9 -5 3 -10 13 -10 21 0 8 5
12 10 9 6 -3 10 -13 10 -21z m4467 -46 c-3 -8 -6 -5 -6 6 -1 11 2 17 5 13 3
-3 4 -12 1 -19z m47 -6 c2 -4 0 -14 -6 -22 -8 -12 -9 -12 -5 2 3 9 1 19 -6 22
-9 3 -9 5 0 5 6 1 14 -3 17 -7z m-4265 -11 c23 -15 5 -44 -21 -36 -31 10 -42
21 -34 34 9 13 36 14 55 2z m611 -1 c0 -5 -7 -10 -15 -10 -8 0 -15 5 -15 10 0
6 7 10 15 10 8 0 15 -4 15 -10z m-890 -57 c0 -8 7 -27 15 -43 20 -39 5 -39
-23 0 -26 35 -32 90 -7 70 8 -7 15 -19 15 -27z m5220 -42 c0 -15 46 -57 58
-53 8 2 12 -9 12 -35 -1 -28 -7 -42 -24 -55 -24 -17 -24 -17 -45 23 -12 23
-24 61 -28 85 -5 37 -3 44 11 44 9 0 16 -4 16 -9z m-4220 -101 c0 -5 -2 -10
-4 -10 -3 0 -8 5 -11 10 -3 6 -1 10 4 10 6 0 11 -4 11 -10z m90 -60 c0 -5 -4
-10 -10 -10 -5 0 -10 5 -10 10 0 6 5 10 10 10 6 0 10 -4 10 -10z m4180 -65 c0
-2 -10 -10 -22 -16 -21 -11 -22 -11 -9 4 13 16 31 23 31 12z m-834 -31 c-4
-15 -13 -33 -21 -40 -12 -12 -14 -11 -12 9 2 19 24 55 36 57 2 0 0 -12 -3 -26z
m-4186 -24 c0 -14 -34 -12 -48 2 -7 7 -12 18 -12 25 0 11 6 10 30 -2 17 -9 30
-20 30 -25z m4550 9 c16 -29 8 -32 -41 -18 l-42 13 29 13 c39 16 42 16 54 -8z
m-3700 -39 c0 -5 -7 -10 -16 -10 -8 0 -12 5 -9 10 3 6 10 10 16 10 5 0 9 -4 9
-10z m-105 -111 c11 -16 1 -19 -13 -3 -7 8 -8 14 -3 14 5 0 13 -5 16 -11z
m3755 -19 c0 -5 -12 -10 -27 -9 -25 0 -26 1 -8 9 27 12 35 12 35 0z m290 -28
c0 -5 -13 -7 -30 -4 -16 2 -30 6 -30 8 0 2 14 4 30 4 17 0 30 -4 30 -8z
m-3708 -269 c-11 -33 -34 1 -25 37 l6 21 12 -23 c6 -13 10 -29 7 -35z m2932
21 c5 -14 4 -15 -9 -4 -17 14 -19 20 -6 20 5 0 12 -7 15 -16z m173 -41 c-3
-10 -5 -2 -5 17 0 19 2 27 5 18 2 -10 2 -26 0 -35z m-68 -7 c29 -47 26 -56 -4
-12 -14 20 -25 39 -25 41 0 12 10 2 29 -29z m36 3 c9 -17 15 -33 13 -35 -3 -2
-12 12 -21 31 -21 43 -13 47 8 4z m654 -3 c10 -12 8 -14 -11 -10 -22 5 -22 5
2 -10 24 -14 25 -13 33 10 10 27 35 31 88 12 58 -20 65 -33 33 -71 -14 -17
-35 -35 -44 -39 -28 -11 -174 -2 -201 13 -49 25 -59 29 -78 29 -11 0 -23 5
-26 10 -3 6 -2 10 3 10 5 0 12 10 15 21 4 15 11 20 23 15 9 -3 23 -1 31 5 7 7
16 9 20 5 3 -3 1 -6 -5 -6 -7 0 -12 -4 -12 -9 0 -4 11 -6 25 -3 14 2 25 11 25
18 0 19 64 19 79 0z m-211 -25 c3 -8 -1 -12 -9 -9 -7 2 -15 10 -17 17 -3 8 1
12 9 9 7 -2 15 -10 17 -17z m-3508 -1 c0 -5 -4 -10 -10 -10 -5 0 -10 5 -10 10
0 6 5 10 10 10 6 0 10 -4 10 -10z m-23 -35 c-15 -16 -28 -10 -21 10 3 7 12 11
19 8 11 -4 12 -8 2 -18z m3937 -77 c10 -41 7 -55 -30 -109 l-36 -54 36 34 c39
38 48 34 16 -6 -25 -32 -26 -53 -1 -53 11 0 23 -4 26 -10 8 -13 -11 -13 -37 1
-17 9 -25 6 -51 -18 l-31 -28 17 27 c16 26 8 32 -21 14 -25 -15 -31 9 -12 49
24 49 24 55 4 55 -11 0 -14 6 -9 21 5 14 1 25 -12 34 -22 17 -10 33 39 51 57
20 95 17 102 -8z m-3458 -150 l19 -21 -27 18 c-29 18 -34 25 -20 25 5 0 17
-10 28 -22z m2584 -17 c0 -20 -36 -36 -46 -20 -3 5 -14 9 -25 9 -10 0 -19 5
-19 10 0 14 16 13 41 -2 18 -11 23 -10 33 5 14 22 16 21 16 -2z m1243 -98 c-2
-43 -13 -114 -23 -158 -11 -44 -21 -93 -23 -110 -3 -24 -4 -23 -5 10 -1 35 3
61 23 151 4 19 -2 22 -72 34 -43 8 -71 16 -64 18 8 3 38 -1 68 -8 71 -15 80
-7 60 58 -16 55 -8 82 23 82 17 0 18 -7 13 -77z m-4353 -73 c0 -27 -4 -50 -8
-50 -21 0 -67 74 -57 90 3 6 19 10 36 10 28 0 29 -1 29 -50z m4153 23 c-7 -2
-19 -2 -25 0 -7 3 -2 5 12 5 14 0 19 -2 13 -5z m-4358 -63 c-10 -11 -21 -18
-23 -15 -3 3 3 12 14 20 27 20 30 18 9 -5z m43 -168 c-3 -37 -3 -37 -17 -13
-11 21 -11 33 0 80 l14 56 3 -43 c2 -23 2 -59 0 -80z m120 29 c-7 -27 -18 -45
-29 -48 -10 -3 -16 -10 -15 -16 2 -7 1 -9 -1 -5 -2 4 -12 4 -21 1 -14 -6 -15
-4 -4 9 7 8 10 22 6 31 -3 8 1 20 8 26 29 24 63 49 65 47 1 -1 -3 -21 -9 -45z
m60 -34 c-29 -38 -61 -100 -47 -92 5 4 17 21 26 38 19 38 31 19 13 -23 -11
-27 -62 -60 -92 -60 -8 0 -23 7 -34 15 -18 13 -18 14 4 8 24 -6 40 9 69 64 19
37 78 103 81 92 2 -5 -7 -24 -20 -42z m-1328 -29 c0 -13 -23 -5 -28 10 -2 7 2
10 12 6 9 -3 16 -11 16 -16z m2951 -35 c13 -16 12 -17 -3 -4 -17 13 -22 21
-14 21 2 0 10 -8 17 -17z m-36 -73 c3 -5 2 -10 -4 -10 -5 0 -13 5 -16 10 -3 6
-2 10 4 10 5 0 13 -4 16 -10z m-2885 -13 c0 -7 -6 -21 -13 -32 -13 -17 -15
-17 -30 6 -13 18 -14 25 -4 31 19 12 47 9 47 -5z m243 -33 c26 -3 49 -10 52
-14 2 -4 0 -22 -5 -39 -8 -30 -7 -33 20 -45 l29 -12 -29 -11 c-23 -9 -37 -8
-58 1 -15 7 -46 21 -70 32 -41 18 -43 20 -37 54 9 45 13 52 33 46 10 -3 38 -8
65 -12z m3172 -24 c19 -8 19 -9 -2 -9 -12 -1 -25 4 -28 9 -7 12 2 12 30 0z
m-2265 -76 c0 -27 -4 -43 -10 -39 -17 11 -11 85 7 85 2 0 3 -21 3 -46z m2358
4 c-8 -5 -1 -8 19 -8 17 0 35 -4 38 -10 3 -5 1 -10 -4 -10 -6 0 -11 -7 -11
-15 0 -9 -9 -15 -24 -15 -14 0 -31 7 -40 15 -8 8 -30 15 -48 15 -38 0 -82 26
-72 42 4 6 24 8 50 4 24 -3 46 -1 49 4 3 6 16 5 31 -2 18 -8 21 -14 12 -20z
m150 -62 c-10 -22 -12 -23 -26 -9 -13 13 -13 16 -1 24 28 17 39 11 27 -15z
m117 14 c-3 -5 -10 -10 -16 -10 -5 0 -9 5 -9 10 0 6 7 10 16 10 8 0 12 -4 9
-10z m70 -60 c3 -5 1 -10 -4 -10 -6 0 -11 -7 -11 -16 0 -8 -4 -13 -9 -10 -11
7 -2 46 10 46 4 0 11 -4 14 -10z m-3612 -87 c-7 -2 -19 -2 -25 0 -7 3 -2 5 12
5 14 0 19 -2 13 -5z m37 -34 c0 -11 -12 -11 -35 -3 -12 5 -14 9 -4 14 14 9 39
2 39 -11z m3055 -31 c36 -13 59 -32 54 -46 -5 -13 -73 10 -100 34 -24 21 -25
39 -1 29 9 -4 31 -12 47 -17z m-2066 -45 c-1 -5 -1 -22 0 -40 1 -24 5 -31 16
-27 8 4 15 1 15 -5 0 -6 -6 -11 -14 -11 -16 0 -28 -37 -15 -46 5 -3 9 2 9 10
0 9 5 16 10 16 6 0 10 -9 10 -19 0 -29 17 -35 30 -11 13 25 30 17 30 -15 0
-20 -6 -24 -42 -28 -24 -2 -53 -8 -65 -12 -22 -7 -23 -5 -23 41 0 87 12 154
26 154 8 0 13 -3 13 -7z m3068 -159 c-3 -3 -12 -4 -19 -1 -8 3 -5 6 6 6 11 1
17 -2 13 -5z m-40 -10 c-3 -3 -12 -4 -19 -1 -8 3 -5 6 6 6 11 1 17 -2 13 -5z
m-3927 -84 c0 -5 -4 -10 -10 -10 -5 0 -10 5 -10 10 0 6 5 10 10 10 6 0 10 -4
10 -10z m983 -47 c4 -21 2 -55 -2 -75 -5 -20 -6 -39 -3 -42 3 -3 -12 -13 -33
-21 -20 -9 -38 -15 -40 -13 -8 9 -35 115 -35 140 0 24 4 28 28 29 15 0 36 4
47 9 31 13 32 12 38 -27z m-13 -250 c-1 -38 -1 -38 -15 -13 -9 18 -10 29 -3
37 16 19 18 16 18 -24z m141 -313 c19 -10 19 -12 2 -35 -25 -34 -33 -31 -33
10 0 38 2 40 31 25z m-14 -112 c-3 -7 -5 -2 -5 12 0 14 2 19 5 13 2 -7 2 -19
0 -25z m199 -319 c4 -35 -5 -89 -16 -89 -5 0 -7 7 -4 15 4 8 1 15 -5 15 -12 0
-15 48 -5 75 9 23 27 13 30 -16z"/>
<path d="M1378 1278 c5 -5 16 -8 23 -6 8 3 3 7 -10 11 -17 4 -21 3 -13 -5z"/>
<path d="M1532 4763 c5 -25 28 -28 28 -4 0 12 -6 21 -16 21 -9 0 -14 -7 -12
-17z"/>
<path d="M1695 4770 c-7 -12 2 -30 16 -30 12 0 12 27 0 35 -5 3 -12 1 -16 -5z"/>
<path d="M1840 4776 c0 -8 51 -13 56 -5 3 5 -9 9 -25 9 -17 0 -31 -2 -31 -4z"/>
<path d="M3375 4770 c4 -6 11 -8 16 -5 14 9 11 15 -7 15 -8 0 -12 -5 -9 -10z"/>
<path d="M4923 4770 c-12 -5 -24 -17 -27 -27 -3 -10 -18 -23 -33 -29 -18 -7
-36 -27 -51 -57 -12 -25 -26 -47 -31 -49 -5 -2 -25 -29 -45 -61 -41 -64 -58
-76 -81 -57 -9 7 -17 11 -18 9 -9 -13 -47 -137 -47 -153 0 -10 -10 -38 -22
-62 -21 -42 -21 -46 -5 -79 19 -41 23 -80 6 -69 -8 4 -8 1 0 -13 5 -11 10 -28
9 -39 0 -10 9 -55 21 -99 13 -44 20 -92 17 -107 -6 -29 8 -39 17 -13 4 8 22
21 42 29 20 9 43 22 51 31 9 8 22 15 30 15 17 0 18 12 3 27 -16 16 -3 48 26
63 32 17 41 66 25 126 -12 43 -15 45 -41 40 -24 -4 -29 -1 -38 25 -9 25 -8 31
7 35 20 6 26 10 80 47 44 31 82 30 82 -3 0 -10 11 -32 25 -48 14 -17 25 -38
25 -48 0 -28 16 -48 33 -41 7 3 24 24 35 48 20 40 20 43 4 55 -9 8 -24 14 -33
14 -22 0 -41 24 -34 42 4 10 19 14 48 13 23 -1 45 3 49 9 12 18 9 46 -7 62
-38 39 -7 44 56 10 34 -18 43 -28 41 -45 -1 -16 3 -22 15 -19 12 2 17 14 17
48 1 40 -2 45 -24 50 -14 3 -42 18 -63 34 -29 22 -37 35 -37 60 0 59 19 104
53 125 18 11 52 40 77 65 l44 46 -87 0 c-71 0 -87 -3 -87 -15 0 -19 -36 -19
-74 0 -15 8 -29 15 -30 14 0 0 -11 -4 -23 -9z m-22 -183 c-11 -29 -30 -34 -49
-15 -9 9 -12 6 -12 -14 0 -33 -17 -45 -24 -18 -3 11 -9 29 -12 40 -5 18 -2 20
20 14 17 -4 26 -2 26 5 0 14 42 32 53 22 4 -4 3 -20 -2 -34z m24 -108 c0 -8
-10 -14 -22 -13 -13 0 -23 -3 -23 -8 0 -4 -9 -8 -20 -8 -11 0 -20 4 -20 10 0
5 9 15 20 22 11 7 20 19 20 27 0 11 4 11 23 -1 12 -9 22 -22 22 -29z m75 -55
c0 -8 -5 -12 -10 -9 -6 4 -8 11 -5 16 9 14 15 11 15 -7z"/>
<path d="M5297 4773 c-6 -11 -2 -46 7 -61 11 -18 63 -15 70 4 12 31 7 36 -31
29 -33 -6 -35 -5 -24 9 7 9 17 14 21 11 5 -3 11 -1 15 5 4 6 -6 10 -24 10 -16
0 -32 -3 -34 -7z"/>
<path d="M3306 4745 c-6 -17 2 -45 14 -45 4 0 10 8 12 18 9 34 -13 59 -26 27z"/>
<path d="M1570 4724 c0 -14 3 -14 15 -4 8 7 15 14 15 16 0 2 -7 4 -15 4 -8 0
-15 -7 -15 -16z"/>
<path d="M1915 4730 c-3 -4 -1 -19 4 -32 6 -12 10 -19 10 -15 1 4 11 -2 23
-13 12 -11 28 -18 34 -16 6 2 21 -2 32 -9 19 -14 19 -14 1 22 -10 19 -26 41
-36 48 -25 16 -62 25 -68 15z m85 -46 c0 -8 -4 -12 -10 -9 -5 3 -10 10 -10 16
0 5 5 9 10 9 6 0 10 -7 10 -16z"/>
<path d="M3226 4648 c-14 -29 -24 -53 -22 -55 1 -1 19 15 39 35 26 26 36 44
31 55 -10 28 -22 20 -48 -35z"/>
<path d="M5161 4638 c-5 -13 -12 -42 -16 -66 -8 -50 5 -72 43 -72 23 0 24 2
17 38 -8 43 -8 68 0 100 4 17 1 22 -15 22 -12 0 -24 -9 -29 -22z"/>
<path d="M3150 4550 c-12 -17 -26 -28 -31 -25 -5 4 -9 0 -9 -7 0 -15 -46 -71
-53 -66 -3 2 -9 -1 -14 -6 -5 -5 -3 -6 5 -2 15 9 15 1 1 -27 -13 -25 -14 -26
74 74 37 42 67 79 67 83 0 15 -21 3 -40 -24z"/>
<path d="M3005 4429 c-4 -6 -3 -15 3 -21 6 -6 11 -4 15 6 7 18 -9 31 -18 15z"/>
<path d="M2957 4351 c-3 -14 0 -21 9 -21 16 0 18 9 5 28 -6 10 -10 9 -14 -7z"/>
<path d="M4865 4185 c4 -33 9 -62 10 -64 2 -2 16 0 30 3 l26 7 -21 26 c-11 14
-20 31 -20 37 0 7 -7 21 -16 32 -14 18 -15 14 -9 -41z"/>
<path d="M5123 4188 c2 -7 10 -13 17 -13 7 0 15 6 18 13 2 7 -5 12 -18 12 -13
0 -20 -5 -17 -12z"/>
<path d="M6074 4188 c-3 -5 3 -8 12 -8 10 0 15 -3 11 -6 -3 -3 2 -15 12 -25
30 -33 111 -9 111 33 0 17 -40 7 -50 -12 -6 -11 -16 -20 -23 -20 -7 0 -6 4 3
10 12 8 12 10 -5 10 -19 1 -19 1 -2 14 16 13 14 14 -23 13 -23 -1 -44 -5 -46
-9z"/>
<path d="M5928 4065 c-36 -31 -37 -48 -2 -35 21 9 29 6 44 -12 11 -14 16 -33
13 -50 -2 -15 -1 -28 2 -28 20 0 105 34 105 42 0 5 -4 7 -9 4 -5 -3 -11 1 -15
9 -3 8 -17 15 -31 15 -14 0 -28 7 -31 15 -4 8 -15 15 -25 15 -21 0 -25 20 -7
38 24 24 -16 12 -44 -13z"/>
<path d="M4857 4020 c-7 -26 30 -50 39 -25 6 15 -11 45 -26 45 -4 0 -10 -9
-13 -20z"/>
<path d="M6635 4031 c-3 -5 -1 -12 5 -16 5 -3 10 1 10 9 0 18 -6 21 -15 7z"/>
<path d="M6193 4013 c-7 -3 -13 -8 -13 -13 0 -13 31 -21 47 -11 14 8 14 10 -3
18 -10 6 -25 8 -31 6z"/>
<path d="M7280 3956 c0 -9 5 -16 10 -16 6 0 10 4 10 9 0 6 -4 13 -10 16 -5 3
-10 -1 -10 -9z"/>
<path d="M7280 3895 c0 -19 5 -35 10 -35 6 0 10 16 10 35 0 19 -4 35 -10 35
-5 0 -10 -16 -10 -35z"/>
<path d="M7147 3863 c-2 -5 -7 -20 -11 -34 -9 -41 -35 -45 -49 -9 -6 16 -14
30 -18 30 -7 0 -18 -51 -23 -105 -2 -26 -10 -53 -23 -77 -2 -4 2 -5 10 -3 7 3
24 -4 37 -15 29 -25 36 -13 21 32 -6 17 -11 34 -11 38 0 15 41 49 55 44 15 -6
45 52 45 87 0 18 -24 27 -33 12z"/>
<path d="M7273 3815 c0 -22 2 -30 4 -17 2 12 2 30 0 40 -3 9 -5 -1 -4 -23z"/>
<path d="M6470 3800 c0 -5 7 -10 16 -10 8 0 12 5 9 10 -3 6 -10 10 -16 10 -5
0 -9 -4 -9 -10z"/>
<path d="M6739 3751 c-42 -69 -71 -66 -86 9 l-6 33 -19 -22 c-10 -13 -18 -31
-18 -41 0 -9 -10 -30 -21 -44 l-22 -28 22 -29 c13 -17 20 -36 18 -43 -4 -9 8
-11 49 -8 37 3 54 1 54 -7 0 -7 4 -10 9 -6 5 3 12 1 16 -5 11 -18 53 -11 79
14 31 28 32 40 6 59 -16 11 -20 23 -17 51 2 20 7 39 10 42 4 4 3 12 -1 18 -4
6 -7 20 -7 31 0 40 -33 28 -66 -24z m91 -141 c0 -5 -5 -10 -11 -10 -5 0 -7 5
-4 10 3 6 8 10 11 10 2 0 4 -4 4 -10z"/>
<path d="M5620 3695 c0 -14 4 -25 9 -25 12 0 23 29 15 41 -10 18 -24 9 -24
-16z"/>
<path d="M5800 3685 c0 -14 5 -25 10 -25 6 0 10 11 10 25 0 14 -4 25 -10 25
-5 0 -10 -11 -10 -25z"/>
<path d="M2201 3691 c-7 -5 -9 -11 -4 -14 13 -8 53 3 53 14 0 11 -31 11 -49 0z"/>
<path d="M5714 3627 c3 -10 7 -46 7 -80 l2 -62 7 60 c6 47 5 64 -7 80 -13 17
-15 17 -9 2z"/>
<path d="M5640 3594 c10 -43 18 -53 30 -34 6 9 3 24 -8 42 -22 38 -31 35 -22
-8z"/>
<path d="M4010 3592 c0 -9 25 -48 42 -66 19 -21 19 -21 -1 -35 -14 -9 -21 -24
-21 -47 0 -19 4 -34 8 -34 16 0 32 25 32 51 0 16 8 32 21 41 l22 14 -29 41
c-21 30 -36 41 -51 40 -13 -1 -23 -3 -23 -5z"/>
<path d="M5859 3583 c-2 -16 3 -78 6 -82 2 -2 11 4 20 13 20 19 34 21 39 4 16
-53 17 -54 27 -30 9 25 2 52 -14 52 -5 0 -25 11 -44 26 -18 14 -33 21 -34 17z"/>
<path d="M1925 3565 c-52 -13 -52 -18 0 -15 17 0 52 -4 79 -10 54 -12 66 -8
44 13 -22 22 -68 27 -123 12z"/>
<path d="M6550 3500 c0 -11 5 -20 10 -20 6 0 10 9 10 20 0 11 -4 20 -10 20 -5
0 -10 -9 -10 -20z"/>
<path d="M6182 3446 c-12 -7 -26 -17 -30 -21 -4 -5 -2 -5 4 -2 7 4 14 0 18 -8
8 -22 40 -18 64 8 12 13 22 26 22 30 0 11 -53 6 -78 -7z"/>
<path d="M3360 3440 c0 -5 5 -10 11 -10 5 0 7 5 4 10 -3 6 -8 10 -11 10 -2 0
-4 -4 -4 -10z"/>
<path d="M3465 3410 c3 -5 11 -10 16 -10 6 0 7 5 4 10 -3 6 -11 10 -16 10 -6
0 -7 -4 -4 -10z"/>
<path d="M1240 3390 c0 -5 5 -10 10 -10 6 0 10 5 10 10 0 6 -4 10 -10 10 -5 0
-10 -4 -10 -10z"/>
<path d="M6601 3352 c-11 -16 -38 -37 -61 -47 -59 -27 -83 -76 -74 -155 4 -41
13 -65 28 -79 l22 -20 28 24 c36 31 61 39 82 27 19 -11 87 -6 119 8 11 5 33
11 50 12 42 4 72 66 56 117 -15 50 -65 101 -99 101 -15 0 -45 9 -67 20 -51 26
-60 25 -84 -8z"/>
<path d="M7280 3365 c0 -40 -16 -65 -40 -65 -11 0 -20 -6 -20 -14 0 -22 -40
-47 -59 -36 -9 4 -36 9 -61 11 -35 2 -44 0 -42 -12 6 -22 20 -36 65 -59 23
-12 54 -33 70 -46 27 -23 96 -48 106 -39 2 3 0 5 -6 5 -6 0 -13 7 -16 14 -4
10 -1 13 9 9 12 -4 14 15 14 121 0 77 -4 126 -10 126 -5 0 -10 -7 -10 -15z"/>
<path d="M5751 3310 c-2 -49 21 -341 26 -336 10 10 22 140 14 150 -4 6 -12 43
-15 81 -4 39 -11 86 -16 105 l-8 35 -1 -35z"/>
<path d="M3945 3300 c-3 -5 -1 -10 4 -10 6 0 11 5 11 10 0 6 -2 10 -4 10 -3 0
-8 -4 -11 -10z"/>
<path d="M4020 3265 c-7 -8 -20 -15 -29 -15 -9 0 -27 -7 -39 -16 -13 -9 -32
-14 -43 -11 -15 4 -19 0 -19 -23 0 -16 5 -32 11 -35 5 -4 9 -21 7 -38 -3 -30
-2 -31 67 -48 80 -21 150 -25 140 -8 -4 6 3 18 15 26 23 16 23 16 3 32 -31 24
-83 101 -83 122 0 25 -15 32 -30 14z"/>
<path d="M2095 3172 c-3 -3 -5 -9 -5 -14 0 -13 61 -73 72 -70 5 1 8 -6 6 -15
-1 -10 5 -29 15 -43 13 -19 17 -21 17 -7 0 10 17 34 38 54 33 32 44 37 104 43
37 3 71 10 75 14 4 5 1 7 -7 4 -8 -3 -26 -1 -40 4 -26 10 -120 -8 -120 -23 0
-15 -49 13 -66 39 -13 19 -18 22 -25 11 -5 -8 -9 -9 -9 -3 0 12 -44 16 -55 6z"/>
<path d="M5847 2923 c-29 -82 -33 -108 -17 -98 5 3 18 1 29 -5 15 -8 28 -5 55
11 40 23 47 52 17 69 -27 14 -27 14 -55 -17 l-25 -27 15 64 c21 91 13 93 -19
3z"/>
<path d="M6514 2975 c4 -14 1 -34 -6 -45 -10 -15 -10 -22 0 -32 9 -9 12 -9 12
4 0 9 12 26 28 37 l27 21 -24 20 c-31 27 -44 25 -37 -5z"/>
<path d="M6633 2993 c-21 -8 -14 -29 14 -42 22 -10 29 -9 42 4 15 15 14 17 -3
31 -20 14 -32 16 -53 7z"/>
<path d="M6827 2920 l-49 -63 13 -78 c14 -88 31 -102 49 -41 6 20 18 53 26 72
10 23 14 60 12 104 l-3 68 -48 -62z"/>
<path d="M3440 2960 c-30 -4 -46 -8 -35 -9 15 -1 16 -4 7 -10 -20 -12 7 -30
41 -27 33 4 48 -13 17 -21 -13 -3 -19 -11 -16 -19 3 -8 1 -14 -3 -14 -5 0 -11
5 -13 12 -2 6 -10 8 -16 4 -9 -5 -8 -11 3 -22 9 -9 15 -33 15 -58 0 -41 -2
-44 -40 -59 -36 -14 -55 -37 -31 -37 5 0 12 -18 16 -40 4 -22 11 -40 17 -40 6
0 8 -21 6 -49 -2 -37 1 -54 16 -70 14 -15 15 -21 6 -21 -11 0 -11 -3 -2 -12 7
-7 12 -20 12 -30 0 -23 27 -24 34 0 12 38 35 182 41 257 8 104 26 226 36 246
6 13 3 18 -14 23 -12 3 -26 5 -32 4 -5 -1 -35 -4 -65 -8z"/>
<path d="M5325 2950 c3 -5 10 -10 16 -10 5 0 9 5 9 10 0 6 -7 10 -16 10 -8 0
-12 -4 -9 -10z"/>
<path d="M1646 2921 c-4 -5 -2 -12 3 -15 5 -4 12 -2 15 3 4 5 2 12 -3 15 -5 4
-12 2 -15 -3z"/>
<path d="M1991 2889 c-52 -10 -97 -22 -100 -27 -3 -5 -14 -11 -23 -15 -10 -3
-18 -11 -18 -17 0 -12 66 -43 114 -54 23 -6 27 -4 23 8 -5 13 1 16 28 16 50 0
53 18 3 22 -61 4 -57 28 7 43 28 6 53 12 58 13 4 1 12 2 17 2 14 0 12 17 -2
22 -7 3 -55 -3 -107 -13z m-41 -48 c-11 -22 -29 -30 -47 -24 -22 8 5 43 33 43
21 0 23 -3 14 -19z"/>
<path d="M1620 2855 c-6 -15 -10 -33 -10 -41 0 -16 16 -19 25 -4 4 6 11 8 16
5 20 -13 21 27 0 46 l-21 20 -10 -26z"/>
<path d="M6490 2860 c-11 -7 -12 -12 -4 -20 8 -8 13 -6 17 9 3 12 4 21 4 21
-1 0 -9 -5 -17 -10z"/>
<path d="M6687 2864 c-4 -4 -4 -10 -1 -15 6 -10 34 0 34 12 0 10 -24 12 -33 3z"/>
<path d="M2906 2816 c-3 -14 -9 -53 -13 -86 -6 -64 1 -74 31 -41 13 14 16 33
14 82 -3 65 -21 89 -32 45z"/>
<path d="M2038 2773 c7 -3 16 -2 19 1 4 3 -2 6 -13 5 -11 0 -14 -3 -6 -6z"/>
<path d="M2885 2641 c-3 -5 4 -13 16 -16 23 -8 34 -1 24 14 -8 13 -32 14 -40
2z"/>
<path d="M6261 2514 c0 -11 3 -14 6 -6 3 7 2 16 -1 19 -3 4 -6 -2 -5 -13z"/>
<path d="M5512 2508 c-13 -13 12 -64 39 -78 21 -12 40 2 29 20 -9 13 -10 13
-10 0 0 -11 -3 -10 -11 4 -9 14 -8 20 2 26 10 7 10 11 0 24 -16 19 -33 20 -49
4z"/>
<path d="M2055 2374 c-13 -20 -14 -28 -4 -40 19 -23 27 -16 31 26 4 46 -3 50
-27 14z"/>
<path d="M2337 2373 c-4 -3 -7 -20 -7 -37 0 -28 1 -29 15 -10 23 31 16 72 -8
47z"/>
<path d="M2131 2260 c-12 -22 -18 -40 -13 -40 10 0 46 69 40 76 -3 2 -15 -14
-27 -36z"/>
<path d="M2150 2238 c-12 -22 -12 -22 6 -6 10 10 15 20 12 24 -4 3 -12 -5 -18
-18z"/>
<path d="M2010 2235 c0 -8 2 -15 4 -15 2 0 6 7 10 15 3 8 1 15 -4 15 -6 0 -10
-7 -10 -15z"/>
<path d="M4000 2240 c14 -4 57 -8 95 -8 52 0 62 2 40 8 -42 11 -168 11 -135 0z"/>
<path d="M6396 2215 c-21 -32 -17 -60 9 -60 28 0 45 50 24 71 -14 14 -18 13
-33 -11z"/>
<path d="M6505 2230 c-3 -5 1 -10 9 -10 9 0 16 5 16 10 0 6 -4 10 -9 10 -6 0
-13 -4 -16 -10z"/>
<path d="M6955 2211 c-16 -9 -32 -19 -35 -23 -3 -4 -24 -12 -45 -17 l-40 -9
52 -1 c28 -1 55 4 58 10 5 6 27 8 63 3 l57 -7 -23 26 c-31 33 -50 37 -87 18z"/>
<path d="M1727 2214 c-4 -4 -3 -12 1 -18 4 -6 7 -15 7 -20 0 -5 5 -11 10 -13
6 -2 10 10 10 27 1 28 -13 39 -28 24z"/>
<path d="M2175 2200 c-10 -11 -13 -20 -8 -20 13 0 38 29 31 35 -3 3 -13 -4
-23 -15z"/>
<path d="M1643 2180 c-23 -10 -32 -30 -12 -30 5 0 8 -4 5 -9 -4 -5 0 -12 6
-14 10 -4 10 -6 1 -6 -7 -1 -10 -8 -7 -16 4 -8 2 -15 -3 -15 -5 0 -15 16 -22
35 -7 19 -16 35 -20 35 -13 0 -81 -30 -81 -35 0 -16 34 -85 42 -85 5 0 37 13
71 29 34 16 70 31 80 35 16 5 16 8 2 42 -8 20 -15 38 -15 40 0 7 -24 3 -47 -6z
m22 -20 c3 -5 1 -10 -4 -10 -6 0 -11 5 -11 10 0 6 2 10 4 10 3 0 8 -4 11 -10z"/>
<path d="M2263 2155 c-17 -19 -27 -37 -23 -40 5 -3 12 0 16 6 4 6 19 9 36 5
27 -5 29 -4 17 10 -11 14 -11 18 4 29 17 12 13 25 -8 25 -6 0 -25 -16 -42 -35z"/>
<path d="M2027 2132 c-25 -25 -37 -47 -37 -66 0 -15 -5 -36 -11 -47 -8 -16 -7
-26 5 -44 13 -19 13 -23 2 -19 -16 6 -21 0 -30 -38 -8 -33 9 -38 19 -5 3 12 9
17 11 10 4 -8 22 -4 61 13 30 14 58 22 61 19 3 -3 0 -5 -7 -5 -7 0 -9 -5 -6
-10 11 -18 36 10 30 31 -4 11 -2 19 5 19 6 0 8 -6 4 -12 -4 -7 -3 -10 1 -5 5
4 9 16 10 27 2 18 0 19 -20 6 -29 -19 -60 -10 -74 21 -11 23 -9 29 16 56 24
26 21 25 -20 -8 -38 -30 -47 -34 -44 -19 1 11 14 35 28 54 52 70 51 78 -4 22z"/>
<path d="M2177 2163 c-4 -3 -7 -11 -7 -17 0 -6 5 -5 12 2 6 6 9 14 7 17 -3 3
-9 2 -12 -2z"/>
<path d="M1894 2110 c3 -8 7 -35 11 -60 11 -83 17 -100 31 -100 12 0 16 11 29
73 2 12 -3 17 -20 17 -17 0 -22 5 -20 18 1 9 -2 23 -8 30 -6 8 -6 12 2 12 6 0
11 6 11 14 0 9 -9 14 -20 13 -13 -1 -18 -7 -16 -17z"/>
<path d="M6733 2093 c9 -2 23 -2 30 0 6 3 -1 5 -18 5 -16 0 -22 -2 -12 -5z"/>
<path d="M2505 2069 c-5 -15 -10 -17 -20 -9 -9 7 -15 8 -19 1 -6 -9 31 -37 39
-29 2 2 6 15 10 31 8 31 0 37 -10 6z"/>
<path d="M6830 2079 c0 -5 5 -7 10 -4 6 3 10 8 10 11 0 2 -4 4 -10 4 -5 0 -10
-5 -10 -11z"/>
<path d="M1621 2007 c2 -18 0 -38 -5 -45 -4 -6 -4 -16 -1 -22 3 -5 1 -10 -6
-10 -7 0 -9 -9 -5 -27 4 -16 9 -41 11 -57 3 -16 16 -53 30 -82 28 -60 42 -114
29 -114 -29 -1 -35 -17 -21 -52 13 -30 19 -35 40 -31 29 6 41 -11 67 -97 10
-30 21 -63 25 -72 5 -13 2 -15 -17 -11 -13 4 -27 11 -31 17 -5 6 -6 -4 -3 -23
3 -18 6 -48 6 -66 l0 -33 41 9 c23 6 44 7 47 4 7 -6 8 -6 -50 -34 -41 -19 -48
-27 -48 -52 0 -34 1 -34 64 -13 32 11 46 21 42 30 -7 17 10 19 18 2 3 -9 12
-5 26 12 17 19 21 32 16 62 -3 20 -2 40 4 43 19 11 10 27 -11 22 -17 -4 -19
-3 -10 6 6 6 11 20 11 30 0 14 -5 18 -20 14 -16 -4 -19 -1 -14 17 7 29 -12 77
-28 71 -10 -4 -13 12 -14 62 0 38 3 71 8 74 10 7 -11 59 -24 59 -11 0 -10 -7
2 -31 6 -10 7 -19 2 -19 -5 0 -14 11 -20 25 -6 14 -18 25 -26 25 -7 0 -16 7
-20 15 -3 8 -1 15 4 15 6 0 6 9 1 23 -11 29 -4 47 18 47 28 0 55 25 45 41 -8
14 -10 19 -12 51 -2 16 -5 16 -44 2 -41 -14 -57 -9 -58 20 0 18 -53 126 -62
126 -5 0 -8 -15 -7 -33z m113 -172 c5 -22 4 -26 -4 -15 -5 8 -10 24 -10 34 0
26 6 18 14 -19z"/>
<path d="M6076 2009 c-14 -20 -16 -20 -31 -5 -20 20 -55 21 -55 2 0 -11 52
-31 64 -23 1 1 10 -4 20 -12 9 -8 19 -11 22 -8 7 7 46 -32 40 -41 -2 -4 2 -13
10 -20 20 -18 19 11 -3 77 -18 56 -41 67 -67 30z m20 -25 c-4 -9 -9 -15 -11
-12 -3 3 -3 13 1 22 4 9 9 15 11 12 3 -3 3 -13 -1 -22z"/>
<path d="M6450 1996 c0 -2 9 -6 20 -9 11 -3 18 -1 14 4 -5 9 -34 13 -34 5z"/>
<path d="M2145 1958 c-15 -22 -14 -23 10 -31 27 -9 48 2 66 35 9 16 6 18 -25
18 -25 0 -39 -6 -51 -22z"/>
<path d="M6811 1971 c-21 -13 0 -21 86 -31 43 -5 87 -12 98 -16 11 -4 17 -4
14 0 -3 3 -39 16 -80 27 -41 11 -81 22 -89 24 -8 3 -21 1 -29 -4z"/>
<path d="M2528 1935 c-20 -39 -13 -48 32 -39 24 5 30 11 24 23 -3 9 -9 24 -11
34 -8 27 -26 20 -45 -18z"/>
<path d="M2290 1925 c0 -8 9 -15 20 -15 11 0 20 2 20 5 0 2 -9 9 -20 15 -16 9
-20 8 -20 -5z"/>
<path d="M6506 1924 c-9 -22 -7 -23 55 -34 30 -5 92 -16 139 -25 103 -19 268
-45 287 -45 7 0 12 6 11 13 -3 13 28 14 122 1 80 -10 56 4 -36 22 -450 85
-566 99 -578 68z"/>
<path d="M2230 1923 c0 -7 -7 -10 -17 -7 -17 5 -17 5 0 -6 24 -15 39 -9 27 10
-6 9 -10 10 -10 3z"/>
<path d="M1890 1899 c0 -11 4 -18 10 -14 5 3 7 12 3 20 -7 21 -13 19 -13 -6z"/>
<path d="M7205 1910 c-17 -6 -13 -9 20 -15 22 -4 48 -9 58 -12 9 -2 17 0 17 5
0 5 -10 12 -22 15 -13 2 -30 7 -38 10 -8 3 -24 2 -35 -3z"/>
<path d="M2349 1879 c-14 -21 -18 -34 -11 -41 14 -14 66 -1 87 22 16 18 15 19
-14 34 -39 20 -36 21 -62 -15z"/>
<path d="M1987 1877 c-41 -12 -40 -7 -20 -82 8 -30 24 -38 40 -21 5 5 2 6 -7
1 -12 -7 -13 -5 -2 6 8 9 17 10 26 4 60 -44 67 -47 101 -41 40 8 42 14 16 45
-16 19 -26 21 -52 16 -22 -5 -29 -4 -25 4 4 6 13 11 21 11 7 0 24 15 37 32
l23 32 -57 -32 c-32 -17 -64 -29 -73 -26 -23 9 -18 23 10 30 14 3 25 12 25 20
0 16 -9 16 -63 1z"/>
<path d="M2275 1880 c3 -5 11 -10 16 -10 6 0 7 5 4 10 -3 6 -11 10 -16 10 -6
0 -7 -4 -4 -10z"/>
<path d="M1509 1848 c-7 -29 -5 -36 7 -31 16 6 18 19 4 28 -5 3 -10 5 -11 3z"/>
<path d="M2425 1837 c-15 -12 -16 -15 -2 -20 9 -3 18 1 21 10 9 22 3 25 -19
10z"/>
<path d="M1466 1811 c-4 -5 -2 -12 3 -15 5 -4 12 -2 15 3 4 5 2 12 -3 15 -5 4
-12 2 -15 -3z"/>
<path d="M2473 1799 c-1 -12 3 -16 13 -12 18 6 18 19 1 26 -7 3 -13 -3 -14
-14z"/>
<path d="M7075 1804 c78 -17 126 -16 55 1 -30 8 -68 14 -85 14 -20 -1 -10 -6
30 -15z"/>
<path d="M1600 1781 c0 -22 16 -36 24 -22 8 12 -3 41 -15 41 -5 0 -9 -9 -9
-19z"/>
<path d="M2276 1775 c-11 -8 -28 -15 -38 -15 -10 0 -35 -7 -56 -16 -35 -15
-36 -16 -18 -30 33 -24 61 -16 110 31 45 42 46 63 2 30z"/>
<path d="M1498 1751 c9 -16 20 -27 24 -25 9 6 -22 53 -34 54 -4 0 0 -13 10
-29z"/>
<path d="M2416 1758 c-9 -12 -16 -26 -16 -30 0 -13 134 -5 148 9 11 11 10 13
-7 13 -12 0 -21 -4 -21 -10 0 -5 -4 -10 -10 -10 -5 0 -10 7 -10 15 0 16 -30
35 -54 35 -8 0 -22 -10 -30 -22z"/>
<path d="M1910 1759 c0 -5 5 -7 10 -4 6 3 10 8 10 11 0 2 -4 4 -10 4 -5 0 -10
-5 -10 -11z"/>
<path d="M1940 1746 c0 -8 5 -18 10 -21 6 -3 10 3 10 14 0 12 -4 21 -10 21 -5
0 -10 -6 -10 -14z"/>
<path d="M2584 1752 c-16 -11 -24 -41 -13 -48 14 -9 53 31 45 45 -8 13 -17 14
-32 3z"/>
<path d="M1916 1732 c-3 -5 1 -15 9 -22 16 -14 20 -3 6 19 -5 8 -11 9 -15 3z"/>
<path d="M50 1714 c0 -7 -11 -22 -25 -35 -28 -27 -33 -70 -10 -89 8 -7 29 -39
47 -71 17 -33 34 -59 39 -59 19 0 39 35 39 68 l0 37 18 -23 c40 -52 44 23 5
78 -34 47 -63 68 -63 45 0 -16 -35 -21 -45 -6 -3 6 5 20 17 32 13 12 17 18 9
14 -8 -4 -17 -2 -22 6 -5 8 -9 9 -9 3z"/>
<path d="M2268 1703 c-23 -6 -23 -16 2 -38 18 -16 20 -16 45 3 25 20 25 21 6
31 -20 11 -24 12 -53 4z"/>
<path d="M5990 1676 c0 -3 9 -10 20 -16 11 -6 20 -8 20 -6 0 3 -9 10 -20 16
-11 6 -20 8 -20 6z"/>
<path d="M2010 1656 c0 -8 13 -28 29 -45 22 -24 38 -31 66 -31 l37 0 -25 34
c-16 20 -22 37 -17 42 6 6 -10 11 -40 12 -37 1 -50 -2 -50 -12z"/>
<path d="M2323 1663 c-7 -2 -13 -9 -13 -14 0 -12 67 -12 75 1 3 6 0 10 -9 10
-8 0 -20 2 -28 4 -7 3 -19 2 -25 -1z"/>
<path d="M2410 1640 c8 -5 22 -10 30 -10 13 0 13 1 0 10 -8 5 -22 10 -30 10
-13 0 -13 -1 0 -10z"/>
<path d="M2288 1623 c7 -3 16 -2 19 1 4 3 -2 6 -13 5 -11 0 -14 -3 -6 -6z"/>
<path d="M6085 1620 c3 -5 22 -12 43 -15 48 -8 180 -54 188 -66 9 -15 24 -10
18 5 -4 10 2 16 18 18 44 7 -69 47 -161 58 -107 12 -114 12 -106 0z"/>
<path d="M1532 1574 c10 -10 20 -16 22 -13 3 3 -5 11 -17 18 -21 13 -21 12 -5
-5z"/>
<path d="M1490 1564 c0 -14 27 -50 33 -44 3 3 -3 16 -13 30 -11 14 -20 20 -20
14z"/>
<path d="M2020 1529 c-12 -16 -20 -33 -17 -36 6 -6 56 47 57 60 0 17 -20 5
-40 -24z"/>
<path d="M1574 1495 c-4 -8 -12 -15 -19 -15 -30 0 -35 -26 -10 -60 13 -18 26
-38 28 -44 2 -6 17 0 35 14 34 27 35 50 5 96 -18 28 -31 31 -39 9z"/>
<path d="M2 1460 c0 -14 2 -19 5 -12 2 6 2 18 0 25 -3 6 -5 1 -5 -13z"/>
<path d="M200 1470 c0 -5 5 -10 11 -10 5 0 7 5 4 10 -3 6 -8 10 -11 10 -2 0
-4 -4 -4 -10z"/>
<path d="M40 1375 c0 -14 37 -41 46 -33 6 6 -26 48 -37 48 -5 0 -9 -7 -9 -15z"/>
<path d="M5352 1368 c3 -7 13 -15 22 -16 12 -3 17 1 14 10 -3 7 -13 15 -22 16
-12 3 -17 -1 -14 -10z"/>
<path d="M2443 1353 c-40 -8 -25 -31 34 -53 31 -12 61 -24 65 -26 13 -8 -13
-36 -27 -30 -7 2 -18 0 -26 -5 -9 -6 3 -9 36 -9 53 0 125 16 125 28 0 4 -17
24 -38 44 -33 33 -46 38 -89 40 -28 2 -49 6 -46 11 2 4 1 6 -4 6 -4 -1 -18 -4
-30 -6z"/>
<path d="M0 1270 l0 -50 40 0 c29 0 40 4 40 15 0 8 -4 15 -9 15 -5 0 -16 16
-25 35 -25 53 -46 46 -46 -15z"/>
<path d="M150 1284 c0 -8 4 -23 9 -33 7 -12 6 -26 -3 -43 -15 -27 -5 -48 21
-48 9 0 12 16 9 63 -5 81 -4 77 -21 77 -8 0 -15 -7 -15 -16z"/>
<path d="M520 1289 c0 -5 5 -7 10 -4 6 3 10 8 10 11 0 2 -4 4 -10 4 -5 0 -10
-5 -10 -11z"/>
<path d="M1707 1205 c3 -22 7 -42 9 -44 8 -9 2 45 -6 64 -7 14 -8 8 -3 -20z"/>
<path d="M115 1211 c-3 -5 -1 -12 5 -16 5 -3 10 1 10 9 0 18 -6 21 -15 7z"/>
<path d="M521 1194 c0 -11 3 -14 6 -6 3 7 2 16 -1 19 -3 4 -6 -2 -5 -13z"/>
<path d="M1671 1174 c0 -11 3 -14 6 -6 3 7 2 16 -1 19 -3 4 -6 -2 -5 -13z"/>
<path d="M1682 1130 c0 -14 2 -19 5 -12 2 6 2 18 0 25 -3 6 -5 1 -5 -13z"/>
<path d="M1594 1090 c0 -13 4 -16 10 -10 7 7 7 13 0 20 -6 6 -10 3 -10 -10z"/>
<path d="M240 1076 c0 -8 5 -18 10 -21 6 -3 10 3 10 14 0 12 -4 21 -10 21 -5
0 -10 -6 -10 -14z"/>
<path d="M1717 944 c-4 -38 -7 -89 -6 -114 0 -41 1 -43 11 -20 6 14 10 30 9
36 0 6 15 22 34 35 24 17 35 32 35 49 0 14 7 35 15 47 14 20 14 21 -26 12 -34
-8 -43 -7 -54 7 -10 14 -13 6 -18 -52z"/>
<path d="M6990 973 c-33 -4 -50 -17 -50 -38 0 -5 29 -30 64 -55 36 -25 67 -53
69 -63 9 -32 34 -7 71 73 20 44 36 82 36 85 0 6 -135 4 -190 -2z"/>
<path d="M203 950 c-13 -5 -23 -12 -23 -16 0 -4 19 -32 42 -61 33 -43 46 -53
62 -49 12 3 27 6 34 6 21 0 13 21 -24 64 -19 22 -39 47 -45 54 -11 14 -16 14
-46 2z"/>
<path d="M6706 938 c-14 -46 -24 -109 -24 -142 0 -29 4 -40 19 -43 35 -10 19
-38 -44 -78 -111 -70 -119 -79 -154 -183 -25 -72 -30 -98 -22 -109 17 -20 35
-16 62 12 23 25 24 25 61 10 21 -9 50 -15 65 -13 25 3 25 4 -16 31 -24 15 -50
27 -58 27 -8 0 -21 11 -27 25 -10 21 -8 30 8 53 11 15 35 34 52 43 17 9 29 19
26 22 -15 15 24 49 98 87 l83 43 72 -44 c39 -24 69 -47 67 -51 -3 -4 -2 -8 3
-8 4 0 20 20 35 45 17 28 35 45 46 45 30 0 100 -27 129 -50 14 -11 36 -20 49
-20 12 0 29 -7 38 -15 23 -23 26 -19 26 39 0 63 -2 65 -95 63 -68 0 -75 2
-191 84 -47 32 -87 59 -89 59 -2 0 -5 -12 -7 -27 -4 -30 -49 -68 -72 -60 -33
13 -13 111 26 126 22 8 22 9 -9 25 -39 20 -152 22 -157 4z m100 -159 c7 -13
-9 -26 -44 -35 -32 -9 -39 2 -17 26 20 22 50 26 61 9z"/>
<path d="M370 908 c0 -7 10 -22 22 -32 21 -18 22 -18 35 0 16 22 17 34 1 34
-7 0 -23 3 -35 6 -16 4 -23 2 -23 -8z"/>
<path d="M1300 859 c0 -8 7 -24 15 -35 19 -25 19 -14 0 22 -8 16 -15 22 -15
13z"/>
<path d="M1770 779 c0 -5 5 -7 10 -4 6 3 10 8 10 11 0 2 -4 4 -10 4 -5 0 -10
-5 -10 -11z"/>
<path d="M5686 775 c-67 -24 -62 -33 16 -27 40 2 74 6 76 7 1 1 0 10 -4 19 -7
19 -36 20 -88 1z"/>
<path d="M1729 772 c-11 -2 -15 -10 -12 -22 5 -17 7 -18 20 -5 18 18 14 32 -8
27z"/>
<path d="M1768 702 c-16 -10 -28 -25 -28 -35 0 -22 18 -57 28 -57 16 0 52 41
52 60 0 17 -4 18 -27 10 -26 -9 -27 -9 -9 5 11 8 23 15 28 15 4 0 8 5 8 10 0
14 -20 11 -52 -8z"/>
<path d="M937 693 c-2 -5 -7 -21 -11 -36 -4 -15 -10 -26 -15 -23 -4 3 -8 -7
-9 -22 0 -16 -8 -47 -18 -71 -12 -31 -14 -45 -5 -54 8 -8 11 -8 11 1 0 7 6 12
14 12 16 0 32 64 39 148 4 51 3 60 -6 45z"/>
<path d="M912 670 c0 -14 2 -19 5 -12 2 6 2 18 0 25 -3 6 -5 1 -5 -13z"/>
<path d="M5105 663 c11 -2 45 -13 75 -22 55 -19 100 -23 100 -10 0 4 -22 10
-50 14 -27 4 -52 11 -56 16 -3 5 -24 8 -47 8 -23 -1 -33 -3 -22 -6z"/>
<path d="M6352 641 c4 -13 18 -16 19 -4 0 4 -5 9 -11 12 -7 2 -11 -2 -8 -8z"/>
<path d="M4665 610 c-17 -6 -15 -8 15 -15 27 -6 31 -9 17 -14 -34 -12 -22 -24
27 -28 37 -4 47 -1 44 9 -3 7 1 19 9 26 7 8 11 18 8 23 -7 10 -91 10 -120 -1z"/>
<path d="M4834 608 c-3 -5 2 -15 11 -22 17 -12 17 -13 1 -19 -25 -10 -12 -24
30 -32 20 -3 47 -13 60 -22 13 -8 27 -12 32 -9 11 6 58 -41 50 -50 -4 -3 -15
-1 -25 4 -10 5 -40 13 -68 17 -27 5 -57 9 -65 11 -8 1 -62 6 -120 12 -58 5
-112 11 -120 13 -10 3 -16 -5 -18 -23 -5 -43 -129 -138 -212 -163 -14 -4 -32
-13 -40 -20 -8 -7 -49 -30 -90 -52 -41 -22 -95 -58 -119 -82 -25 -23 -51 -39
-59 -36 -7 2 -10 0 -7 -5 3 -6 -1 -10 -10 -10 -12 0 -15 5 -11 16 4 10 1 14
-6 12 -7 -3 -13 -13 -13 -24 0 -10 -7 -19 -15 -19 -18 0 -33 -13 -49 -43 -7
-13 -26 -28 -42 -34 -16 -5 -29 -14 -29 -19 0 -5 373 -9 903 -9 586 0 897 4
887 10 -8 5 -37 10 -64 10 -40 0 -47 3 -42 16 7 18 -19 54 -39 54 -7 0 -25 12
-40 26 l-28 26 7 108 6 109 -34 6 c-18 4 -72 2 -119 -4 -88 -10 -161 -5 -151
11 3 5 13 7 21 4 12 -5 45 6 61 19 6 5 -22 49 -39 62 -9 7 -19 23 -23 37 -5
20 -13 25 -49 27 -24 2 -51 3 -60 1 -21 -4 -22 -22 -1 -22 10 0 13 -6 9 -19
-3 -12 0 -21 9 -24 11 -4 13 -1 9 10 -5 13 -3 14 15 4 12 -6 19 -17 16 -25 -7
-17 -89 -20 -102 -3 -17 22 -23 65 -9 70 7 3 1 9 -15 15 -14 6 -29 16 -33 22
-3 5 -10 8 -15 5 -5 -3 -11 -1 -14 4 -4 5 18 7 50 5 64 -4 80 1 63 22 -6 7
-15 12 -19 9 -4 -2 -22 0 -41 6 -45 15 -177 20 -185 7z m66 -33 c-7 -9 -15
-13 -17 -11 -7 7 7 26 19 26 6 0 6 -6 -2 -15z"/>
<path d="M5288 578 c-2 -35 1 -47 20 -62 19 -15 28 -17 48 -7 46 21 21 91 -27
76 -19 -6 -21 -4 -16 14 3 14 0 21 -8 21 -9 0 -15 -15 -17 -42z"/>
<path d="M4535 600 c-3 -5 -2 -10 4 -10 5 0 13 5 16 10 3 6 2 10 -4 10 -5 0
-13 -4 -16 -10z"/>
<path d="M4490 591 c0 -6 -3 -10 -7 -10 -23 4 -33 -3 -33 -21 0 -11 -7 -20
-16 -20 -8 0 -12 -5 -9 -11 4 -6 -2 -13 -14 -16 -12 -3 -21 -12 -21 -19 0 -8
-5 -14 -11 -14 -27 0 -45 -41 -41 -92 2 -23 13 -23 40 2 12 11 24 20 27 20 4
0 25 16 48 35 22 19 51 35 64 35 14 0 23 6 23 15 0 8 4 15 9 15 14 0 23 32 11
44 -7 7 -10 6 -10 -2 0 -20 -29 -1 -32 21 -3 21 -28 37 -28 18z m5 -57 c-9 -9
-19 -13 -23 -10 -3 4 0 11 8 16 24 15 33 11 15 -6z"/>
<path d="M5190 565 c-7 -9 -8 -15 -2 -15 5 0 12 7 16 15 3 8 4 15 2 15 -2 0
-9 -7 -16 -15z"/>
<path d="M5138 558 c9 -9 15 -9 24 0 9 9 7 12 -12 12 -19 0 -21 -3 -12 -12z"/>
<path d="M0 475 c0 -19 4 -35 9 -35 5 0 16 -3 25 -6 23 -9 21 38 -2 59 -27 24
-32 21 -32 -18z"/>
<path d="M5550 500 c-12 -7 -7 -10 18 -11 17 -1 37 -2 44 -3 6 -1 13 5 16 12
5 15 -55 17 -78 2z"/>
<path d="M705 460 c-3 -5 -2 -10 4 -10 5 0 13 5 16 10 3 6 2 10 -4 10 -5 0
-13 -4 -16 -10z"/>
<path d="M1434 418 c3 -17 6 -34 6 -39 0 -5 8 -9 19 -9 14 0 17 6 13 25 -2 15
-9 22 -16 18 -6 -4 -6 0 2 9 10 13 9 16 -9 21 -19 5 -21 3 -15 -25z"/>
<path d="M1770 429 c0 -8 7 -24 16 -35 14 -18 15 -18 8 6 -8 31 -24 50 -24 29z"/>
<path d="M750 393 c0 -17 18 -16 35 1 12 12 11 14 -10 12 -14 0 -25 -7 -25
-13z"/>
<path d="M1529 393 c-1 -5 -1 -11 0 -15 0 -5 -3 -8 -9 -8 -5 0 -10 -12 -9 -27
0 -25 1 -26 9 -8 5 11 9 15 9 8 1 -6 4 -19 8 -29 4 -12 3 -15 -5 -10 -7 4 -12
3 -12 -2 0 -6 7 -12 15 -16 9 -3 15 -18 15 -35 0 -16 -6 -31 -15 -35 -8 -3
-16 -16 -16 -28 -1 -17 -2 -18 -6 -5 -6 21 -33 23 -33 1 0 -8 4 -13 9 -9 5 3
11 -5 13 -17 4 -28 44 -35 71 -14 18 14 17 18 -8 121 -15 58 -24 113 -21 120
3 8 1 15 -4 15 -6 0 -11 -3 -11 -7z"/>
<path d="M1647 386 c-3 -8 1 -17 9 -20 8 -3 14 1 14 9 0 20 -17 28 -23 11z"/>
<path d="M6360 380 c0 -5 7 -10 16 -10 8 0 12 5 9 10 -3 6 -10 10 -16 10 -5 0
-9 -4 -9 -10z"/>
<path d="M280 290 c-25 -16 -50 -30 -56 -30 -7 0 -14 -12 -17 -26 -4 -21 5
-37 46 -82 53 -58 115 -107 125 -97 3 3 0 5 -6 5 -25 0 -10 29 38 72 64 58 64
79 -2 157 -34 40 -69 40 -128 1z"/>
<path d="M6550 285 c7 -8 22 -15 34 -15 21 1 21 1 2 15 -27 21 -53 20 -36 0z"/>
<path d="M1824 254 c3 -9 6 -20 6 -25 0 -5 5 -9 10 -9 6 0 10 11 10 25 0 16
-6 25 -16 25 -11 0 -14 -5 -10 -16z"/>
<path d="M930 175 c0 -9 -17 -32 -37 -50 -31 -28 -34 -35 -19 -35 11 0 34 5
51 11 28 11 32 16 31 47 -1 34 -26 60 -26 27z"/>
<path d="M6502 178 c6 -18 28 -21 28 -4 0 9 -7 16 -16 16 -9 0 -14 -5 -12 -12z"/>
<path d="M5646 111 c-16 -31 -23 -52 -16 -56 5 -3 10 -1 10 5 0 7 6 8 19 0 11
-5 29 -10 41 -10 16 0 21 5 18 22 -3 21 1 23 69 26 65 3 72 1 87 -20 15 -21
16 -21 16 -3 0 11 -8 30 -18 43 -16 20 -22 22 -46 13 -41 -16 -78 -13 -106 9
-14 11 -30 20 -36 20 -6 0 -23 -22 -38 -49z"/>
<path d="M1460 115 c-25 -65 -23 -69 25 -92 25 -12 45 -19 45 -15 -1 23 -39
127 -49 130 -6 2 -15 -8 -21 -23z"/>
<path d="M3978 133 c7 -3 16 -2 19 1 4 3 -2 6 -13 5 -11 0 -14 -3 -6 -6z"/>
<path d="M1871 74 c0 -11 3 -14 6 -6 3 7 2 16 -1 19 -3 4 -6 -2 -5 -13z"/>
<path d="M1655 70 c-8 -12 5 -60 16 -60 5 0 9 16 9 35 0 33 -12 46 -25 25z"/>
<path d="M0 35 l0 -35 56 0 57 0 -39 35 c-21 19 -46 35 -56 35 -14 0 -18 -8
-18 -35z"/>
<path d="M6132 48 c7 -19 38 -22 38 -4 0 10 -9 16 -21 16 -12 0 -19 -5 -17
-12z"/>
<path d="M1551 43 c0 -4 4 -17 9 -28 8 -19 9 -19 9 2 1 12 -3 25 -9 28 -5 3
-10 3 -9 -2z"/>
</g>
</svg>
