<?xml version="1.0" standalone="no"?>
<!DOCTYPE svg PUBLIC "-//W3C//DTD SVG 20010904//EN"
 "http://www.w3.org/TR/2001/REC-SVG-20010904/DTD/svg10.dtd">
<svg version="1.0" xmlns="http://www.w3.org/2000/svg"
 width="1024.000000pt" height="682.000000pt" viewBox="0 0 1024.000000 682.000000"
 preserveAspectRatio="xMidYMid meet">

<g transform="translate(0.000000,682.000000) scale(0.100000,-0.100000)"
fill="#000000" stroke="none">
<path d="M1450 6770 c11 -27 29 -73 41 -102 11 -28 29 -88 39 -131 13 -55 28
-89 45 -107 46 -48 58 -109 45 -230 -12 -114 -6 -155 63 -425 14 -55 31 -126
37 -157 9 -44 16 -58 29 -58 9 0 22 -5 27 -10 8 -8 21 -2 44 20 18 17 25 28
16 24 -9 -3 -16 -1 -16 5 0 6 10 11 23 11 15 0 18 3 9 8 -21 14 19 41 77 52
29 5 58 13 64 17 7 4 19 8 27 10 8 1 16 7 18 12 2 6 12 11 22 11 10 0 31 5 47
12 15 6 31 11 36 10 4 -1 7 2 7 8 0 5 7 7 15 4 8 -4 15 -1 15 4 0 6 11 1 25
-12 17 -16 25 -34 25 -56 0 -39 19 -99 38 -119 12 -12 15 -12 22 -1 23 37 23
277 0 320 -5 10 -10 34 -10 53 0 19 -7 51 -15 70 -17 41 -16 43 35 152 21 44
52 124 69 178 26 81 31 114 31 193 0 70 5 106 18 137 13 29 17 58 14 95 l-4
52 -499 0 -499 0 20 -50z m218 -272 c3 -31 2 -32 -14 -16 -14 14 -15 20 -4 32
16 21 15 21 18 -16z"/>
<path d="M6220 6792 c0 -23 8 -33 38 -49 20 -11 36 -25 35 -31 -5 -19 31 -14
54 7 12 11 23 18 25 16 2 -3 14 16 26 40 l22 45 -100 0 -100 0 0 -28z"/>
<path d="M6550 6814 c0 -35 81 -81 160 -90 37 -5 57 0 110 26 35 18 75 40 88
51 25 19 23 19 -167 19 -105 0 -191 -3 -191 -6z"/>
<path d="M7009 6808 c-1 -22 -6 -41 -29 -113 -13 -44 -23 -108 -27 -170 -2
-55 -9 -113 -15 -128 -11 -27 -13 -28 -62 -22 -96 12 -111 16 -153 36 -32 15
-53 19 -81 14 -46 -7 -74 14 -52 40 11 13 8 17 -18 26 -20 7 -29 15 -25 25 4
10 0 12 -11 8 -11 -4 -60 14 -124 44 -105 50 -203 78 -188 54 4 -7 20 -12 36
-12 15 0 36 -3 46 -7 16 -6 16 -7 -1 -13 -15 -5 -7 -12 37 -33 31 -15 63 -27
71 -27 14 0 69 -39 56 -40 -4 0 -23 7 -42 15 -59 24 -64 17 -13 -16 34 -21 45
-34 38 -41 -7 -7 -17 -6 -32 2 -21 11 -22 10 -17 -10 4 -14 2 -20 -6 -17 -7 2
-46 19 -89 37 -72 31 -76 35 -73 62 3 22 0 28 -15 28 -13 0 -20 -7 -20 -20 0
-23 -20 -25 -99 -10 -29 5 -98 12 -154 14 -102 4 -107 3 -54 -9 24 -5 27 -8
16 -21 -14 -17 -85 -11 -130 10 -20 10 -36 10 -74 0 -51 -12 -89 -9 -64 7 18
11 -101 3 -151 -11 -55 -15 -51 -24 8 -16 l47 6 -39 -35 c-50 -45 -113 -75
-157 -75 -22 0 -56 -13 -91 -34 -49 -29 -91 -47 -123 -51 -88 -13 -143 -43
-170 -94 -8 -16 -28 -34 -45 -41 -17 -7 -29 -18 -27 -24 6 -17 -12 -46 -28
-46 -8 0 -15 -6 -15 -14 0 -7 -9 -25 -20 -39 -11 -14 -22 -45 -25 -69 -4 -26
-17 -57 -33 -78 -16 -19 -36 -56 -46 -82 -10 -26 -22 -50 -27 -53 -5 -4 -9
-20 -9 -36 0 -17 -6 -32 -15 -35 -8 -4 -15 -18 -15 -34 0 -16 -7 -36 -16 -44
-21 -22 -15 -62 10 -58 42 8 64 -7 82 -55 9 -27 26 -58 37 -70 23 -26 72 -31
81 -8 3 8 18 20 33 26 27 10 27 11 9 25 -11 8 -16 14 -10 15 5 0 -1 4 -13 9
-28 11 -30 30 -5 30 11 0 27 9 37 20 10 11 30 20 45 20 22 0 37 12 71 57 30
38 40 58 31 61 -10 3 -10 7 -1 18 6 7 9 20 6 28 -11 29 57 96 141 140 15 8 41
26 57 40 17 14 46 28 65 31 19 3 53 10 75 15 l40 9 -43 -4 c-30 -4 -41 -2 -40
7 2 7 10 16 18 20 8 4 -4 7 -27 7 -85 2 -41 30 94 61 95 23 156 18 287 -22 85
-26 74 -34 -59 -43 -55 -3 -111 -9 -125 -12 -55 -12 12 -19 108 -10 165 13
233 13 342 -1 106 -13 119 -17 223 -67 118 -58 188 -218 171 -395 -8 -95 -6
-154 7 -202 5 -21 7 -43 4 -48 -3 -6 -49 -10 -101 -10 -92 0 -154 -16 -154
-40 0 -4 -17 -16 -39 -26 -46 -20 -69 -56 -75 -117 -4 -43 -2 -49 31 -77 19
-17 32 -34 29 -37 -12 -13 32 -66 89 -106 33 -23 83 -65 111 -92 l51 -50 6
-85 c5 -75 3 -90 -16 -125 -12 -22 -26 -42 -32 -44 -5 -2 -22 -16 -37 -31 -15
-15 -30 -25 -33 -22 -3 3 -5 0 -5 -5 0 -6 -8 -10 -17 -9 -10 2 -16 5 -13 7 2
2 -9 24 -26 49 -17 25 -41 73 -53 107 -25 67 -71 124 -71 87 0 -28 -25 -61
-34 -46 -12 19 -72 14 -118 -10 l-43 -23 30 -3 c17 -2 34 -7 39 -12 4 -4 27 0
49 10 23 10 44 17 48 15 3 -3 14 -26 24 -52 10 -26 21 -50 25 -53 18 -13 41
-74 42 -115 2 -48 -24 -97 -57 -103 -15 -3 -17 1 -11 30 8 46 -5 62 -42 55
-24 -5 -38 0 -73 28 -25 19 -61 37 -84 41 -22 3 -45 11 -52 16 -6 5 -32 11
-58 13 -40 4 -46 2 -43 -13 2 -9 29 -29 63 -46 33 -15 67 -32 75 -37 8 -5 23
-12 33 -16 30 -9 17 -47 -18 -54 -16 -4 -24 -7 -17 -8 6 0 12 -8 12 -16 0 -8
7 -15 15 -15 11 0 12 -6 6 -22 -15 -40 -53 -59 -134 -67 -41 -4 -74 -4 -72 -1
2 3 -17 6 -41 7 -24 1 -44 -1 -44 -5 0 -3 19 -22 42 -42 35 -31 49 -37 95 -39
50 -2 54 0 71 28 9 17 34 38 54 47 21 9 56 36 78 60 36 38 43 42 56 30 8 -8
14 -24 14 -35 0 -12 5 -21 10 -21 23 0 7 -46 -42 -116 -29 -42 -57 -82 -63
-91 -33 -49 -114 -124 -140 -131 -46 -11 -354 -2 -392 12 -19 6 -23 4 -23 -12
0 -11 7 -25 15 -32 8 -7 15 -18 15 -24 0 -20 63 -44 105 -40 47 4 128 25 135
34 3 4 28 10 57 14 l52 7 7 -36 c9 -50 -3 -104 -34 -150 -15 -22 -29 -42 -32
-45 -3 -3 -22 -30 -42 -60 -43 -65 -69 -90 -123 -119 l-40 -21 78 0 c46 0 108
8 153 20 42 11 81 22 87 23 6 1 14 -14 17 -33 3 -23 8 -31 13 -22 15 22 24 12
42 -48 21 -70 16 -151 -13 -190 -10 -14 -38 -35 -63 -48 -117 -62 -336 16
-465 166 -42 48 -104 135 -104 146 0 5 90 -42 107 -56 8 -6 12 -20 10 -30 -7
-25 23 -44 108 -70 57 -17 86 -19 159 -15 89 6 106 13 106 48 0 14 -8 16 -46
11 -71 -8 -266 39 -338 82 -23 14 -69 49 -103 80 -63 55 -105 73 -143 61 -39
-12 -24 -52 53 -143 40 -48 88 -107 107 -132 84 -112 185 -179 325 -215 77
-20 79 -21 87 -55 4 -19 10 -129 13 -245 3 -115 7 -265 10 -332 5 -120 5 -122
-17 -125 -20 -3 -23 -9 -22 -42 1 -23 8 -44 17 -51 19 -14 50 -157 45 -211 -3
-36 -6 -39 -36 -42 -21 -2 -34 2 -38 11 -15 39 -41 223 -33 233 5 6 6 28 1 50
-9 43 -11 43 -114 28 -35 -5 -37 -8 -32 -32 4 -15 17 -43 30 -63 13 -19 24
-46 24 -60 0 -13 7 -62 16 -109 14 -72 22 -91 52 -122 34 -36 39 -38 91 -35
l55 2 8 -50 c4 -27 16 -117 28 -200 11 -82 41 -255 66 -383 l45 -233 42 -39
c65 -61 66 -38 8 216 -55 239 -80 383 -107 600 -16 125 -16 143 -3 162 14 19
13 32 -8 134 -16 77 -22 128 -17 160 4 34 1 57 -11 80 -17 35 -21 87 -30 473
-3 116 -6 218 -8 228 -1 15 11 23 61 38 80 25 134 76 150 142 18 70 14 171 -9
249 -11 39 -19 71 -17 73 2 1 23 13 48 25 25 13 65 36 88 52 39 27 153 78 173
78 4 0 15 -7 24 -16 9 -9 23 -13 32 -9 15 5 15 7 3 15 -16 10 -12 12 34 14 20
1 30 -3 34 -16 6 -24 32 -23 32 2 0 12 7 20 16 20 9 0 14 -6 11 -13 -3 -8 5
-26 18 -41 31 -36 60 -27 107 34 22 28 49 51 65 55 43 10 75 34 69 52 -11 28
6 36 25 12 22 -30 33 -20 34 31 0 22 1 40 3 40 2 0 17 -15 33 -32 l30 -33 -2
75 c-1 41 4 89 10 105 7 17 14 90 15 170 3 151 8 175 37 175 21 0 20 -3 49
207 14 102 17 150 10 168 -18 47 -13 83 12 87 19 3 20 5 7 18 -8 8 -16 30 -17
49 -2 31 -1 33 22 27 20 -5 33 1 62 30 l37 35 -6 120 c-3 65 -5 119 -3 119 2
0 20 -13 41 -30 46 -37 63 -39 41 -5 -13 20 -14 26 -4 30 24 9 49 -1 75 -31
56 -62 68 -77 56 -70 -7 4 -13 3 -13 -3 0 -5 14 -18 30 -28 34 -20 36 -25 45
-113 10 -96 22 -136 49 -153 13 -9 27 -13 30 -9 13 12 99 41 108 36 4 -3 8
-17 8 -32 0 -38 42 -63 80 -49 33 13 60 4 60 -21 0 -10 -38 -53 -85 -96 -47
-42 -83 -81 -81 -85 9 -15 16 -71 9 -69 -5 2 -9 -1 -10 -7 -4 -13 20 -13 30 0
6 7 10 6 13 -2 3 -7 11 -10 18 -7 18 7 36 -67 36 -148 1 -35 5 -82 9 -106 7
-38 5 -47 -19 -80 -35 -47 -188 -202 -199 -202 -15 0 -29 24 -45 79 -21 72
-20 117 3 149 21 30 52 99 49 110 -4 13 25 87 44 114 11 16 16 33 12 39 -4 7
-3 9 3 6 6 -4 14 0 17 9 9 24 7 31 -4 14 -6 -10 -10 -11 -10 -3 0 10 -8 9 -32
-2 -18 -7 -64 -23 -103 -35 -89 -27 -189 -75 -240 -116 -22 -17 -54 -39 -72
-48 -21 -11 -30 -21 -27 -31 4 -8 9 -15 13 -15 15 0 39 -67 30 -81 -18 -28
-57 -145 -63 -187 -5 -34 -2 -52 16 -83 12 -21 31 -42 42 -45 12 -4 39 -22 60
-40 22 -19 43 -34 48 -34 22 0 159 -100 223 -163 40 -40 106 -104 147 -142 83
-81 118 -139 147 -245 27 -102 58 -261 66 -342 7 -65 8 -67 29 -56 36 20 118
47 191 63 38 9 93 29 122 45 38 22 66 30 100 30 26 0 82 5 124 12 l77 12 6 64
c4 35 4 98 0 140 l-7 77 -113 117 c-94 97 -119 130 -153 200 -43 89 -75 202
-86 308 -4 36 -14 77 -21 92 -8 15 -14 57 -14 95 0 37 -5 100 -11 138 -13 85
-13 125 2 236 10 79 9 95 -11 185 -13 55 -25 113 -27 130 -9 60 57 87 96 39
30 -39 50 -143 63 -332 10 -154 10 -182 -6 -270 -10 -54 -16 -116 -14 -138 l3
-40 55 -3 c45 -2 63 2 90 20 31 21 35 29 38 73 2 28 -2 74 -9 103 -23 96 11
83 84 -34 49 -77 147 -284 147 -309 0 -6 8 -20 19 -29 10 -9 24 -38 31 -64 7
-26 21 -61 31 -78 11 -17 19 -39 19 -48 0 -9 7 -19 16 -23 11 -4 12 -8 4 -13
-16 -10 -4 -31 14 -24 14 5 38 -14 63 -52 8 -13 22 -24 29 -24 8 0 14 -5 14
-11 0 -5 4 -8 9 -5 4 3 13 -5 19 -19 6 -13 40 -47 76 -75 36 -28 79 -73 96
-99 17 -26 46 -55 65 -65 19 -11 35 -23 35 -27 0 -9 117 -92 163 -115 18 -9
45 -27 60 -40 20 -17 41 -24 72 -24 24 0 87 -10 142 -21 144 -31 170 -33 211
-16 21 9 57 18 82 21 118 13 170 27 196 52 23 24 31 26 79 20 35 -4 78 0 122
10 63 14 102 14 161 -2 l22 -6 0 1390 0 1391 -42 11 c-24 6 -67 27 -95 46 -81
53 -82 89 -8 239 24 50 53 116 65 149 11 32 31 70 45 84 16 16 23 32 20 43 -3
9 -2 20 4 23 5 4 10 110 10 256 l2 250 -620 0 -619 0 -17 -37 c-15 -30 -16
-44 -7 -82 12 -53 5 -96 -38 -246 -5 -16 -11 -47 -14 -67 -10 -68 -27 -132
-38 -145 -16 -19 -52 -16 -66 7 -7 11 -18 20 -26 20 -12 0 -13 16 -9 83 2 45
0 102 -6 126 -7 34 -6 53 4 78 13 31 10 83 -10 163 -2 8 -4 34 -4 58 l-1 42
-75 0 -75 0 0 -42 c0 -24 5 -97 11 -163 6 -66 13 -163 15 -215 1 -52 7 -117
11 -145 17 -97 -24 -148 -196 -250 -126 -75 -166 -112 -217 -198 -18 -31 -52
-76 -74 -99 -36 -38 -44 -42 -87 -41 -31 0 -87 15 -158 42 -96 37 -123 43
-206 46 -54 2 -115 11 -140 20 -24 9 -64 18 -89 20 -63 5 -66 6 -152 53 -42
23 -80 42 -83 42 -4 0 -21 11 -38 24 -18 13 -49 29 -69 35 -132 43 -197 180
-107 227 47 24 163 -1 214 -46 11 -10 49 -28 85 -41 36 -12 74 -28 85 -35 25
-16 35 -10 64 40 33 59 51 115 51 169 0 65 -28 321 -41 377 -6 24 -12 65 -14
91 -6 93 5 89 -250 89 -173 0 -225 -3 -226 -12z m-1412 -304 c-3 -3 -12 -4
-19 -1 -8 3 -5 6 6 6 11 1 17 -2 13 -5z m522 -24 c63 -23 76 -33 68 -54 -7
-18 -31 -15 -150 20 -101 30 -112 38 -62 45 71 11 89 9 144 -11z m-657 -368
c18 -18 -3 -33 -53 -38 l-44 -4 35 16 c19 9 29 19 22 21 -16 6 -6 22 13 19 8
-1 21 -8 27 -14z m311 -53 c45 -10 93 -22 106 -25 39 -9 5 -23 -37 -16 -55 8
-166 50 -171 63 -2 7 1 9 8 5 7 -4 49 -16 94 -27z m-456 -85 c-3 -3 -12 -4
-19 -1 -8 3 -5 6 6 6 11 1 17 -2 13 -5z m-252 -54 c-3 -5 -13 -10 -21 -10 -8
0 -12 5 -9 10 3 6 13 10 21 10 8 0 12 -4 9 -10z m2343 -124 c12 -4 22 -12 22
-17 0 -6 6 -7 13 -3 9 5 9 4 1 -5 -19 -20 -74 -30 -154 -27 -86 3 -127 20 -93
40 34 20 167 28 211 12z m-1019 -615 c18 -12 7 -41 -16 -41 -18 1 -53 22 -53
33 0 3 10 8 23 10 12 2 24 5 27 5 3 1 11 -2 19 -7z m651 -78 c0 -25 0 -26 -20
-8 -11 10 -20 22 -20 27 0 4 9 8 20 8 15 0 20 -7 20 -27z m-757 -35 c9 -5 17
-15 17 -24 0 -12 -7 -13 -37 -7 -42 8 -72 9 -118 3 -46 -6 -42 13 7 31 43 17
95 16 131 -3z m-198 -38 c-3 -5 -11 -10 -16 -10 -6 0 -7 5 -4 10 3 6 11 10 16
10 6 0 7 -4 4 -10z m88 -26 c9 -9 -3 -34 -17 -34 -20 0 -39 17 -32 29 8 12 39
15 49 5z m-63 -14 c0 -5 -2 -10 -4 -10 -3 0 -8 5 -11 10 -3 6 -1 10 4 10 6 0
11 -4 11 -10z m1545 -140 c25 -28 25 -88 0 -106 -17 -12 -22 -11 -47 13 -30
29 -34 47 -18 87 12 31 40 34 65 6z m-740 0 c7 -12 -20 -42 -29 -33 -3 4 -6
15 -6 25 0 19 25 25 35 8z m-738 -1235 c0 -17 -13 -20 -21 -6 -4 5 0 12 6 14
7 3 13 6 14 6 0 1 1 -6 1 -14z m-847 -502 c0 -22 -80 49 -101 89 -7 13 13 -2
44 -32 32 -30 57 -56 57 -57z m330 -773 c6 -96 20 -275 31 -398 20 -232 23
-299 8 -197 -21 143 -49 495 -53 670 -5 206 -2 193 14 -75z m68 -770 c0 -16
-3 -10 -9 15 -4 22 -8 54 -7 70 0 22 3 19 9 -15 4 -25 7 -56 7 -70z m168 -675
c-3 -11 -37 127 -35 147 1 7 10 -21 20 -62 10 -41 17 -79 15 -85z"/>
<path d="M6197 6604 c-13 -14 5 -24 41 -24 l37 1 -34 14 c-39 17 -36 17 -44 9z"/>
<path d="M6556 6537 c3 -10 9 -15 12 -12 3 3 0 11 -7 18 -10 9 -11 8 -5 -6z"/>
<path d="M1745 5529 c-4 -6 -5 -12 -2 -15 2 -3 7 2 10 11 7 17 1 20 -8 4z"/>
<path d="M5435 5521 c-3 -6 16 -13 42 -16 27 -4 62 -13 80 -21 17 -8 36 -14
42 -14 6 0 11 -5 11 -11 0 -6 9 -9 20 -6 11 3 18 2 15 -3 -3 -4 27 -38 66 -74
61 -58 75 -67 102 -64 42 4 47 32 11 69 -15 16 -32 29 -38 29 -5 0 -19 9 -30
20 -12 10 -53 30 -91 44 -39 13 -88 31 -110 40 -45 17 -111 21 -120 7z"/>
<path d="M155 5429 c-4 -6 -5 -12 -2 -15 2 -3 7 2 10 11 7 17 1 20 -8 4z"/>
<path d="M2475 5421 c-10 -12 -25 -21 -34 -21 -9 0 -25 -7 -36 -16 -16 -12
-38 -13 -111 -8 -148 10 -147 3 20 -115 135 -95 162 -124 171 -177 5 -33 15
-47 60 -82 71 -55 100 -52 110 14 3 24 10 46 16 49 5 4 9 24 9 46 0 26 7 47
20 61 39 42 20 100 -37 112 -37 9 -48 20 -57 62 -6 28 -10 31 -44 30 -32 -1
-38 3 -52 32 -16 33 -16 33 -35 13z"/>
<path d="M5525 5339 c-93 -7 -164 -23 -153 -35 3 -2 16 0 29 4 53 20 123 22
173 4 68 -24 74 -44 9 -34 -88 13 -292 0 -305 -21 -12 -19 2 -25 73 -29 55 -3
75 -10 130 -44 68 -43 95 -53 172 -61 l48 -5 -2 34 c-2 18 2 42 8 53 30 58 -5
146 -57 144 -14 -1 -70 -5 -125 -10z m-43 -121 c-7 -7 -17 -6 -32 2 -17 9 -20
14 -9 20 17 11 55 -8 41 -22z"/>
<path d="M4697 5333 c-4 -3 -7 -13 -7 -21 0 -12 3 -12 15 -2 8 7 15 16 15 21
0 11 -14 12 -23 2z"/>
<path d="M4627 5217 c-21 -32 -22 -47 -2 -47 8 0 17 11 21 25 10 39 0 50 -19
22z"/>
<path d="M4660 5116 c0 -8 5 -18 10 -21 6 -3 10 1 10 9 0 8 -4 18 -10 21 -5 3
-10 -1 -10 -9z"/>
<path d="M5575 5100 l-20 -9 20 0 c11 0 27 4 35 9 13 9 13 10 0 9 -8 0 -24 -4
-35 -9z"/>
<path d="M5620 4692 c0 -5 26 -17 58 -26 31 -10 70 -22 85 -26 42 -13 32 20
-13 42 -36 18 -130 25 -130 10z"/>
<path d="M5301 4657 c-14 -6 -33 -28 -44 -47 l-19 -35 22 25 c12 14 34 35 48
47 31 25 28 28 -7 10z"/>
<path d="M1251 4641 c-21 -14 5 -24 42 -15 28 6 30 8 12 15 -27 10 -37 10 -54
0z"/>
<path d="M2923 4548 c-11 -18 -25 -54 -31 -80 -27 -105 -7 -165 66 -206 39
-21 42 -21 50 -5 5 10 7 82 4 160 -4 120 -7 142 -21 146 -9 3 -23 8 -32 11
-12 5 -22 -2 -36 -26z"/>
<path d="M5762 4562 c2 -12 15 -18 41 -20 49 -4 47 13 -4 26 -35 9 -40 8 -37
-6z"/>
<path d="M5277 4534 c-16 -16 -5 -42 33 -79 31 -30 43 -36 52 -27 9 9 8 12 -6
12 -13 0 -17 7 -14 28 2 21 9 28 31 30 39 5 33 18 -10 25 -21 3 -47 9 -58 12
-11 3 -24 3 -28 -1z"/>
<path d="M2408 4503 c-15 -19 -13 -56 4 -51 5 2 10 8 10 13 0 6 4 16 10 23 7
8 7 12 -1 12 -7 0 -9 5 -6 10 10 16 -1 11 -17 -7z"/>
<path d="M1944 4425 c-13 -20 -25 -25 -59 -25 -48 0 -55 -9 -55 -70 0 -46 17
-62 153 -144 53 -31 105 -68 116 -82 10 -13 25 -24 32 -24 7 0 32 -7 55 -16
l42 -16 35 32 c19 17 42 36 50 43 9 7 25 30 36 52 15 29 31 45 56 54 38 13 58
41 49 65 -4 9 -2 22 3 29 26 36 -10 82 -47 60 -10 -7 -25 -10 -32 -8 -7 3 -39
7 -71 8 -40 2 -61 8 -70 20 -12 18 -63 28 -214 41 -59 5 -64 4 -79 -19z m0
-70 c10 -39 -28 -86 -56 -69 -5 4 -7 20 -4 37 12 57 49 77 60 32z"/>
<path d="M5400 4400 c0 -5 7 -10 15 -10 8 0 15 5 15 10 0 6 -7 10 -15 10 -8 0
-15 -4 -15 -10z"/>
<path d="M5480 4362 c0 -8 73 -42 90 -42 6 0 10 4 10 9 0 5 3 18 6 28 5 17 5
17 -6 1 -14 -22 -58 -24 -66 -3 -6 15 -34 21 -34 7z"/>
<path d="M4625 4199 c-24 -22 -35 -40 -35 -59 0 -38 55 -193 90 -255 29 -51
181 -238 216 -265 24 -19 22 -16 -77 107 -92 114 -139 191 -143 235 -2 19 -15
57 -30 86 -14 28 -26 61 -26 72 0 11 18 38 40 60 22 22 40 42 40 45 0 16 -44
1 -75 -26z"/>
<path d="M2601 4184 c-25 -32 -26 -38 -6 -54 18 -15 78 -5 100 17 20 20 16 45
-9 49 -11 2 -30 5 -42 8 -17 5 -28 -1 -43 -20z"/>
<path d="M2836 4171 c-3 -5 1 -12 10 -15 21 -8 56 3 49 15 -8 12 -52 12 -59 0z"/>
<path d="M2963 4078 c-6 -7 -18 -41 -27 -76 -27 -106 -18 -202 18 -202 27 0
137 -94 143 -122 4 -21 17 -33 58 -52 70 -32 145 -101 145 -133 0 -30 -22 -39
-52 -20 -145 90 -158 100 -156 124 3 20 -4 27 -34 38 -21 7 -56 29 -77 48 -49
44 -78 60 -97 53 -21 -8 -17 -30 11 -72 14 -20 25 -50 25 -66 0 -18 6 -31 18
-35 9 -3 42 -32 72 -63 42 -44 73 -65 132 -90 l76 -33 159 76 c87 41 167 77
177 79 36 6 26 25 -36 69 -81 56 -153 123 -190 176 -23 35 -28 49 -23 77 6 32
4 35 -55 75 -33 23 -78 47 -98 54 -23 7 -44 24 -57 44 -13 22 -33 36 -58 43
-21 6 -44 13 -51 16 -7 3 -18 -1 -23 -8z"/>
<path d="M4537 3892 c-10 -10 -17 -27 -17 -37 0 -23 12 -11 28 28 14 32 11 34
-11 9z"/>
<path d="M2002 3688 c-7 -13 -18 -48 -27 -78 -8 -30 -26 -86 -40 -125 -13 -38
-25 -82 -25 -97 0 -18 -9 -33 -24 -43 -21 -14 -25 -26 -30 -103 -3 -48 -8
-235 -11 -417 -4 -181 -8 -367 -10 -413 -3 -63 -1 -81 8 -75 9 5 9 3 1 -8 -14
-18 -16 -182 -2 -190 7 -4 7 -13 0 -26 -6 -11 -8 -30 -5 -42 3 -12 -1 -36 -10
-54 -13 -28 -21 -61 -43 -174 l-4 -21 365 1 c228 1 367 6 373 12 26 28 90 225
127 395 14 63 39 167 55 230 15 63 31 141 34 172 4 39 19 83 48 139 34 66 42
95 49 162 9 103 16 133 42 176 19 31 19 38 8 105 -7 39 -15 109 -18 156 -4 64
-10 92 -26 114 l-21 29 -30 -64 c-38 -78 -64 -92 -123 -64 -25 12 -65 20 -115
21 -80 2 -120 12 -196 46 -24 11 -54 20 -65 21 -21 1 -57 27 -40 27 4 1 -4 7
-19 15 -16 9 -29 27 -33 46 -4 16 -13 33 -21 36 -7 2 -16 13 -19 24 -4 10 -13
19 -21 19 -8 0 -14 5 -14 10 0 6 -6 10 -13 10 -7 0 -28 11 -47 25 -41 31 -44
31 -58 3z m77 -970 c-1 -18 2 -49 5 -68 4 -25 3 -28 -2 -10 -6 20 -14 25 -37
23 -16 -1 -32 -8 -37 -15 -5 -9 -8 -3 -8 15 0 25 -3 27 -42 29 l-43 1 43 4
c33 3 42 8 42 23 0 14 9 20 38 23 20 2 38 4 40 5 1 1 2 -13 1 -30z m28 -90
c-3 -7 -5 -2 -5 12 0 14 2 19 5 13 2 -7 2 -19 0 -25z m-50 -42 c-22 -17 -22
-46 -1 -46 14 0 14 -2 3 -16 -12 -14 -14 -13 -21 7 -5 12 -6 37 -2 55 4 22 2
34 -5 34 -6 0 -8 -6 -5 -14 3 -8 1 -16 -4 -20 -5 -3 -7 5 -6 17 1 12 3 27 3
34 1 7 13 1 28 -13 26 -24 27 -27 10 -38z m103 24 c0 -5 -9 -10 -20 -10 -11 0
-20 5 -20 10 0 6 9 10 20 10 11 0 20 -4 20 -10z m-50 -40 c9 13 11 13 20 0 9
-13 11 -13 20 0 5 8 10 11 10 5 0 -5 -5 -17 -11 -25 -8 -11 -12 -12 -16 -2 -8
20 -23 14 -24 -10 0 -13 -3 -17 -6 -10 -2 6 -8 10 -11 8 -4 -2 -8 7 -9 21 -1
19 1 22 8 12 8 -12 11 -12 19 1z m10 -117 c0 -4 -5 -2 -12 5 -7 7 -26 13 -42
13 -24 1 -26 3 -8 6 12 2 22 9 22 16 0 6 9 1 20 -11 11 -12 20 -25 20 -29z m0
-68 c0 -3 -9 -5 -20 -5 -15 0 -20 7 -20 25 l0 25 20 -20 c11 -11 20 -22 20
-25z m-103 3 c-3 -7 -5 -2 -5 12 0 14 2 19 5 13 2 -7 2 -19 0 -25z m-139 -77
c-1 -16 -5 -28 -9 -26 -6 5 0 55 7 55 3 0 3 -13 2 -29z m98 9 c0 -12 -4 -16
-9 -11 -5 5 -6 14 -3 20 10 15 12 14 12 -9z m140 8 c3 -4 14 -8 25 -8 11 0 19
-7 19 -16 0 -11 -5 -14 -16 -10 -9 3 -20 6 -25 6 -6 0 -7 6 -3 13 4 6 4 9 -1
5 -4 -4 -15 -2 -24 4 -9 7 -13 8 -9 4 4 -5 3 -15 -3 -22 -6 -8 -9 -20 -6 -27
3 -7 -2 -22 -10 -32 -13 -16 -14 -17 -10 -3 3 10 3 20 -2 22 -11 7 -10 -27 2
-42 6 -7 11 -25 12 -40 2 -15 6 -36 11 -47 7 -18 6 -18 -9 -7 -9 8 -19 22 -22
33 -4 10 -12 19 -20 19 -7 0 -16 10 -18 23 -3 18 -5 17 -6 -7 -1 -26 -3 -28
-31 -22 -17 3 -30 1 -30 -4 0 -6 8 -10 18 -10 10 0 27 -7 38 -15 16 -13 16
-14 2 -9 -14 5 -18 1 -18 -19 l0 -26 -52 19 c-39 14 -55 15 -60 7 -5 -7 -8 -1
-8 14 0 15 -3 41 -6 58 -4 20 -3 31 5 31 6 0 11 -17 11 -42 0 -47 11 -46 12 1
1 33 20 57 38 46 5 -3 10 1 10 9 0 8 4 18 10 21 5 3 7 0 4 -8 -3 -8 -1 -18 5
-22 7 -3 11 2 11 14 0 14 6 21 20 21 15 0 20 7 20 25 0 18 5 25 20 25 11 0 20
7 20 15 0 12 9 15 36 13 19 -1 38 -6 40 -10z m-13 -66 c-13 -76 -20 -86 -18
-22 3 75 2 73 14 65 5 -3 7 -22 4 -43z m-216 -8 c-3 -3 -12 -4 -19 -1 -8 3 -5
6 6 6 11 1 17 -2 13 -5z m246 -59 c4 -8 3 -16 -1 -19 -4 -3 -9 4 -9 15 -2 23
3 25 10 4z m-173 -111 c0 -8 -19 -13 -24 -6 -3 5 1 9 9 9 8 0 15 -2 15 -3z
m-112 -93 c-1 -16 -5 -28 -9 -26 -6 5 0 55 7 55 3 0 3 -13 2 -29z m25 -88 c-7
-2 -19 -2 -25 0 -7 3 -2 5 12 5 14 0 19 -2 13 -5z"/>
<path d="M1895 2210 c-4 -6 -3 -16 3 -22 6 -6 12 -6 17 2 4 6 3 16 -3 22 -6 6
-12 6 -17 -2z"/>
<path d="M4914 3558 c-4 -6 5 -22 20 -37 22 -21 28 -23 35 -12 12 20 5 34 -24
48 -17 7 -27 8 -31 1z"/>
<path d="M6285 3560 c3 -5 8 -10 11 -10 2 0 4 5 4 10 0 6 -5 10 -11 10 -5 0
-7 -4 -4 -10z"/>
<path d="M6837 2313 c-21 -3 -27 -9 -23 -20 3 -8 6 -20 6 -27 0 -7 11 -25 24
-39 13 -14 27 -40 31 -57 5 -25 11 -31 28 -28 18 2 22 9 20 38 -2 19 -4 59 -5
87 -3 58 -3 57 -81 46z"/>
<path d="M6551 2293 l-63 -4 6 -37 c3 -20 13 -42 21 -48 22 -16 61 -223 46
-246 -8 -12 -8 -25 0 -45 l11 -28 44 48 c31 34 44 58 44 78 0 28 1 29 51 29
l51 0 -7 48 c-4 26 -9 51 -12 56 -3 5 -27 6 -53 3 -43 -5 -49 -4 -54 16 -13
49 -11 50 69 42 l75 -7 0 25 c0 14 -4 37 -10 51 -9 25 -13 26 -82 24 -40 -1
-102 -3 -137 -5z"/>
<path d="M6015 2271 c-23 -3 -40 -11 -39 -18 1 -7 2 -22 3 -33 0 -10 10 -28
21 -38 12 -11 23 -37 26 -58 l6 -39 -44 45 c-24 25 -57 62 -73 83 l-30 38 -55
-8 -55 -9 1 -37 c1 -22 8 -43 18 -50 20 -15 71 -238 56 -247 -7 -4 -7 -21 -2
-46 9 -43 11 -43 110 -29 l43 6 -7 37 c-4 20 -15 45 -25 55 -11 10 -19 24 -19
32 0 7 -3 20 -6 29 -15 38 26 11 86 -59 67 -77 75 -81 140 -69 31 7 32 8 27
47 -3 22 -11 43 -17 47 -17 10 -58 196 -57 255 1 78 -5 82 -108 66z"/>
<path d="M6212 2273 l-53 -4 7 -37 c4 -20 11 -45 16 -54 11 -22 61 -24 78 -3
7 9 17 12 22 7 14 -14 41 -232 29 -245 -5 -7 -6 -27 -2 -47 6 -33 9 -35 51
-38 24 -2 54 -1 66 2 21 6 22 9 12 43 -5 21 -15 44 -21 51 -13 16 -46 232 -36
238 4 2 10 0 14 -6 3 -5 22 -10 41 -10 l35 0 -7 48 c-3 26 -8 50 -11 55 -4 7
-136 7 -241 0z"/>
<path d="M5118 2173 c-23 -3 -38 -10 -38 -17 0 -35 14 -76 26 -76 16 0 20 -12
39 -138 13 -78 14 -106 5 -117 -11 -13 -5 -81 9 -89 5 -3 283 32 287 37 1 1
-2 28 -8 59 l-10 56 -36 -5 c-21 -4 -41 -12 -47 -18 -13 -17 -62 -27 -70 -16
-14 24 -45 234 -36 245 7 8 7 25 0 49 -11 40 -14 41 -121 30z"/>
<path d="M4830 2139 c-70 -8 -77 -11 -108 -46 -25 -28 -32 -45 -29 -63 3 -14
13 -84 22 -156 17 -130 18 -131 53 -159 l35 -28 99 10 c95 9 100 11 128 44 35
41 36 52 10 210 -21 124 -21 124 -63 161 -23 21 -49 37 -57 37 -8 -1 -49 -5
-90 -10z m92 -179 c10 -47 17 -103 15 -125 l-2 -40 -45 0 -45 0 -16 115 c-19
131 -15 143 40 138 l36 -3 17 -85z"/>
<path d="M4501 2103 c-22 -4 -23 -7 -15 -51 10 -57 6 -174 -6 -186 -15 -15
-34 53 -55 197 -6 35 -8 37 -43 37 -20 0 -45 -7 -55 -14 -15 -12 -16 -17 -5
-42 7 -16 19 -34 26 -39 21 -17 65 -185 70 -268 l4 -78 86 3 87 3 -3 40 c-2
22 -9 46 -14 52 -7 9 -7 36 0 85 20 132 32 176 51 181 13 3 16 13 13 46 l-4
41 -57 -1 c-31 -1 -67 -4 -80 -6z"/>
<path d="M3741 1944 c0 -11 3 -14 6 -6 3 7 2 16 -1 19 -3 4 -6 -2 -5 -13z"/>
<path d="M3732 1870 c0 -14 2 -19 5 -12 2 6 2 18 0 25 -3 6 -5 1 -5 -13z"/>
<path d="M3740 1825 c-3 -22 -8 -84 -15 -169 -6 -76 -11 -92 -31 -111 -26 -24
-21 -44 5 -22 9 8 24 17 35 21 16 5 18 2 13 -31 -11 -84 -69 -335 -103 -448
-19 -66 -37 -134 -39 -151 -1 -17 -7 -40 -13 -50 -5 -11 -13 -41 -17 -69 -9
-65 -18 -80 -55 -95 -53 -22 -230 -7 -331 29 -46 16 -118 37 -159 46 -41 10
-113 28 -159 41 -125 36 -134 33 -74 -23 27 -27 52 -56 56 -65 3 -10 16 -18
27 -18 11 0 23 -7 27 -16 3 -8 12 -13 20 -10 8 3 17 -2 20 -12 10 -28 53 -75
87 -96 18 -11 26 -21 19 -23 -7 -3 -13 -17 -12 -31 0 -15 3 -21 6 -14 4 10 8
10 19 1 18 -14 18 -29 1 -29 -19 0 -15 -89 4 -101 12 -8 11 -12 -5 -24 -11 -8
-14 -15 -8 -15 19 0 14 -28 -8 -50 -11 -11 -22 -20 -25 -20 -7 0 -45 -39 -45
-45 0 -3 -11 -18 -25 -33 -29 -31 -30 -85 -3 -90 9 -2 68 24 132 57 180 93
299 125 379 103 25 -7 45 -7 65 0 24 9 33 8 58 -10 34 -26 135 -48 254 -57 98
-7 125 2 97 33 -9 10 -17 26 -17 36 0 9 -6 19 -14 22 -8 3 -17 22 -21 42 -3
20 -11 51 -17 69 -9 23 -9 39 -1 56 6 14 8 28 4 33 -4 5 -13 47 -20 94 -18
128 -23 159 -23 167 -1 5 -8 13 -16 19 -8 6 -12 16 -9 21 4 6 0 16 -8 23 -21
18 -20 86 2 94 15 6 15 8 0 23 -15 15 -15 17 0 28 13 10 14 19 6 52 -7 28 -7
59 0 94 5 30 8 68 7 84 -3 29 -3 59 -1 160 3 101 -4 172 -18 189 -11 14 -12
21 -1 40 6 13 9 33 6 44 -4 13 -1 31 9 45 15 24 17 77 3 77 -4 0 -8 -5 -8 -11
0 -26 -31 16 -44 60 -8 25 -15 42 -16 36z"/>
<path d="M1982 1350 c-43 -40 -20 -90 49 -110 19 -6 90 -17 159 -25 69 -8 142
-17 163 -20 36 -5 37 -5 37 29 0 40 -3 43 -100 84 -121 50 -161 62 -226 62
-47 0 -65 -4 -82 -20z"/>
<path d="M1595 980 c-18 -29 -26 -90 -31 -240 -9 -287 -36 -420 -85 -420 -19
0 -43 -33 -32 -44 3 -3 2 -6 -4 -6 -11 0 -12 -5 -41 -168 l-18 -102 685 2 685
3 13 25 c14 28 1 39 -21 21 -11 -9 -14 -7 -15 11 -4 78 -14 113 -32 102 -5 -3
-7 -9 -4 -14 3 -5 -5 -10 -17 -12 -14 -2 -25 -13 -29 -28 -6 -22 -7 -23 -8 -4
-1 31 -30 39 -41 11 -7 -19 -9 -19 -9 -3 -1 15 -4 16 -16 6 -27 -23 -28 -21
-45 176 -6 66 -10 125 -9 130 6 33 -1 36 -68 30 -87 -9 -415 -8 -450 0 -34 8
-251 98 -314 130 -26 13 -49 30 -53 39 -3 9 -6 88 -6 175 0 87 -3 165 -6 174
-7 18 -20 21 -29 6z"/>
<path d="M5654 833 c4 -5 13 -8 19 -8 7 0 14 -11 15 -25 2 -13 11 -30 20 -37
19 -14 15 -15 -50 -15 -37 0 -37 0 -22 -22 20 -31 130 -115 166 -128 17 -6 50
-31 74 -55 25 -24 49 -41 54 -38 15 9 50 -28 41 -44 -5 -7 -6 -21 -4 -31 3
-11 -5 -30 -20 -45 -21 -24 -33 -27 -87 -28 -56 0 -64 2 -84 28 -15 19 -25 24
-30 17 -12 -21 -23 -13 -30 21 -7 30 -8 31 -21 13 -8 -11 -15 -29 -15 -39 0
-17 2 -18 17 -6 15 12 16 12 10 -4 -4 -10 -7 -26 -7 -35 0 -12 -6 -8 -18 11
-26 43 -35 32 -28 -33 5 -38 3 -60 -3 -60 -10 0 -23 40 -37 115 l-8 40 -8 -54
c-5 -30 -10 -56 -12 -58 -4 -4 -82 12 -108 22 -10 4 -17 -1 -21 -14 -4 -17
-11 -19 -46 -14 -58 8 -51 -4 14 -22 53 -16 82 -35 51 -35 -8 0 -22 -7 -30
-16 -9 -9 -28 -14 -44 -12 -38 4 -36 -25 3 -33 17 -4 25 -7 18 -8 -14 -1 -113
-94 -113 -106 0 -4 11 3 24 16 43 43 262 143 242 110 -4 -6 9 -8 34 -5 22 3
40 0 40 -5 0 -11 18 -9 44 6 25 14 51 6 104 -28 l42 -28 -16 25 c-14 21 -15
29 -4 49 7 14 19 25 25 25 13 0 41 -52 50 -92 3 -15 17 -40 30 -55 l26 -28
-21 35 c-26 45 -26 86 -1 100 39 20 48 12 65 -57 20 -86 21 -83 -8 -83 -30 0
-42 -16 -26 -35 10 -12 10 -15 -2 -15 -16 0 -69 77 -86 125 -8 22 -11 25 -11
10 -1 -11 8 -35 19 -53 24 -38 24 -43 7 -66 -11 -15 -18 -16 -34 -7 -17 8 -22
8 -27 -4 -5 -13 30 -15 259 -15 146 0 265 2 265 5 0 5 -36 80 -58 120 -14 25
-17 58 -15 207 1 152 -1 176 -13 171 -17 -6 -56 -78 -92 -168 -30 -74 -40 -86
-53 -62 -6 9 -14 15 -20 12 -5 -4 -9 3 -9 15 0 12 4 19 8 16 5 -3 8 30 7 72
-2 74 -3 77 -28 86 -15 6 -27 17 -27 26 0 9 -11 23 -25 30 -14 7 -25 17 -25
22 0 4 -8 8 -18 8 -24 0 -151 82 -135 87 6 2 28 -3 48 -11 44 -19 55 -20 55
-6 0 6 -7 10 -16 10 -9 0 -42 23 -74 50 -32 28 -61 50 -66 50 -11 0 -84 79
-84 91 0 5 -14 9 -32 9 -17 0 -28 -3 -24 -7z m336 -305 c11 -12 18 -23 16 -26
-6 -6 -56 29 -56 39 0 16 19 10 40 -13z m-130 -258 c0 -5 -8 -10 -17 -10 -15
0 -16 2 -3 10 19 12 20 12 20 0z m140 -235 c14 -8 21 -14 15 -14 -5 0 -21 6
-35 14 -14 8 -20 14 -15 14 6 0 21 -6 35 -14z"/>
<path d="M4896 571 c-7 -11 14 -51 26 -51 4 0 3 -11 -4 -24 -7 -18 -22 -27
-49 -31 -36 -6 -37 -7 -32 -41 l6 -35 -34 5 c-61 11 -109 15 -109 10 0 -3 5
-14 11 -25 8 -16 20 -20 57 -19 26 1 58 -2 72 -6 22 -7 24 -6 11 9 -18 23 -3
21 34 -3 41 -27 54 -25 92 12 28 27 40 32 90 33 65 2 123 27 123 53 0 14 2 14
9 3 6 -9 8 -2 6 20 -3 32 -21 42 -35 19 -6 -10 -31 2 -33 16 -1 5 -9 8 -17 7
-8 -1 -28 4 -45 12 -16 7 -55 18 -85 23 -30 6 -62 13 -71 17 -10 3 -20 2 -23
-4z m49 -81 c3 -5 -1 -10 -10 -10 -9 0 -13 5 -10 10 3 6 8 10 10 10 2 0 7 -4
10 -10z"/>
<path d="M4380 434 c0 -11 5 -14 16 -10 9 3 20 6 25 6 5 0 9 5 9 10 0 6 -11
10 -25 10 -16 0 -25 -6 -25 -16z"/>
<path d="M5573 424 c-20 -53 -22 -64 -13 -64 10 0 33 66 28 82 -2 6 -9 -2 -15
-18z"/>
<path d="M6914 415 c-4 -8 -13 -15 -20 -15 -8 0 -19 -11 -26 -25 -6 -13 -27
-31 -47 -40 -20 -9 -44 -20 -53 -25 -10 -6 -26 -10 -35 -10 -33 0 -143 -97
-143 -125 0 -9 -5 -13 -10 -10 -6 3 -13 -1 -16 -9 -3 -9 -10 -13 -15 -10 -5 3
-9 2 -8 -3 3 -14 -13 -43 -21 -38 -4 2 -8 -10 -8 -28 0 -17 -1 -34 -2 -37 -14
-42 -30 -40 351 -40 346 0 360 1 379 20 11 11 24 20 29 20 5 0 19 14 31 31 22
30 22 31 5 92 -9 34 -28 78 -41 98 -20 28 -44 117 -44 162 0 13 -30 7 -36 -7
-3 -7 -22 -21 -44 -31 -32 -15 -44 -15 -77 -5 -21 7 -52 21 -69 31 -38 23 -73
24 -80 4z"/>
<path d="M4345 412 c-10 -2 -42 -26 -70 -52 -27 -27 -63 -59 -80 -71 -16 -13
-35 -30 -41 -38 -6 -8 -26 -21 -45 -30 -18 -9 -35 -23 -37 -32 -4 -23 42 -30
133 -22 69 5 75 8 75 29 0 13 13 33 30 48 24 19 29 31 25 49 -4 15 -1 28 9 36
9 8 16 21 16 30 0 9 5 22 12 29 15 15 0 30 -27 24z"/>
<path d="M4680 199 c0 -11 43 -22 65 -17 9 1 16 8 16 13 -1 12 -81 16 -81 4z"/>
<path d="M5062 149 c-1 -15 -5 -42 -9 -60 -7 -33 -7 -33 -14 -9 -5 18 -7 11
-8 -27 l-1 -53 53 1 c47 0 50 1 27 12 -14 6 -27 13 -30 15 -3 2 -8 36 -11 75
-3 40 -6 60 -7 46z"/>
<path d="M4937 31 c-4 -17 -3 -21 5 -13 5 5 8 16 6 23 -3 8 -7 3 -11 -10z"/>
<path d="M5762 25 c6 -14 18 -25 26 -25 12 0 10 6 -8 25 -13 14 -25 25 -27 25
-1 0 3 -11 9 -25z"/>
<path d="M5171 32 c-6 -2 -11 -10 -11 -18 0 -11 24 -14 128 -13 70 0 123 2
117 4 -70 21 -100 26 -156 28 -37 2 -72 1 -78 -1z"/>
<path d="M5717 20 c3 -11 14 -20 25 -20 22 0 16 15 -12 30 -15 8 -17 7 -13
-10z"/>
<path d="M5440 15 c0 -8 4 -15 10 -15 5 0 7 7 4 15 -8 19 -14 19 -14 0z"/>
<path d="M5501 14 c0 -11 3 -14 6 -6 3 7 2 16 -1 19 -3 4 -6 -2 -5 -13z"/>
<path d="M5680 10 c0 -6 7 -10 15 -10 8 0 15 2 15 4 0 2 -7 6 -15 10 -8 3 -15
1 -15 -4z"/>
</g>
</svg>
